<svg id="svg" version="1.1" xmlns="http://www.w3.org/2000/svg" xmlns:xlink="http://www.w3.org/1999/xlink" width="400" height="400" viewBox="0, 0, 400,400"><g id="svgg"><path id="path0" d="M183.000 0.835 C 62.381 11.891,-18.921 120.810,4.015 240.618 C 19.991 324.069,89.034 388.501,173.925 399.179 C 183.489 400.382,217.618 400.405,226.885 399.214 C 318.063 387.498,388.827 316.200,399.395 225.402 C 401.296 209.071,400.060 175.962,396.968 160.400 C 379.856 74.272,311.946 12.177,223.007 1.337 C 216.880 0.590,189.432 0.246,183.000 0.835 M207.245 59.900 C 209.737 61.171,257.127 95.309,260.118 97.989 C 263.900 101.377,264.045 104.032,260.629 107.387 C 258.427 109.550,211.126 143.834,207.800 145.677 C 201.640 149.091,199.600 146.145,199.600 133.835 C 199.600 118.575,197.348 116.859,182.225 120.587 C 154.091 127.523,132.578 147.296,123.877 174.217 C 116.275 197.736,119.860 220.487,134.732 243.104 C 142.251 254.538,142.498 261.934,135.555 267.776 C 127.078 274.909,116.988 271.732,108.321 259.200 C 87.652 229.314,83.388 191.362,96.884 157.400 C 111.266 121.205,145.907 94.191,184.600 88.995 C 199.335 87.016,199.218 87.145,199.590 72.400 C 199.861 61.691,200.082 60.632,202.305 59.426 C 203.881 58.571,204.813 58.660,207.245 59.900 M284.920 130.404 C 297.702 134.352,313.235 163.700,316.652 190.358 C 324.376 250.621,278.663 307.395,217.600 313.378 C 212.294 313.898,209.936 315.077,208.358 318.000 C 207.967 318.723,207.758 321.655,207.601 328.600 C 207.311 341.444,206.502 343.276,201.372 342.698 C 198.932 342.423,198.929 342.421,173.800 324.215 C 143.120 301.989,143.442 302.246,142.807 299.432 C 141.961 295.680,143.537 293.910,155.059 285.677 C 165.079 278.516,178.335 269.008,188.400 261.762 C 205.325 249.578,206.996 250.133,207.546 268.122 C 207.956 281.544,209.485 282.869,221.689 280.382 C 277.702 268.967,303.675 206.599,272.287 158.884 C 270.302 155.868,268.121 152.230,267.439 150.800 C 261.934 139.252,272.741 126.643,284.920 130.404 " stroke="none" fill="#333434" fill-rule="evenodd"></path><path id="path1" d="M277.494 131.612 C 269.317 133.666,265.104 142.458,268.668 150.028 C 269.334 151.443,271.462 155.013,273.396 157.961 C 304.954 206.064,278.858 269.621,222.800 281.190 C 208.470 284.148,206.803 282.850,206.384 268.400 C 205.949 253.430,203.834 251.879,193.800 259.170 C 192.260 260.289,189.650 262.161,188.000 263.331 C 177.933 270.465,150.054 290.540,148.014 292.124 C 141.893 296.878,142.423 299.999,150.359 305.914 C 161.498 314.218,195.430 338.731,197.680 340.100 C 204.483 344.239,206.454 341.678,206.685 328.400 C 206.846 319.084,207.151 317.076,208.649 315.461 C 210.544 313.416,211.009 313.287,221.800 311.787 C 295.719 301.518,338.411 220.530,304.345 155.200 C 294.879 137.048,286.201 129.423,277.494 131.612 " stroke="none" fill="#e8eaeb" fill-rule="evenodd"></path><path id="path2" d="M202.305 59.426 C 200.082 60.632,199.861 61.691,199.590 72.400 C 199.218 87.145,199.335 87.016,184.600 88.995 C 117.204 98.045,73.284 167.273,94.381 231.200 C 100.123 248.596,111.451 266.395,118.974 269.839 C 129.224 274.532,140.463 267.719,140.463 256.812 C 140.463 252.639,139.523 250.390,134.732 243.104 C 119.860 220.487,116.275 197.736,123.877 174.217 C 132.578 147.296,154.091 127.523,182.225 120.587 C 197.348 116.859,199.600 118.575,199.600 133.835 C 199.600 144.230,200.542 146.811,204.331 146.793 C 206.608 146.782,208.138 145.766,234.190 126.984 C 259.786 108.531,262.494 106.358,262.953 103.908 C 263.654 100.176,263.802 100.304,233.762 78.600 C 205.443 58.139,205.082 57.919,202.305 59.426 M277.400 130.043 C 268.323 132.100,263.408 142.343,267.439 150.800 C 268.121 152.230,270.302 155.868,272.287 158.884 C 287.349 181.782,290.127 207.353,280.221 231.922 C 270.199 256.780,248.222 274.975,221.689 280.382 C 209.485 282.869,207.956 281.544,207.546 268.122 C 206.996 250.133,205.325 249.578,188.400 261.762 C 178.335 269.008,165.079 278.516,155.059 285.677 C 143.537 293.910,141.961 295.680,142.807 299.432 C 143.442 302.246,143.120 301.989,173.800 324.215 C 198.929 342.421,198.932 342.423,201.372 342.698 C 206.502 343.276,207.311 341.444,207.601 328.600 C 207.758 321.655,207.967 318.723,208.358 318.000 C 209.936 315.077,212.294 313.898,217.600 313.378 C 295.977 305.699,342.304 218.170,303.580 150.931 C 293.652 133.694,286.494 127.982,277.400 130.043 M286.562 132.723 C 296.254 137.259,309.921 161.978,313.986 182.324 C 326.273 243.822,284.034 303.141,221.800 311.787 C 206.670 313.889,206.942 313.591,206.685 328.400 C 206.454 341.678,204.483 344.239,197.680 340.100 C 195.430 338.731,161.498 314.218,150.359 305.914 C 142.423 299.999,141.893 296.878,148.014 292.124 C 150.054 290.540,177.933 270.465,188.000 263.331 C 189.650 262.161,192.260 260.289,193.800 259.170 C 203.834 251.879,205.949 253.430,206.384 268.400 C 206.803 282.850,208.470 284.148,222.800 281.190 C 278.858 269.621,304.954 206.064,273.396 157.961 C 268.408 150.358,267.461 148.206,267.442 144.428 C 267.391 134.575,277.411 128.441,286.562 132.723 " stroke="none" fill="#047cbb" fill-rule="evenodd"></path></g></svg>
