<svg id="svg" version="1.1" xmlns="http://www.w3.org/2000/svg" xmlns:xlink="http://www.w3.org/1999/xlink" width="400" height="400" viewBox="0, 0, 400,400"><g id="svgg"><path id="path0" d="M275.400 189.064 C 235.100 192.329,203.247 225.344,203.203 263.895 L 203.200 266.790 188.798 266.895 L 174.396 267.000 193.585 286.186 L 212.774 305.371 230.687 287.518 C 240.539 277.699,249.320 269.025,250.200 268.242 L 251.800 266.819 237.324 266.809 C 229.362 266.804,222.776 266.665,222.689 266.500 C 222.602 266.335,222.673 264.246,222.848 261.857 C 225.764 221.913,268.949 196.605,304.972 213.727 L 307.800 215.071 314.900 208.283 C 318.805 204.549,322.000 201.350,322.000 201.173 C 322.000 200.710,315.336 197.020,311.259 195.226 C 300.383 190.440,286.937 188.129,275.400 189.064 " stroke="none" fill="#f3f3f3" fill-rule="evenodd"></path><path id="path1" d="M35.800 19.632 C 20.774 21.729,7.711 33.998,4.632 48.908 C 3.667 53.577,3.667 286.423,4.632 291.092 C 7.428 304.628,18.395 316.086,32.000 319.683 L 35.400 320.582 95.700 320.700 C 128.865 320.764,156.000 320.742,156.000 320.651 C 156.000 320.559,155.446 319.181,154.768 317.588 C 134.421 269.773,144.542 212.571,180.281 173.391 C 231.795 116.919,320.956 114.029,375.233 167.073 C 377.781 169.563,379.994 171.600,380.152 171.600 C 380.816 171.600,380.175 89.554,379.488 86.800 C 376.268 73.879,367.589 63.830,355.952 59.549 C 349.333 57.114,353.609 57.230,269.200 57.209 L 191.800 57.189 173.268 38.195 L 154.737 19.200 96.468 19.249 C 64.421 19.276,37.120 19.448,35.800 19.632 M270.800 150.842 C 174.009 159.296,130.870 277.516,199.317 346.739 C 254.283 402.330,348.256 387.629,383.634 317.905 C 424.518 237.331,360.795 142.981,270.800 150.842 M290.680 189.415 C 301.104 190.772,312.239 194.704,320.897 200.086 L 322.393 201.016 316.097 207.222 C 312.633 210.635,309.325 213.839,308.744 214.342 L 307.689 215.256 305.344 214.074 C 292.836 207.765,275.993 206.809,261.791 211.601 C 239.876 218.996,222.800 242.011,222.800 264.151 L 222.800 266.400 237.200 266.400 C 245.120 266.400,251.600 266.548,251.600 266.729 C 251.600 267.162,212.974 305.200,212.535 305.200 C 212.349 305.200,203.558 296.560,193.000 286.000 L 173.803 266.800 188.270 266.800 L 202.736 266.800 202.962 264.100 C 204.614 244.365,208.320 233.564,217.817 220.803 C 235.192 197.457,262.405 185.734,290.680 189.415 M367.795 246.963 C 378.248 257.282,386.800 265.967,386.800 266.263 C 386.800 266.702,384.231 266.800,372.659 266.800 L 358.517 266.800 358.237 271.486 C 355.193 322.400,305.087 356.690,257.000 340.767 C 252.089 339.141,242.683 334.721,240.688 333.103 L 239.576 332.200 246.552 325.241 L 253.527 318.281 257.264 319.905 C 295.424 336.488,339.200 308.765,339.200 268.016 L 339.200 266.800 324.800 266.800 C 316.880 266.800,310.400 266.666,310.400 266.502 C 310.400 266.178,348.493 227.978,348.678 228.116 C 348.740 228.162,357.342 236.643,367.795 246.963 " stroke="none" fill="#343434" fill-rule="evenodd"></path><path id="path2" d="M329.600 247.400 L 310.603 266.400 324.902 266.400 L 339.200 266.400 339.198 269.700 C 339.188 291.771,322.592 314.285,300.675 321.960 C 286.562 326.903,269.132 326.059,256.339 319.813 L 253.678 318.513 246.798 325.402 L 239.917 332.292 242.350 333.770 C 266.749 348.591,299.417 347.778,323.081 331.760 C 344.500 317.260,358.000 293.224,358.000 269.585 L 358.000 266.410 372.202 266.305 L 386.404 266.200 367.500 247.300 L 348.597 228.400 329.600 247.400 " stroke="none" fill="#047cbc" fill-rule="evenodd"></path><path id="path3" d="M274.900 189.076 C 275.285 189.176,275.915 189.176,276.300 189.076 C 276.685 188.975,276.370 188.893,275.600 188.893 C 274.830 188.893,274.515 188.975,274.900 189.076 M285.300 189.076 C 285.685 189.176,286.315 189.176,286.700 189.076 C 287.085 188.975,286.770 188.893,286.000 188.893 C 285.230 188.893,284.915 188.975,285.300 189.076 M312.189 210.900 L 309.400 213.800 312.300 211.011 C 314.994 208.420,315.383 208.000,315.089 208.000 C 315.028 208.000,313.723 209.305,312.189 210.900 M239.578 225.500 L 238.200 227.000 239.700 225.622 C 241.096 224.338,241.384 224.000,241.078 224.000 C 241.012 224.000,240.337 224.675,239.578 225.500 M329.483 247.117 C 318.987 257.615,310.400 266.337,310.400 266.502 C 310.400 266.666,316.925 266.758,324.900 266.708 L 339.400 266.615 325.098 266.408 L 310.796 266.200 329.700 247.300 L 348.603 228.400 367.600 247.400 L 386.597 266.400 372.298 266.400 L 358.000 266.400 358.079 269.500 L 358.159 272.600 358.297 269.700 L 358.435 266.800 372.618 266.800 C 384.224 266.800,386.800 266.702,386.800 266.263 C 386.800 265.890,350.150 229.217,348.678 228.116 C 348.616 228.070,339.978 236.620,329.483 247.117 M202.893 265.600 C 202.893 266.370,202.975 266.685,203.076 266.300 C 203.176 265.915,203.176 265.285,203.076 264.900 C 202.975 264.515,202.893 264.830,202.893 265.600 M222.503 266.000 C 222.644 266.519,224.629 266.601,237.233 266.608 L 251.800 266.616 237.420 266.503 C 226.559 266.417,222.955 266.269,222.690 265.895 C 222.433 265.533,222.383 265.561,222.503 266.000 M193.000 286.000 C 203.558 296.560,212.287 305.200,212.397 305.200 C 212.507 305.200,203.958 296.560,193.400 286.000 C 182.842 275.440,174.113 266.800,174.003 266.800 C 173.893 266.800,182.442 275.440,193.000 286.000 M242.196 276.100 L 235.400 283.000 242.300 276.204 C 248.710 269.891,249.381 269.200,249.096 269.200 C 249.038 269.200,245.933 272.305,242.196 276.100 M338.909 272.400 C 338.909 273.390,338.987 273.795,339.082 273.300 C 339.178 272.805,339.178 271.995,339.082 271.500 C 338.987 271.005,338.909 271.410,338.909 272.400 M357.701 275.400 C 357.705 276.280,357.787 276.593,357.883 276.095 C 357.979 275.598,357.975 274.878,357.875 274.495 C 357.775 274.113,357.696 274.520,357.701 275.400 M355.850 285.650 C 355.709 286.353,355.669 287.002,355.759 287.092 C 355.850 287.183,356.048 286.691,356.200 286.000 C 356.352 285.309,356.393 284.659,356.291 284.558 C 356.189 284.456,355.991 284.947,355.850 285.650 M334.465 289.817 C 333.795 291.288,333.923 291.602,334.647 290.265 C 334.986 289.640,335.188 289.054,335.096 288.963 C 335.005 288.871,334.721 289.256,334.465 289.817 M354.080 291.880 C 353.830 292.694,353.692 293.426,353.773 293.506 C 353.854 293.587,354.136 292.999,354.400 292.200 C 354.664 291.401,354.802 290.669,354.707 290.574 C 354.612 290.478,354.330 291.066,354.080 291.880 M331.280 296.120 C 326.499 304.591,316.896 313.681,307.507 318.622 C 305.248 319.810,303.558 320.787,303.750 320.791 C 306.027 320.847,316.882 313.425,322.091 308.251 C 326.501 303.871,333.824 294.000,332.663 294.000 C 332.560 294.000,331.938 294.954,331.280 296.120 M350.085 301.415 C 349.161 303.277,348.493 304.800,348.598 304.800 C 348.865 304.800,352.085 298.351,351.907 298.174 C 351.828 298.095,351.008 299.553,350.085 301.415 M347.037 306.972 C 342.046 315.490,332.363 325.492,323.000 331.803 C 318.652 334.733,318.073 335.176,319.600 334.401 C 328.262 330.005,343.382 314.917,347.961 306.100 C 348.792 304.500,348.108 305.146,347.037 306.972 M246.456 325.344 L 239.520 332.289 240.660 333.088 C 242.063 334.071,243.600 334.889,243.600 334.652 C 243.600 334.555,242.768 333.988,241.750 333.392 L 239.900 332.308 246.846 325.354 C 250.666 321.529,253.701 318.400,253.591 318.400 C 253.481 318.400,250.270 321.525,246.456 325.344 M258.000 320.600 C 258.550 320.914,259.180 321.172,259.400 321.172 C 259.620 321.172,259.350 320.914,258.800 320.600 C 258.250 320.286,257.620 320.028,257.400 320.028 C 257.180 320.028,257.450 320.286,258.000 320.600 M260.400 321.533 C 260.730 321.736,261.450 322.024,262.000 322.171 C 262.695 322.357,262.817 322.325,262.400 322.067 C 262.070 321.864,261.350 321.576,260.800 321.429 C 260.105 321.243,259.983 321.275,260.400 321.533 M263.800 322.800 C 264.240 322.989,264.870 323.144,265.200 323.144 C 265.578 323.144,265.504 323.017,265.000 322.800 C 264.560 322.611,263.930 322.456,263.600 322.456 C 263.222 322.456,263.296 322.583,263.800 322.800 M272.500 324.676 C 272.885 324.776,273.515 324.776,273.900 324.676 C 274.285 324.575,273.970 324.493,273.200 324.493 C 272.430 324.493,272.115 324.575,272.500 324.676 M288.100 324.676 C 288.485 324.776,289.115 324.776,289.500 324.676 C 289.885 324.575,289.570 324.493,288.800 324.493 C 288.030 324.493,287.715 324.575,288.100 324.676 M278.082 325.096 C 279.558 325.173,282.078 325.173,283.682 325.097 C 285.287 325.021,284.080 324.958,281.000 324.958 C 277.920 324.957,276.607 325.019,278.082 325.096 M244.000 334.998 C 244.000 335.265,249.649 338.085,249.827 337.906 C 249.907 337.827,248.628 337.097,246.986 336.284 C 245.344 335.471,244.000 334.893,244.000 334.998 M314.800 336.600 C 312.930 337.568,311.539 338.369,311.709 338.380 C 312.134 338.408,318.400 335.238,318.400 334.996 C 318.400 334.724,318.570 334.649,314.800 336.600 M251.200 338.600 C 251.750 338.914,252.380 339.172,252.600 339.172 C 252.820 339.172,252.550 338.914,252.000 338.600 C 251.450 338.286,250.820 338.028,250.600 338.028 C 250.380 338.028,250.650 338.286,251.200 338.600 M273.105 344.283 C 273.602 344.379,274.322 344.375,274.705 344.275 C 275.087 344.175,274.680 344.096,273.800 344.101 C 272.920 344.105,272.607 344.187,273.105 344.283 M287.100 344.282 C 287.595 344.378,288.405 344.378,288.900 344.282 C 289.395 344.187,288.990 344.109,288.000 344.109 C 287.010 344.109,286.605 344.187,287.100 344.282 M279.312 344.695 C 280.364 344.777,281.984 344.776,282.912 344.692 C 283.840 344.608,282.980 344.541,281.000 344.542 C 279.020 344.543,278.260 344.612,279.312 344.695 " stroke="none" fill="#5c5c5c" fill-rule="evenodd"></path></g></svg>
