<svg id="svg" xmlns="http://www.w3.org/2000/svg" xmlns:xlink="http://www.w3.org/1999/xlink" width="400" height="400" viewBox="0, 0, 400,400" version="1.1"><g id="svgg"><path id="path0" d="M161.400 0.397 C 160.300 0.567,158.320 0.980,157.000 1.314 C 155.680 1.648,153.945 2.033,153.144 2.170 C 152.344 2.307,149.464 3.064,146.744 3.852 C 144.025 4.640,140.622 5.616,139.182 6.022 C 136.812 6.690,131.413 8.577,123.800 11.398 C 120.546 12.604,101.604 21.999,97.200 24.592 C 95.550 25.563,93.750 26.587,93.200 26.866 C 92.650 27.146,89.770 28.984,86.800 30.952 C 82.192 34.006,80.169 35.466,77.311 37.800 C 77.042 38.020,76.083 38.740,75.181 39.400 C 73.535 40.604,71.305 42.458,65.447 47.491 C 58.098 53.805,44.327 68.445,39.400 75.181 C 38.740 76.083,38.020 77.042,37.800 77.311 C 35.466 80.169,34.006 82.192,30.952 86.800 C 28.984 89.770,27.146 92.650,26.866 93.200 C 26.587 93.750,25.564 95.550,24.593 97.200 C 22.106 101.426,12.567 120.548,11.624 123.197 C 11.193 124.409,9.927 127.920,8.810 131.000 C 7.694 134.080,6.444 137.770,6.032 139.200 C 5.621 140.630,4.640 144.025,3.852 146.744 C 3.064 149.464,2.307 152.344,2.169 153.144 C 2.032 153.945,1.532 156.040,1.060 157.800 C -0.144 162.281,-0.305 237.220,0.880 241.400 C 1.255 242.720,1.840 245.150,2.180 246.800 C 2.521 248.450,3.442 251.960,4.227 254.600 C 5.011 257.240,5.828 260.099,6.041 260.954 C 6.400 262.394,7.456 265.511,9.785 272.000 C 10.298 273.430,11.294 275.950,11.999 277.600 C 12.703 279.250,13.530 281.272,13.836 282.093 C 15.657 286.988,26.638 306.789,31.863 314.600 C 33.481 317.020,35.721 320.170,36.840 321.600 C 37.959 323.030,39.573 325.132,40.428 326.271 C 41.283 327.410,42.170 328.458,42.400 328.600 C 42.630 328.742,43.571 329.880,44.492 331.129 C 47.770 335.577,64.910 352.917,68.400 355.316 C 69.390 355.997,70.258 356.694,70.330 356.866 C 70.401 357.038,71.661 358.066,73.130 359.149 C 74.598 360.232,76.970 362.036,78.400 363.158 C 80.628 364.906,89.966 371.245,94.389 374.012 C 96.801 375.521,117.043 386.000,117.546 386.000 C 117.810 386.000,118.964 386.475,120.110 387.056 C 121.255 387.636,122.644 388.256,123.196 388.433 C 123.748 388.609,125.910 389.406,128.000 390.202 C 132.612 391.960,137.515 393.594,141.800 394.801 C 143.560 395.297,146.080 396.025,147.400 396.419 C 148.720 396.813,150.700 397.326,151.800 397.558 C 152.900 397.790,155.510 398.390,157.600 398.890 L 161.400 399.800 200.200 399.800 L 239.000 399.800 242.800 398.859 C 250.045 397.065,252.614 396.401,255.400 395.602 C 256.940 395.161,259.527 394.433,261.149 393.985 C 262.771 393.536,264.751 392.893,265.549 392.556 C 266.347 392.218,268.710 391.338,270.800 390.600 C 278.454 387.898,279.818 387.309,289.600 382.485 C 297.346 378.664,301.834 376.235,306.512 373.332 C 310.881 370.620,318.680 365.426,320.687 363.890 C 321.615 363.181,323.484 361.790,324.840 360.800 C 335.357 353.122,353.122 335.357,360.800 324.840 C 361.790 323.484,363.179 321.615,363.887 320.687 C 365.481 318.596,372.463 308.232,373.376 306.600 C 373.746 305.940,375.018 303.690,376.204 301.600 C 378.319 297.873,385.059 284.543,386.821 280.600 C 387.953 278.069,388.909 275.590,390.600 270.800 C 391.338 268.710,392.218 266.347,392.556 265.549 C 392.893 264.751,393.536 262.771,393.985 261.149 C 394.433 259.527,395.161 256.940,395.602 255.400 C 396.401 252.614,397.065 250.045,398.859 242.800 L 399.800 239.000 399.800 200.200 L 399.800 161.400 398.890 157.600 C 398.390 155.510,397.790 152.900,397.558 151.800 C 397.326 150.700,396.813 148.720,396.419 147.400 C 396.025 146.080,395.297 143.560,394.801 141.800 C 393.594 137.515,391.960 132.612,390.202 128.000 C 389.406 125.910,388.609 123.748,388.433 123.196 C 388.256 122.644,387.636 121.255,387.056 120.110 C 386.475 118.964,386.000 117.810,386.000 117.546 C 386.000 116.834,375.409 96.655,373.326 93.400 C 369.002 86.640,365.049 80.808,363.159 78.400 C 362.037 76.970,360.232 74.598,359.149 73.130 C 358.066 71.661,357.038 70.401,356.866 70.330 C 356.694 70.258,355.997 69.390,355.316 68.400 C 352.917 64.910,335.577 47.770,331.129 44.492 C 329.880 43.571,328.742 42.630,328.600 42.400 C 328.458 42.170,327.410 41.283,326.271 40.428 C 325.132 39.573,323.030 37.959,321.600 36.841 C 318.522 34.433,308.205 27.440,306.789 26.802 C 306.245 26.557,304.450 25.574,302.800 24.619 C 298.377 22.059,283.822 14.479,282.093 13.836 C 281.272 13.530,279.250 12.706,277.600 12.005 C 273.990 10.471,264.184 6.953,261.400 6.193 C 260.300 5.893,257.240 5.008,254.600 4.226 C 251.960 3.444,248.085 2.442,245.988 2.000 C 243.892 1.557,241.552 0.975,240.788 0.707 C 239.188 0.146,164.894 -0.145,161.400 0.397 M216.600 33.933 C 219.020 34.167,222.170 34.540,223.600 34.761 C 225.030 34.983,227.460 35.353,229.000 35.583 C 234.995 36.479,242.234 38.259,252.000 41.239 C 252.770 41.474,254.300 42.007,255.400 42.423 C 256.500 42.839,258.660 43.650,260.200 44.226 C 263.241 45.363,271.510 49.069,274.400 50.591 C 275.390 51.112,277.640 52.295,279.400 53.219 C 285.145 56.235,294.475 62.230,299.600 66.199 C 300.590 66.966,301.850 67.901,302.400 68.277 C 303.479 69.016,305.336 70.548,309.930 74.487 C 316.549 80.163,328.350 92.680,331.722 97.600 C 332.099 98.150,333.034 99.410,333.801 100.400 C 339.222 107.401,343.231 113.874,349.408 125.600 C 350.731 128.111,354.546 136.555,355.552 139.200 C 356.012 140.410,357.022 143.061,357.795 145.091 C 358.568 147.122,359.200 149.025,359.200 149.321 C 359.200 149.618,359.648 151.177,360.196 152.788 C 361.161 155.626,362.008 158.871,362.860 163.000 C 363.087 164.100,363.433 165.630,363.629 166.400 C 367.628 182.129,367.594 216.615,363.561 234.000 C 363.332 234.990,362.984 236.520,362.790 237.400 C 361.823 241.764,361.102 244.575,360.558 246.109 C 360.228 247.039,359.598 249.134,359.160 250.764 C 358.721 252.394,358.010 254.499,357.581 255.442 C 357.151 256.385,356.800 257.270,356.800 257.410 C 356.800 258.275,351.571 270.295,349.408 274.400 C 346.600 279.731,343.875 284.764,343.126 286.000 C 341.045 289.439,336.815 295.665,334.609 298.536 C 333.284 300.261,331.937 302.061,331.616 302.536 C 326.996 309.375,309.375 326.996,302.536 331.616 C 302.061 331.937,300.261 333.284,298.536 334.609 C 293.118 338.772,286.853 342.777,280.400 346.204 C 278.090 347.431,275.750 348.684,275.200 348.988 C 271.893 350.819,258.273 356.800,257.410 356.800 C 257.270 356.800,256.385 357.151,255.442 357.581 C 254.499 358.010,252.394 358.721,250.764 359.160 C 249.134 359.598,247.039 360.228,246.109 360.558 C 244.577 361.102,242.083 361.742,237.300 362.818 C 236.365 363.028,234.835 363.375,233.900 363.589 C 216.411 367.596,182.083 367.616,166.400 363.629 C 165.630 363.433,164.100 363.087,163.000 362.860 C 158.871 362.008,155.626 361.161,152.788 360.196 C 151.177 359.648,149.618 359.200,149.321 359.200 C 149.025 359.200,147.122 358.568,145.091 357.795 C 143.061 357.022,140.410 356.012,139.200 355.552 C 136.555 354.546,128.111 350.731,125.600 349.408 C 113.874 343.231,107.401 339.222,100.400 333.801 C 99.410 333.034,98.150 332.099,97.600 331.722 C 92.680 328.350,80.163 316.549,74.487 309.930 C 70.548 305.336,69.016 303.479,68.277 302.400 C 67.901 301.850,66.966 300.590,66.199 299.600 C 62.230 294.475,56.235 285.145,53.219 279.400 C 52.295 277.640,51.112 275.390,50.591 274.400 C 49.251 271.854,45.442 263.416,44.453 260.800 C 42.391 255.347,41.646 253.304,41.244 252.000 C 39.617 246.725,38.330 242.125,37.662 239.200 C 36.235 232.949,36.004 231.816,35.583 229.000 C 35.353 227.460,34.984 225.030,34.763 223.600 C 33.821 217.495,33.463 211.095,33.454 200.200 C 33.444 187.052,33.786 182.362,35.570 171.200 C 37.559 158.758,42.868 141.440,47.578 132.030 C 48.412 130.364,49.227 128.550,49.389 128.000 C 49.551 127.450,50.655 125.357,51.842 123.348 C 53.029 121.339,54.000 119.550,54.000 119.372 C 54.000 118.519,62.852 104.763,66.208 100.400 C 66.970 99.410,67.901 98.150,68.277 97.600 C 70.306 94.636,76.676 87.464,82.070 82.070 C 87.464 76.676,94.636 70.306,97.600 68.277 C 98.150 67.901,99.410 66.970,100.400 66.208 C 104.763 62.852,118.519 54.000,119.372 54.000 C 119.550 54.000,121.339 53.029,123.348 51.842 C 125.357 50.655,127.450 49.551,128.000 49.389 C 128.550 49.227,130.364 48.412,132.030 47.578 C 141.440 42.868,158.758 37.559,171.200 35.570 C 177.472 34.568,179.270 34.345,183.730 34.019 C 186.331 33.829,188.573 33.560,188.713 33.420 C 189.098 33.035,211.587 33.449,216.600 33.933 M200.800 98.667 C 183.050 101.022,171.411 111.129,168.172 127.000 C 167.527 130.163,167.543 130.855,168.395 136.531 C 169.225 142.057,173.869 148.820,178.825 151.720 C 185.728 155.760,199.893 156.192,209.821 152.667 C 220.626 148.830,230.375 138.436,231.637 129.408 C 231.822 128.084,232.095 126.219,232.244 125.264 C 232.498 123.634,232.091 120.123,231.168 116.000 C 229.131 106.895,221.994 100.632,211.580 98.810 C 206.412 97.905,206.528 97.907,200.800 98.667 M226.200 169.832 C 223.342 170.632,218.112 171.583,211.800 172.451 C 209.907 172.711,197.324 172.995,181.000 173.145 C 165.820 173.285,153.089 173.553,152.708 173.740 C 150.511 174.818,150.584 190.014,152.791 191.195 C 153.223 191.427,156.730 191.600,160.974 191.600 L 168.400 191.600 168.400 236.000 L 168.400 280.400 160.662 280.400 C 150.509 280.400,151.400 279.377,151.400 291.031 C 151.400 299.808,151.417 299.995,152.311 300.889 L 153.222 301.800 200.000 301.800 L 246.778 301.800 247.689 300.889 C 248.583 299.995,248.600 299.808,248.600 291.031 C 248.600 279.410,249.425 280.400,239.738 280.400 L 232.400 280.400 232.398 226.700 C 232.396 191.049,232.257 172.501,231.983 171.515 C 231.611 170.173,229.775 169.007,228.400 169.238 C 228.290 169.256,227.300 169.524,226.200 169.832 " stroke="none" fill="#04bcd4" fill-rule="evenodd"></path><path id="path1" d="" stroke="none" fill="#08bcd4" fill-rule="evenodd"></path></g></svg>
