<svg id="svg" xmlns="http://www.w3.org/2000/svg" xmlns:xlink="http://www.w3.org/1999/xlink" width="400" height="400" viewBox="0, 0, 400,400" version="1.1"><g id="svgg"><path id="path0" d="M198.400 18.400 C 198.070 18.613,197.136 18.791,196.324 18.794 C 195.512 18.797,194.736 18.980,194.600 19.200 C 194.464 19.420,194.050 19.600,193.680 19.600 C 192.794 19.600,187.405 22.272,186.785 23.018 C 186.519 23.338,186.095 23.600,185.842 23.600 C 185.274 23.600,179.623 29.352,178.571 31.000 C 177.197 33.151,175.200 37.280,175.200 37.968 C 175.200 38.338,175.032 38.811,174.827 39.020 C 174.621 39.229,174.396 40.120,174.327 41.000 L 174.200 42.600 156.800 42.800 L 139.400 43.000 136.299 44.474 C 132.752 46.161,129.852 48.861,128.361 51.864 C 127.100 54.405,126.650 77.174,127.781 81.232 C 128.512 83.854,130.654 87.969,131.447 88.273 C 131.751 88.390,132.000 88.723,132.000 89.012 C 132.000 89.302,132.547 89.958,133.215 90.470 C 133.883 90.981,135.008 91.850,135.715 92.400 C 137.525 93.809,138.665 94.400,139.571 94.400 C 140.001 94.400,140.464 94.580,140.600 94.800 C 140.763 95.064,162.648 95.200,204.956 95.200 L 269.064 95.200 270.984 94.228 C 273.034 93.190,275.600 90.942,275.600 90.184 C 275.600 89.931,275.960 89.398,276.400 89.000 C 276.840 88.602,277.200 87.865,277.200 87.362 C 277.200 86.859,277.380 86.336,277.600 86.200 C 277.820 86.064,278.000 85.524,278.000 85.000 C 278.000 84.476,278.180 83.936,278.400 83.800 C 278.656 83.642,278.800 77.804,278.800 67.600 C 278.800 57.396,278.656 51.558,278.400 51.400 C 278.180 51.264,278.000 50.801,278.000 50.371 C 278.000 48.750,275.429 45.525,273.400 44.601 C 269.505 42.826,269.177 42.800,250.586 42.800 L 232.800 42.800 232.800 41.824 C 232.800 41.287,232.620 40.736,232.400 40.600 C 232.180 40.464,232.000 39.924,232.000 39.400 C 232.000 38.876,231.820 38.336,231.600 38.200 C 231.380 38.064,231.200 37.650,231.200 37.280 C 231.200 36.209,228.497 31.031,227.400 30.000 C 226.850 29.483,226.400 28.858,226.400 28.611 C 226.400 28.056,223.519 25.200,222.958 25.200 C 222.733 25.200,222.032 24.660,221.400 24.000 C 220.768 23.340,220.036 22.800,219.774 22.800 C 219.512 22.800,219.077 22.534,218.807 22.208 C 218.229 21.512,216.104 20.400,215.351 20.400 C 215.061 20.400,214.183 20.040,213.400 19.600 C 212.617 19.160,211.272 18.800,210.411 18.800 C 209.551 18.800,208.736 18.620,208.600 18.400 C 208.280 17.883,199.200 17.883,198.400 18.400 M206.200 30.800 C 206.336 31.020,206.780 31.200,207.186 31.200 C 208.012 31.200,211.004 32.678,212.046 33.600 C 212.419 33.930,213.183 34.517,213.744 34.905 C 214.643 35.526,215.789 37.089,218.130 40.886 C 218.499 41.483,218.800 42.482,218.800 43.106 C 218.800 43.730,218.996 44.436,219.235 44.675 C 219.684 45.124,219.545 49.535,219.010 51.800 C 218.162 55.393,215.201 59.972,212.812 61.384 C 205.029 65.985,201.371 65.985,193.588 61.384 C 187.609 57.850,185.076 46.604,188.726 39.800 C 190.097 37.244,191.766 35.040,192.674 34.588 C 193.137 34.357,193.811 33.922,194.174 33.621 C 195.225 32.749,198.469 31.200,199.244 31.200 C 199.634 31.200,200.064 31.020,200.200 30.800 C 200.336 30.580,201.686 30.400,203.200 30.400 C 204.714 30.400,206.064 30.580,206.200 30.800 M86.597 60.780 C 80.844 62.468,75.200 67.853,75.200 71.651 C 75.200 72.037,75.020 72.464,74.800 72.600 C 74.245 72.943,74.245 369.457,74.800 369.800 C 75.020 369.936,75.200 370.639,75.200 371.362 C 75.200 372.168,75.509 372.956,76.000 373.400 C 76.440 373.798,76.800 374.326,76.800 374.573 C 76.800 375.801,83.294 381.200,84.771 381.200 C 85.201 381.200,85.664 381.380,85.800 381.600 C 86.323 382.446,319.088 382.119,321.406 381.268 C 324.858 380.001,329.149 376.738,330.376 374.445 C 332.070 371.279,331.988 379.097,331.994 220.977 L 332.000 71.754 330.634 69.039 C 326.575 60.971,323.011 59.910,300.532 60.081 L 284.864 60.200 283.832 61.170 L 282.800 62.139 282.800 71.941 C 282.800 77.332,282.632 82.296,282.427 82.972 C 282.222 83.647,281.830 85.010,281.555 86.000 C 280.908 88.333,279.444 91.300,278.590 92.009 C 278.219 92.316,277.768 92.958,277.586 93.436 C 277.075 94.780,273.034 97.366,269.548 98.580 C 267.096 99.434,142.254 99.510,140.000 98.659 C 137.187 97.597,134.562 96.250,132.946 95.039 C 132.036 94.358,130.911 93.535,130.446 93.212 C 129.981 92.888,129.600 92.448,129.600 92.234 C 129.600 92.019,129.127 91.350,128.550 90.747 C 127.972 90.144,127.297 89.303,127.050 88.878 C 123.953 83.551,123.615 81.777,123.607 70.776 C 123.601 63.625,123.482 61.592,123.033 60.976 C 122.192 59.827,90.427 59.655,86.597 60.780 M177.358 151.500 C 177.676 152.105,178.760 153.402,179.768 154.383 C 182.184 156.735,182.703 155.845,173.300 165.487 C 168.735 170.168,161.174 178.003,156.497 182.899 C 151.820 187.794,145.571 194.319,142.611 197.398 L 137.228 202.995 131.714 197.598 C 128.681 194.629,124.315 190.261,122.012 187.892 L 117.824 183.583 120.504 180.903 L 123.185 178.223 124.709 179.711 C 125.548 180.530,126.373 181.200,126.544 181.200 C 126.714 181.200,127.900 182.235,129.178 183.500 C 133.844 188.118,135.909 189.501,137.130 188.826 C 137.498 188.622,146.350 179.894,156.800 169.429 C 176.665 149.535,176.432 149.739,177.358 151.500 M292.800 182.400 L 292.800 186.800 242.800 186.800 L 192.800 186.800 192.800 182.400 L 192.800 178.000 242.800 178.000 L 292.800 178.000 292.800 182.400 M178.731 215.100 C 179.388 215.705,180.481 216.619,181.162 217.130 C 181.843 217.642,182.400 218.187,182.400 218.342 C 182.400 218.660,136.974 264.143,136.504 264.296 C 136.337 264.351,134.850 263.141,133.200 261.609 C 131.550 260.077,129.996 258.818,129.746 258.812 C 129.496 258.805,126.720 256.089,123.576 252.775 L 117.860 246.749 120.119 244.490 L 122.379 242.230 123.511 243.315 C 124.134 243.912,124.757 244.400,124.896 244.400 C 125.035 244.400,127.275 246.561,129.874 249.201 C 136.549 255.982,133.336 257.778,157.053 234.010 C 168.024 223.016,177.121 214.016,177.269 214.010 C 177.417 214.005,178.075 214.495,178.731 215.100 M292.400 246.200 L 292.400 250.000 242.600 250.000 L 192.800 250.000 192.800 246.200 L 192.800 242.400 242.600 242.400 L 292.400 242.400 292.400 246.200 M178.022 278.644 C 178.780 279.438,180.075 280.520,180.900 281.049 C 182.871 282.312,183.125 281.844,177.129 288.000 C 174.237 290.970,171.482 293.885,171.009 294.478 C 170.535 295.071,167.414 298.361,164.074 301.790 C 160.733 305.218,158.000 308.166,158.000 308.340 C 158.000 308.514,155.030 311.606,151.400 315.212 C 147.770 318.818,144.800 321.972,144.800 322.222 C 144.800 322.794,137.976 329.600,137.402 329.600 C 137.168 329.600,135.817 328.430,134.400 327.000 C 132.983 325.570,131.634 324.400,131.403 324.400 C 131.172 324.400,129.371 322.780,127.400 320.800 C 125.429 318.820,123.673 317.200,123.498 317.200 C 122.930 317.200,118.400 312.333,118.400 311.723 C 118.400 311.397,119.511 309.974,120.868 308.561 L 123.336 305.991 126.652 309.095 C 133.223 315.248,135.575 317.200,136.417 317.200 C 137.257 317.200,149.788 305.121,150.690 303.441 C 151.083 302.709,175.971 277.388,176.422 277.262 C 176.543 277.228,177.263 277.850,178.022 278.644 M291.600 309.800 L 291.600 313.200 242.000 313.200 L 192.400 313.200 192.400 309.800 L 192.400 306.400 242.000 306.400 L 291.600 306.400 291.600 309.800 " stroke="none" fill="#04b4cc" fill-rule="evenodd"></path><path id="path1" d="" stroke="none" fill="#08b4cc" fill-rule="evenodd"></path></g></svg>
