<svg id="svg" xmlns="http://www.w3.org/2000/svg" xmlns:xlink="http://www.w3.org/1999/xlink" width="400" height="400" viewBox="0, 0, 400,400" version="1.1"><g id="svgg"><path id="path0" d="M44.000 49.200 C 44.000 49.420,43.190 49.600,42.200 49.600 C 41.210 49.600,40.400 49.780,40.400 50.000 C 40.400 50.220,39.680 50.400,38.800 50.400 C 37.920 50.400,37.200 50.580,37.200 50.800 C 37.200 51.020,36.660 51.200,36.000 51.200 C 35.340 51.200,34.800 51.380,34.800 51.600 C 34.800 51.820,34.440 52.000,34.000 52.000 C 33.560 52.000,33.200 52.180,33.200 52.400 C 33.200 52.620,32.840 52.800,32.400 52.800 C 31.960 52.800,31.600 52.980,31.600 53.200 C 31.600 53.420,31.240 53.600,30.800 53.600 C 30.360 53.600,30.000 53.780,30.000 54.000 C 30.000 54.220,29.706 54.400,29.347 54.400 C 28.690 54.400,27.200 55.830,27.200 56.461 C 27.200 56.648,26.925 56.800,26.589 56.800 C 26.254 56.800,25.179 57.565,24.202 58.500 C 23.225 59.435,21.529 61.010,20.434 62.000 C 19.340 62.990,18.434 64.075,18.422 64.412 C 18.410 64.748,18.040 65.283,17.600 65.600 C 17.160 65.917,16.800 66.497,16.800 66.888 C 16.800 67.280,16.620 67.600,16.400 67.600 C 16.180 67.600,16.000 67.960,16.000 68.400 C 16.000 68.840,15.820 69.200,15.600 69.200 C 15.380 69.200,15.200 69.560,15.200 70.000 C 15.200 70.440,15.020 70.800,14.800 70.800 C 14.580 70.800,14.400 71.160,14.400 71.600 C 14.400 72.040,14.220 72.400,14.000 72.400 C 13.780 72.400,13.600 72.940,13.600 73.600 C 13.600 74.260,13.420 74.800,13.200 74.800 C 12.980 74.800,12.800 75.340,12.800 76.000 C 12.800 76.660,12.620 77.200,12.400 77.200 C 12.180 77.200,12.000 77.830,12.000 78.600 C 12.000 79.370,11.820 80.000,11.600 80.000 C 11.334 80.000,11.200 120.267,11.200 200.000 C 11.200 279.733,11.334 320.000,11.600 320.000 C 11.820 320.000,12.000 320.799,12.000 321.776 C 12.000 322.753,12.180 323.664,12.400 323.800 C 12.620 323.936,12.800 324.487,12.800 325.024 C 12.800 325.561,12.980 326.000,13.200 326.000 C 13.420 326.000,13.600 326.360,13.600 326.800 C 13.600 327.240,13.780 327.600,14.000 327.600 C 14.220 327.600,14.400 328.140,14.400 328.800 C 14.400 329.460,14.580 330.000,14.800 330.000 C 15.020 330.000,15.200 330.320,15.200 330.712 C 15.200 331.103,15.560 331.683,16.000 332.000 C 16.440 332.317,16.800 332.897,16.800 333.288 C 16.800 333.680,16.980 334.000,17.200 334.000 C 17.420 334.000,17.600 334.284,17.600 334.631 C 17.600 334.979,18.320 335.954,19.200 336.800 C 20.080 337.646,20.800 338.549,20.800 338.808 C 20.800 339.215,21.808 340.261,23.829 341.951 C 24.125 342.198,24.572 342.400,24.823 342.400 C 25.074 342.400,25.783 342.940,26.400 343.600 C 27.017 344.260,27.679 344.800,27.872 344.800 C 28.065 344.800,28.483 345.160,28.800 345.600 C 29.117 346.040,29.697 346.400,30.088 346.400 C 30.480 346.400,30.800 346.580,30.800 346.800 C 30.800 347.020,31.160 347.200,31.600 347.200 C 32.040 347.200,32.400 347.380,32.400 347.600 C 32.400 347.820,32.760 348.000,33.200 348.000 C 33.640 348.000,34.000 348.180,34.000 348.400 C 34.000 348.620,34.540 348.800,35.200 348.800 C 35.860 348.800,36.400 348.980,36.400 349.200 C 36.400 349.420,36.760 349.600,37.200 349.600 C 37.640 349.600,38.000 349.780,38.000 350.000 C 38.000 350.220,38.720 350.400,39.600 350.400 C 40.480 350.400,41.200 350.580,41.200 350.800 C 41.200 351.031,42.467 351.200,44.200 351.200 C 45.933 351.200,47.200 351.369,47.200 351.600 C 47.200 351.866,97.933 352.000,198.600 352.000 C 335.509 352.000,350.000 351.940,350.000 351.376 C 350.000 350.830,350.598 350.787,354.800 351.033 C 358.294 351.237,359.600 351.189,359.600 350.857 C 359.600 350.591,360.268 350.400,361.200 350.400 C 362.080 350.400,362.800 350.220,362.800 350.000 C 362.800 349.780,363.160 349.600,363.600 349.600 C 364.040 349.600,364.400 349.420,364.400 349.200 C 364.400 348.980,364.940 348.800,365.600 348.800 C 366.260 348.800,366.800 348.620,366.800 348.400 C 366.800 348.180,367.160 348.000,367.600 348.000 C 368.040 348.000,368.400 347.820,368.400 347.600 C 368.400 347.380,368.760 347.200,369.200 347.200 C 369.640 347.200,370.000 347.020,370.000 346.800 C 370.000 346.580,370.357 346.400,370.792 346.400 C 371.294 346.400,371.673 346.050,371.824 345.446 C 372.001 344.742,372.268 344.545,372.842 344.695 C 373.577 344.887,375.200 343.551,375.200 342.754 C 375.200 342.135,376.976 340.782,377.516 340.989 C 378.263 341.276,379.326 340.127,379.103 339.274 C 378.923 338.582,379.638 337.600,380.322 337.600 C 381.175 337.600,382.461 336.022,382.222 335.270 C 382.033 334.672,382.209 334.434,382.988 334.239 C 383.591 334.087,384.000 333.700,384.000 333.281 C 384.000 332.893,384.360 332.317,384.800 332.000 C 385.240 331.683,385.600 331.103,385.600 330.712 C 385.600 330.320,385.780 330.000,386.000 330.000 C 386.220 330.000,386.400 329.460,386.400 328.800 C 386.400 328.140,386.580 327.600,386.800 327.600 C 387.020 327.600,387.200 327.240,387.200 326.800 C 387.200 326.360,387.380 326.000,387.600 326.000 C 387.820 326.000,388.000 325.550,388.000 325.000 C 388.000 324.450,388.180 324.000,388.400 324.000 C 388.620 324.000,388.800 323.100,388.800 322.000 C 388.800 320.900,388.980 320.000,389.200 320.000 C 389.466 320.000,389.600 279.733,389.600 200.000 C 389.600 120.267,389.466 80.000,389.200 80.000 C 388.980 80.000,388.800 79.370,388.800 78.600 C 388.800 77.830,388.620 77.200,388.400 77.200 C 388.180 77.200,388.000 76.660,388.000 76.000 C 388.000 75.340,387.820 74.800,387.600 74.800 C 387.380 74.800,387.200 74.260,387.200 73.600 C 387.200 72.940,387.020 72.400,386.800 72.400 C 386.580 72.400,386.400 72.040,386.400 71.600 C 386.400 71.160,386.220 70.800,386.000 70.800 C 385.780 70.800,385.600 70.440,385.600 70.000 C 385.600 69.560,385.420 69.200,385.200 69.200 C 384.980 69.200,384.800 68.840,384.800 68.400 C 384.800 67.960,384.620 67.600,384.400 67.600 C 384.180 67.600,384.000 67.280,384.000 66.888 C 384.000 66.497,383.640 65.917,383.200 65.600 C 382.760 65.283,382.390 64.748,382.378 64.412 C 382.366 64.075,381.460 62.990,380.366 62.000 C 379.271 61.010,377.575 59.435,376.598 58.500 C 375.621 57.565,374.709 56.800,374.571 56.800 C 374.433 56.800,373.817 56.260,373.200 55.600 C 372.583 54.940,371.791 54.400,371.440 54.400 C 371.088 54.400,370.800 54.220,370.800 54.000 C 370.800 53.780,370.440 53.600,370.000 53.600 C 369.560 53.600,369.200 53.420,369.200 53.200 C 369.200 52.980,368.840 52.800,368.400 52.800 C 367.960 52.800,367.600 52.620,367.600 52.400 C 367.600 52.180,367.240 52.000,366.800 52.000 C 366.360 52.000,366.000 51.820,366.000 51.600 C 366.000 51.380,365.460 51.200,364.800 51.200 C 364.140 51.200,363.600 51.020,363.600 50.800 C 363.600 50.580,362.880 50.400,362.000 50.400 C 361.120 50.400,360.400 50.220,360.400 50.000 C 360.400 49.780,359.590 49.600,358.600 49.600 C 357.610 49.600,356.800 49.420,356.800 49.200 C 356.800 48.934,304.400 48.800,200.400 48.800 C 96.400 48.800,44.000 48.934,44.000 49.200 M180.800 143.600 L 180.800 162.000 150.800 162.000 C 131.067 162.000,120.800 162.137,120.800 162.400 C 120.800 162.620,120.260 162.800,119.600 162.800 C 118.940 162.800,118.400 162.980,118.400 163.200 C 118.400 163.420,117.860 163.600,117.200 163.600 C 116.540 163.600,116.000 163.780,116.000 164.000 C 116.000 164.220,115.680 164.400,115.288 164.400 C 114.897 164.400,114.317 164.760,114.000 165.200 C 113.683 165.640,113.175 166.000,112.872 166.000 C 112.119 166.000,110.000 168.327,110.000 169.154 C 110.000 169.522,109.640 170.083,109.200 170.400 C 108.760 170.717,108.400 171.297,108.400 171.688 C 108.400 172.080,108.220 172.400,108.000 172.400 C 107.780 172.400,107.600 172.760,107.600 173.200 C 107.600 173.640,107.420 174.000,107.200 174.000 C 106.980 174.000,106.800 174.540,106.800 175.200 C 106.800 175.860,106.620 176.400,106.400 176.400 C 106.138 176.400,106.000 184.733,106.000 200.600 C 106.000 216.467,106.138 224.800,106.400 224.800 C 106.620 224.800,106.800 225.070,106.800 225.400 C 106.800 225.730,106.980 226.000,107.200 226.000 C 107.420 226.000,107.600 226.500,107.600 227.112 C 107.600 227.765,107.930 228.461,108.400 228.800 C 108.840 229.117,109.200 229.614,109.200 229.905 C 109.200 230.479,109.452 230.817,111.669 233.213 C 112.476 234.086,113.382 234.800,113.680 234.800 C 113.979 234.800,114.483 235.160,114.800 235.600 C 115.117 236.040,115.697 236.400,116.088 236.400 C 116.480 236.400,116.800 236.580,116.800 236.800 C 116.800 237.020,117.340 237.200,118.000 237.200 C 118.660 237.200,119.200 237.380,119.200 237.600 C 119.200 237.820,119.920 238.000,120.800 238.000 C 121.680 238.000,122.400 238.180,122.400 238.400 C 122.400 238.663,132.400 238.800,151.600 238.800 L 180.800 238.800 180.800 257.200 L 180.800 275.600 150.400 275.600 C 130.400 275.600,120.000 275.463,120.000 275.200 C 120.000 274.971,118.800 274.800,117.200 274.800 C 115.600 274.800,114.400 274.629,114.400 274.400 C 114.400 274.180,113.680 274.000,112.800 274.000 C 111.920 274.000,111.200 273.820,111.200 273.600 C 111.200 273.380,110.570 273.200,109.800 273.200 C 109.030 273.200,108.400 273.020,108.400 272.800 C 108.400 272.580,107.860 272.400,107.200 272.400 C 106.540 272.400,106.000 272.220,106.000 272.000 C 106.000 271.780,105.460 271.600,104.800 271.600 C 104.140 271.600,103.600 271.420,103.600 271.200 C 103.600 270.980,103.240 270.800,102.800 270.800 C 102.360 270.800,102.000 270.620,102.000 270.400 C 102.000 270.180,101.640 270.000,101.200 270.000 C 100.760 270.000,100.400 269.820,100.400 269.600 C 100.400 269.380,100.040 269.200,99.600 269.200 C 99.160 269.200,98.800 269.020,98.800 268.800 C 98.800 268.580,98.480 268.400,98.088 268.400 C 97.697 268.400,97.117 268.040,96.800 267.600 C 96.483 267.160,95.903 266.800,95.512 266.800 C 95.120 266.800,94.800 266.620,94.800 266.400 C 94.800 266.180,94.512 266.000,94.160 266.000 C 93.809 266.000,93.017 265.460,92.400 264.800 C 91.783 264.140,91.167 263.600,91.029 263.600 C 90.891 263.600,89.984 262.835,89.013 261.900 C 86.532 259.512,86.116 259.200,85.417 259.200 C 85.078 259.200,84.800 258.920,84.800 258.578 C 84.800 258.236,83.720 256.896,82.400 255.600 C 81.080 254.304,80.000 253.004,80.000 252.710 C 80.000 252.417,79.640 251.917,79.200 251.600 C 78.760 251.283,78.400 250.743,78.400 250.400 C 78.400 250.057,78.040 249.517,77.600 249.200 C 77.160 248.883,76.800 248.303,76.800 247.912 C 76.800 247.520,76.620 247.200,76.400 247.200 C 76.180 247.200,76.000 246.840,76.000 246.400 C 76.000 245.960,75.823 245.600,75.608 245.600 C 75.392 245.600,75.102 245.150,74.964 244.600 C 74.826 244.050,74.553 243.600,74.357 243.600 C 74.160 243.600,74.000 243.240,74.000 242.800 C 74.000 242.360,73.820 242.000,73.600 242.000 C 73.380 242.000,73.200 241.460,73.200 240.800 C 73.200 240.140,73.020 239.600,72.800 239.600 C 72.580 239.600,72.400 239.240,72.400 238.800 C 72.400 238.360,72.220 238.000,72.000 238.000 C 71.780 238.000,71.600 237.460,71.600 236.800 C 71.600 236.140,71.420 235.600,71.200 235.600 C 70.980 235.600,70.800 234.880,70.800 234.000 C 70.800 233.120,70.620 232.400,70.400 232.400 C 70.180 232.400,70.000 231.500,70.000 230.400 C 70.000 229.300,69.820 228.400,69.600 228.400 C 69.359 228.400,69.200 226.733,69.200 224.200 C 69.200 221.667,69.041 220.000,68.800 220.000 C 68.539 220.000,68.400 213.200,68.400 200.400 C 68.400 187.600,68.539 180.800,68.800 180.800 C 69.041 180.800,69.200 179.133,69.200 176.600 C 69.200 174.067,69.359 172.400,69.600 172.400 C 69.820 172.400,70.000 171.500,70.000 170.400 C 70.000 169.300,70.180 168.400,70.400 168.400 C 70.620 168.400,70.800 167.680,70.800 166.800 C 70.800 165.920,70.980 165.200,71.200 165.200 C 71.420 165.200,71.600 164.660,71.600 164.000 C 71.600 163.340,71.780 162.800,72.000 162.800 C 72.220 162.800,72.400 162.260,72.400 161.600 C 72.400 160.940,72.580 160.400,72.800 160.400 C 73.020 160.400,73.200 160.040,73.200 159.600 C 73.200 159.160,73.338 158.800,73.506 158.800 C 73.877 158.800,75.200 155.831,75.200 154.997 C 75.200 154.669,75.380 154.400,75.600 154.400 C 75.820 154.400,76.000 154.080,76.000 153.688 C 76.000 153.297,76.360 152.717,76.800 152.400 C 77.240 152.083,77.600 151.543,77.600 151.200 C 77.600 150.857,77.960 150.317,78.400 150.000 C 78.840 149.683,79.200 149.175,79.200 148.872 C 79.200 148.569,79.740 147.817,80.400 147.200 C 81.060 146.583,81.610 145.836,81.622 145.540 C 81.634 145.243,82.540 144.190,83.634 143.200 C 84.729 142.210,86.425 140.635,87.402 139.700 C 88.379 138.765,89.388 138.000,89.643 138.000 C 90.153 138.000,91.600 136.477,91.600 135.939 C 91.600 135.752,91.920 135.600,92.312 135.600 C 92.703 135.600,93.283 135.240,93.600 134.800 C 93.917 134.360,94.457 134.000,94.800 134.000 C 95.143 134.000,95.683 133.640,96.000 133.200 C 96.317 132.760,96.897 132.400,97.288 132.400 C 97.680 132.400,98.000 132.220,98.000 132.000 C 98.000 131.780,98.360 131.600,98.800 131.600 C 99.240 131.600,99.600 131.420,99.600 131.200 C 99.600 130.980,99.960 130.800,100.400 130.800 C 100.840 130.800,101.200 130.620,101.200 130.400 C 101.200 130.180,101.560 130.000,102.000 130.000 C 102.440 130.000,102.800 129.820,102.800 129.600 C 102.800 129.380,103.340 129.200,104.000 129.200 C 104.660 129.200,105.200 129.020,105.200 128.800 C 105.200 128.580,105.560 128.400,106.000 128.400 C 106.440 128.400,106.800 128.220,106.800 128.000 C 106.800 127.780,107.250 127.600,107.800 127.600 C 108.350 127.600,108.800 127.420,108.800 127.200 C 108.800 126.980,109.520 126.800,110.400 126.800 C 111.280 126.800,112.000 126.620,112.000 126.400 C 112.000 126.180,112.900 126.000,114.000 126.000 C 115.100 126.000,116.000 125.820,116.000 125.600 C 116.000 125.337,127.067 125.200,148.400 125.200 L 180.800 125.200 180.800 143.600 M332.400 143.029 C 332.400 157.947,332.307 160.950,331.829 161.429 C 331.344 161.914,326.747 162.000,301.429 162.000 C 281.810 162.000,271.600 162.137,271.600 162.400 C 271.600 162.620,271.060 162.800,270.400 162.800 C 269.740 162.800,269.200 162.980,269.200 163.200 C 269.200 163.420,268.700 163.600,268.088 163.600 C 267.435 163.600,266.739 163.930,266.400 164.400 C 266.083 164.840,265.583 165.200,265.290 165.200 C 264.513 165.200,260.000 169.922,260.000 170.734 C 260.000 171.113,259.640 171.683,259.200 172.000 C 258.730 172.339,258.400 173.035,258.400 173.688 C 258.400 174.300,258.220 174.800,258.000 174.800 C 257.780 174.800,257.600 175.340,257.600 176.000 C 257.600 176.660,257.420 177.200,257.200 177.200 C 256.938 177.200,256.800 185.133,256.800 200.200 C 256.800 215.267,256.938 223.200,257.200 223.200 C 257.420 223.200,257.600 223.830,257.600 224.600 C 257.600 225.370,257.780 226.000,258.000 226.000 C 258.220 226.000,258.400 226.360,258.400 226.800 C 258.400 227.240,258.580 227.600,258.800 227.600 C 259.020 227.600,259.200 227.960,259.200 228.400 C 259.200 228.840,259.377 229.200,259.592 229.200 C 259.808 229.200,260.106 229.684,260.255 230.276 C 260.543 231.426,262.874 234.000,263.626 234.000 C 263.875 234.000,264.583 234.540,265.200 235.200 C 265.817 235.860,266.609 236.400,266.960 236.400 C 267.312 236.400,267.600 236.580,267.600 236.800 C 267.600 237.020,268.140 237.200,268.800 237.200 C 269.460 237.200,270.000 237.380,270.000 237.600 C 270.000 237.820,270.900 238.000,272.000 238.000 C 273.100 238.000,274.000 238.180,274.000 238.400 C 274.000 238.663,284.000 238.800,303.200 238.800 L 332.400 238.800 332.400 256.629 C 332.400 271.547,332.307 274.550,331.829 275.029 C 331.122 275.735,270.800 275.904,270.800 275.200 C 270.800 274.971,269.600 274.800,268.000 274.800 C 266.400 274.800,265.200 274.629,265.200 274.400 C 265.200 274.180,264.480 274.000,263.600 274.000 C 262.720 274.000,262.000 273.820,262.000 273.600 C 262.000 273.380,261.280 273.200,260.400 273.200 C 259.520 273.200,258.800 273.020,258.800 272.800 C 258.800 272.580,258.350 272.400,257.800 272.400 C 257.250 272.400,256.800 272.220,256.800 272.000 C 256.800 271.780,256.440 271.600,256.000 271.600 C 255.560 271.600,255.200 271.420,255.200 271.200 C 255.200 270.980,254.660 270.800,254.000 270.800 C 253.340 270.800,252.800 270.620,252.800 270.400 C 252.800 270.180,252.440 270.000,252.000 270.000 C 251.560 270.000,251.200 269.820,251.200 269.600 C 251.200 269.380,250.880 269.200,250.488 269.200 C 250.097 269.200,249.517 268.840,249.200 268.400 C 248.883 267.960,248.303 267.600,247.912 267.600 C 247.520 267.600,247.200 267.420,247.200 267.200 C 247.200 266.980,246.880 266.800,246.488 266.800 C 246.097 266.800,245.517 266.440,245.200 266.000 C 244.883 265.560,244.375 265.200,244.072 265.200 C 243.769 265.200,243.017 264.660,242.400 264.000 C 241.783 263.340,241.136 262.800,240.961 262.800 C 240.786 262.800,240.093 262.258,239.421 261.596 C 238.750 260.935,236.715 258.962,234.900 257.214 C 233.085 255.465,231.600 253.796,231.600 253.505 C 231.600 253.215,231.240 252.717,230.800 252.400 C 230.360 252.083,230.000 251.543,230.000 251.200 C 230.000 250.857,229.640 250.317,229.200 250.000 C 228.760 249.683,228.400 249.143,228.400 248.800 C 228.400 248.457,228.040 247.917,227.600 247.600 C 227.160 247.283,226.800 246.703,226.800 246.312 C 226.800 245.920,226.620 245.600,226.400 245.600 C 226.180 245.600,226.000 245.240,226.000 244.800 C 226.000 244.360,225.828 244.000,225.618 244.000 C 225.408 244.000,225.118 243.370,224.974 242.600 C 224.829 241.830,224.551 241.200,224.355 241.200 C 224.160 241.200,224.000 240.660,224.000 240.000 C 224.000 239.340,223.820 238.800,223.600 238.800 C 223.380 238.800,223.200 238.260,223.200 237.600 C 223.200 236.940,223.020 236.400,222.800 236.400 C 222.580 236.400,222.400 235.860,222.400 235.200 C 222.400 234.540,222.220 234.000,222.000 234.000 C 221.780 234.000,221.600 233.280,221.600 232.400 C 221.600 231.520,221.420 230.800,221.200 230.800 C 220.980 230.800,220.800 230.080,220.800 229.200 C 220.800 228.320,220.620 227.600,220.400 227.600 C 220.137 227.600,220.000 218.267,220.000 200.400 C 220.000 182.533,220.137 173.200,220.400 173.200 C 220.620 173.200,220.800 172.300,220.800 171.200 C 220.800 170.100,220.980 169.200,221.200 169.200 C 221.420 169.200,221.600 168.480,221.600 167.600 C 221.600 166.720,221.780 166.000,222.000 166.000 C 222.220 166.000,222.400 165.460,222.400 164.800 C 222.400 164.140,222.580 163.600,222.800 163.600 C 223.020 163.600,223.200 163.060,223.200 162.400 C 223.200 161.740,223.380 161.200,223.600 161.200 C 223.820 161.200,224.000 160.840,224.000 160.400 C 224.000 159.960,224.160 159.600,224.355 159.600 C 224.550 159.600,224.831 158.790,224.979 157.800 C 225.128 156.810,225.418 156.000,225.625 156.000 C 225.831 156.000,226.000 155.680,226.000 155.288 C 226.000 154.897,226.360 154.317,226.800 154.000 C 227.240 153.683,227.600 153.143,227.600 152.800 C 227.600 152.457,227.960 151.917,228.400 151.600 C 228.840 151.283,229.200 150.743,229.200 150.400 C 229.200 150.057,229.560 149.517,230.000 149.200 C 230.440 148.883,230.800 148.381,230.800 148.086 C 230.800 147.790,231.700 146.671,232.800 145.600 C 233.900 144.529,234.800 143.410,234.800 143.114 C 234.800 142.819,235.185 142.312,235.655 141.988 C 236.126 141.665,236.927 140.995,237.437 140.500 C 237.947 140.005,238.570 139.600,238.821 139.600 C 239.347 139.600,241.600 137.295,241.600 136.758 C 241.600 136.561,241.888 136.400,242.240 136.400 C 242.591 136.400,243.383 135.860,244.000 135.200 C 244.617 134.540,245.409 134.000,245.760 134.000 C 246.112 134.000,246.400 133.820,246.400 133.600 C 246.400 133.380,246.720 133.200,247.112 133.200 C 247.503 133.200,248.083 132.840,248.400 132.400 C 248.717 131.960,249.297 131.600,249.688 131.600 C 250.080 131.600,250.400 131.420,250.400 131.200 C 250.400 130.980,250.940 130.800,251.600 130.800 C 252.260 130.800,252.800 130.620,252.800 130.400 C 252.800 130.180,253.160 130.000,253.600 130.000 C 254.040 130.000,254.400 129.820,254.400 129.600 C 254.400 129.380,254.760 129.200,255.200 129.200 C 255.640 129.200,256.000 129.020,256.000 128.800 C 256.000 128.580,256.540 128.400,257.200 128.400 C 257.860 128.400,258.400 128.220,258.400 128.000 C 258.400 127.780,258.850 127.600,259.400 127.600 C 259.950 127.600,260.400 127.420,260.400 127.200 C 260.400 126.980,261.120 126.800,262.000 126.800 C 262.880 126.800,263.600 126.620,263.600 126.400 C 263.600 126.180,264.500 126.000,265.600 126.000 C 266.700 126.000,267.600 125.820,267.600 125.600 C 267.600 125.337,278.667 125.200,300.000 125.200 L 332.400 125.200 332.400 143.029 " stroke="none" fill="#0cc4d4" fill-rule="evenodd"></path><path id="path1" d="M382.092 334.875 C 382.339 335.617,383.200 335.740,383.200 335.033 C 383.200 334.685,382.915 334.400,382.567 334.400 C 382.218 334.400,382.005 334.614,382.092 334.875 M379.340 338.156 C 378.597 339.003,379.372 339.885,380.164 339.093 C 380.514 338.743,380.800 338.264,380.800 338.029 C 380.800 337.439,379.899 337.517,379.340 338.156 M376.300 341.357 C 375.915 341.649,375.600 342.003,375.600 342.144 C 375.600 342.601,376.442 342.415,377.029 341.829 C 378.088 340.769,377.540 340.415,376.300 341.357 M372.000 345.013 C 372.000 345.336,372.270 345.600,372.600 345.600 C 372.930 345.600,373.200 345.439,373.200 345.243 C 373.200 345.046,372.930 344.782,372.600 344.655 C 372.235 344.515,372.000 344.655,372.000 345.013 M350.000 351.379 C 350.000 351.866,350.481 352.000,352.233 352.000 C 355.171 352.000,355.031 351.052,352.069 350.879 C 350.414 350.782,350.000 350.882,350.000 351.379 " stroke="none" fill="#d444d4" fill-rule="evenodd"></path></g></svg>
