<svg id="svg" xmlns="http://www.w3.org/2000/svg" xmlns:xlink="http://www.w3.org/1999/xlink" width="400" height="400" viewBox="0, 0, 400,400" version="1.1"><g id="svgg"><path id="path0" d="M1.746 34.068 C -0.067 34.945,0.000 28.613,0.000 200.000 C 0.000 372.720,-0.086 365.068,1.863 365.956 C 3.148 366.541,397.435 366.595,398.974 366.010 L 400.000 365.620 400.000 200.074 L 400.000 34.528 398.981 34.064 C 397.609 33.439,3.037 33.443,1.746 34.068 M369.400 200.000 L 369.400 334.200 200.400 334.200 L 31.400 334.200 31.298 200.400 C 31.241 126.810,31.281 66.375,31.385 66.100 C 31.537 65.700,65.567 65.619,200.488 65.700 L 369.400 65.800 369.400 200.000 M304.600 84.060 C 292.203 86.415,281.435 93.998,276.284 104.000 C 274.800 106.883,272.801 111.882,272.795 112.730 C 272.792 113.099,272.432 114.541,271.995 115.936 C 270.771 119.838,270.854 129.337,272.155 134.449 C 273.084 138.099,273.343 138.808,275.548 143.764 C 277.392 147.907,281.763 154.050,283.509 154.953 C 284.110 155.264,284.961 155.914,285.399 156.399 C 285.837 156.883,287.637 158.232,289.398 159.395 C 304.773 169.554,325.869 167.583,339.950 154.671 C 342.965 151.906,349.200 141.973,349.200 139.934 C 349.200 139.508,349.497 138.587,349.859 137.885 C 351.876 133.986,351.876 115.214,349.859 111.315 C 349.497 110.613,349.200 109.771,349.200 109.442 C 349.200 108.768,347.042 104.511,345.021 101.200 C 342.272 96.694,334.998 90.284,330.000 87.960 C 329.010 87.500,327.424 86.759,326.475 86.314 C 322.035 84.230,310.152 83.006,304.600 84.060 M124.822 110.084 C 123.182 110.952,122.652 112.135,118.322 124.600 C 117.863 125.920,117.358 127.180,117.199 127.400 C 117.040 127.620,116.348 129.439,115.662 131.443 C 113.961 136.411,110.719 145.242,108.557 150.800 C 106.051 157.242,104.986 160.168,103.971 163.400 C 103.487 164.940,102.732 167.010,102.294 168.000 C 101.855 168.990,100.898 171.510,100.167 173.600 C 98.136 179.411,96.596 183.501,95.200 186.800 C 93.545 190.708,93.502 190.830,91.383 197.472 C 90.388 200.592,88.860 204.689,87.988 206.578 C 87.115 208.466,86.234 210.684,86.029 211.506 C 85.824 212.328,85.006 214.710,84.211 216.800 C 81.097 224.992,80.337 227.066,79.821 228.800 C 79.526 229.790,78.635 232.185,77.842 234.122 C 77.049 236.060,76.400 237.911,76.400 238.236 C 76.400 238.561,75.950 239.715,75.400 240.800 C 74.850 241.885,74.400 243.049,74.400 243.385 C 74.400 243.721,73.680 245.752,72.800 247.898 C 71.920 250.044,71.200 252.037,71.200 252.326 C 71.200 252.615,70.851 253.695,70.425 254.726 C 67.294 262.300,64.710 269.277,60.175 282.400 C 58.541 287.130,56.952 291.450,56.644 292.000 C 56.336 292.550,55.351 295.070,54.456 297.600 C 53.561 300.130,52.192 303.972,51.414 306.137 C 49.428 311.669,49.576 314.914,51.863 315.956 C 53.284 316.603,348.348 316.589,349.770 315.941 C 351.878 314.980,352.059 311.679,350.169 308.653 C 348.924 306.659,346.304 302.677,345.086 300.928 C 344.599 300.229,342.760 297.388,341.000 294.615 C 339.240 291.843,336.683 287.915,335.317 285.887 C 333.952 283.859,332.152 281.159,331.317 279.886 C 330.483 278.613,326.461 272.493,322.381 266.286 C 318.300 260.079,312.376 251.040,309.215 246.200 C 306.054 241.360,302.282 235.600,300.834 233.400 C 299.385 231.200,297.750 228.655,297.200 227.745 C 295.916 225.619,291.420 218.809,284.368 208.307 C 282.260 205.168,279.864 201.551,279.043 200.269 C 277.358 197.638,275.532 196.574,273.390 196.976 C 272.183 197.202,271.433 197.671,267.592 200.600 C 266.727 201.260,265.280 202.340,264.377 203.000 C 263.474 203.660,261.984 204.836,261.067 205.614 C 259.208 207.191,257.306 208.625,253.920 211.000 C 252.666 211.880,249.907 213.950,247.790 215.600 C 244.178 218.414,242.669 219.555,237.200 223.607 C 235.990 224.503,233.920 226.129,232.600 227.220 C 231.280 228.311,229.240 229.868,228.066 230.681 L 225.933 232.158 224.570 230.579 C 223.821 229.711,221.561 226.840,219.547 224.200 C 217.533 221.560,215.295 218.770,214.572 218.000 C 213.850 217.230,212.211 215.218,210.930 213.529 C 209.648 211.840,207.530 209.050,206.222 207.329 C 204.914 205.608,203.114 203.353,202.222 202.318 C 199.786 199.491,196.814 195.701,193.800 191.577 C 193.140 190.674,191.941 189.181,191.135 188.260 C 190.329 187.339,188.619 185.208,187.335 183.525 C 182.050 176.598,176.678 169.632,174.590 167.000 C 173.369 165.460,171.791 163.418,171.085 162.463 C 170.378 161.508,168.900 159.697,167.800 158.440 C 166.700 157.182,165.260 155.378,164.600 154.432 C 163.940 153.485,162.847 152.055,162.171 151.255 C 161.495 150.455,159.785 148.294,158.371 146.453 C 153.377 139.950,152.294 138.583,150.855 136.965 C 150.055 136.065,148.770 134.478,148.000 133.437 C 146.737 131.731,145.877 130.649,142.089 126.000 C 141.462 125.230,140.470 123.766,139.885 122.747 C 139.300 121.728,138.575 120.799,138.274 120.684 C 137.786 120.496,134.589 116.572,132.080 113.080 C 129.797 109.902,127.196 108.828,124.822 110.084 " stroke="none" fill="#04b4d4" fill-rule="evenodd"></path><path id="path1" d="" stroke="none" fill="#08b4d4" fill-rule="evenodd"></path></g></svg>
