<svg id="svg" xmlns="http://www.w3.org/2000/svg" xmlns:xlink="http://www.w3.org/1999/xlink" width="400" height="400" viewBox="0, 0, 400,400" version="1.1"><g id="svgg"><path id="path0" d="M101.000 2.450 C 92.578 4.418,85.157 11.972,83.198 20.569 L 82.371 24.200 82.486 177.800 L 82.600 331.400 83.696 334.359 C 86.536 342.024,92.378 347.443,100.694 350.126 L 103.400 350.999 214.897 351.104 C 324.605 351.207,326.451 351.196,330.010 350.419 C 339.623 348.321,347.322 341.005,349.192 332.189 C 349.485 330.811,349.582 289.611,349.507 198.000 L 349.400 65.800 348.455 63.275 C 347.302 60.196,343.197 53.839,341.926 53.164 C 341.417 52.894,334.250 46.042,326.000 37.938 C 292.626 5.152,292.218 4.781,287.667 3.058 L 285.400 2.200 194.000 2.138 C 138.480 2.100,101.972 2.223,101.000 2.450 M268.485 50.910 L 268.600 75.419 269.912 77.464 C 273.501 83.056,274.314 83.200,302.236 83.200 L 325.200 83.200 325.200 204.600 L 325.200 326.000 216.400 326.000 L 107.600 326.000 107.600 176.200 L 107.600 26.400 187.985 26.400 L 268.371 26.400 268.485 50.910 M297.481 45.500 C 307.437 54.853,310.357 57.746,310.162 58.062 C 310.047 58.248,306.093 58.400,301.376 58.400 L 292.800 58.400 292.800 50.000 C 292.800 45.380,292.919 41.600,293.065 41.600 C 293.211 41.600,295.198 43.355,297.481 45.500 M54.827 50.474 C 45.406 51.483,36.600 60.025,34.610 70.083 C 33.525 75.566,33.708 374.557,34.799 379.108 C 36.604 386.640,40.947 392.082,48.200 395.903 L 51.800 397.800 176.200 397.800 L 300.600 397.800 303.200 396.445 C 306.557 394.696,309.928 392.386,311.230 390.942 C 322.701 378.219,319.506 362.215,305.513 362.309 C 299.053 362.352,295.045 365.530,293.791 371.600 L 293.337 373.800 176.268 373.901 L 59.199 374.001 59.299 224.312 L 59.400 74.622 61.141 74.325 C 67.570 73.227,71.797 66.555,70.388 59.727 C 68.902 52.528,63.827 49.510,54.827 50.474 M150.000 114.834 C 138.073 117.199,135.281 133.610,145.964 138.551 L 147.800 139.400 191.800 139.400 L 235.800 139.400 238.073 138.284 C 248.094 133.363,246.739 118.620,235.960 115.293 C 233.514 114.537,153.644 114.111,150.000 114.834 M150.939 163.234 C 143.138 164.553,139.600 168.476,139.600 175.809 C 139.600 181.279,141.453 184.683,145.517 186.679 L 147.800 187.800 215.800 187.800 C 292.166 187.800,285.766 188.055,289.284 184.877 C 292.247 182.199,293.000 180.361,293.000 175.800 C 293.000 169.226,290.721 165.915,284.800 163.889 L 282.200 163.000 217.600 162.943 C 182.070 162.911,152.072 163.042,150.939 163.234 M172.600 211.717 C 171.280 211.904,167.680 211.956,164.600 211.834 C 145.749 211.085,140.157 213.644,139.679 223.239 C 139.380 229.256,140.986 232.648,145.258 235.013 L 147.400 236.200 216.000 236.200 C 278.943 236.200,284.720 236.145,286.056 235.539 C 295.967 231.038,295.491 215.786,285.339 212.522 C 283.589 211.959,258.560 211.379,249.400 211.688 C 246.922 211.772,209.748 211.764,207.000 211.680 C 205.900 211.646,199.204 211.689,192.120 211.777 C 185.037 211.865,178.287 211.811,177.120 211.658 C 175.954 211.504,173.920 211.531,172.600 211.717 M151.400 260.504 C 146.517 260.917,144.833 261.614,142.470 264.200 C 137.327 269.827,138.982 280.454,145.501 283.665 L 147.400 284.600 216.431 284.600 L 285.463 284.600 287.426 283.386 C 297.330 277.263,294.209 261.882,282.800 260.582 C 279.338 260.188,156.009 260.115,151.400 260.504 " stroke="none" fill="#04bcd4" fill-rule="evenodd"></path><path id="path1" d="" stroke="none" fill="#08bcd4" fill-rule="evenodd"></path></g></svg>
