<svg id="svg" xmlns="http://www.w3.org/2000/svg" xmlns:xlink="http://www.w3.org/1999/xlink" width="400" height="400" viewBox="0, 0, 400,400" version="1.1"><g id="svgg"><path id="path0" d="M273.380 8.326 C 272.821 8.807,270.134 9.846,267.400 10.640 C 262.920 11.940,251.982 17.696,250.091 19.748 L 248.400 21.582 248.400 26.407 C 248.400 30.442,248.531 31.488,249.200 32.800 C 249.640 33.662,250.005 34.870,250.010 35.484 C 250.021 36.614,251.630 41.764,252.129 42.262 C 253.138 43.272,252.288 44.831,248.914 48.160 C 245.355 51.671,245.032 51.899,244.600 51.200 C 244.464 50.980,243.924 50.800,243.400 50.800 C 242.876 50.800,242.336 50.620,242.200 50.400 C 242.064 50.180,241.344 50.000,240.600 50.000 C 239.856 50.000,239.136 49.820,239.000 49.600 C 238.864 49.380,238.371 49.200,237.905 49.200 C 237.029 49.200,236.439 49.045,231.947 47.634 C 224.058 45.154,220.707 47.255,215.732 57.800 C 206.800 76.732,206.854 83.926,215.962 88.146 C 217.065 88.657,218.214 89.279,218.515 89.529 C 218.816 89.779,220.218 90.590,221.631 91.331 C 223.044 92.072,225.055 93.171,226.100 93.773 L 228.000 94.868 228.000 99.737 L 228.000 104.605 226.700 105.159 C 225.985 105.464,225.040 106.013,224.600 106.379 C 224.160 106.745,222.900 107.475,221.800 108.001 C 220.700 108.527,219.530 109.180,219.200 109.450 C 218.870 109.721,217.520 110.482,216.200 111.142 C 210.811 113.836,208.262 118.110,209.157 122.949 C 209.763 126.230,213.032 135.770,214.410 138.281 C 215.065 139.474,215.600 140.727,215.600 141.067 C 215.600 141.406,216.101 142.430,216.712 143.342 C 217.324 144.254,218.123 145.630,218.487 146.400 C 220.325 150.283,226.067 153.148,229.772 152.029 C 230.447 151.825,232.350 151.272,234.000 150.800 C 235.650 150.328,237.553 149.775,238.228 149.571 C 238.904 149.367,239.838 149.200,240.305 149.200 C 240.771 149.200,241.264 149.020,241.400 148.800 C 241.536 148.580,242.076 148.400,242.600 148.400 C 243.124 148.400,243.664 148.220,243.800 148.000 C 243.936 147.780,244.535 147.600,245.132 147.600 C 246.629 147.600,253.630 154.530,252.886 155.274 C 252.619 155.541,252.400 156.259,252.400 156.868 C 252.400 157.477,252.040 158.617,251.600 159.400 C 251.160 160.183,250.800 161.348,250.800 161.989 C 250.800 162.629,250.620 163.264,250.400 163.400 C 250.180 163.536,250.000 164.274,250.000 165.040 C 250.000 165.805,249.640 167.138,249.200 168.000 C 247.236 171.849,248.970 179.157,252.137 180.382 C 252.612 180.565,253.436 181.184,253.970 181.758 C 254.503 182.331,255.223 182.799,255.570 182.797 C 255.916 182.796,258.000 183.669,260.200 184.739 C 269.869 189.439,278.687 192.111,281.744 191.267 C 283.365 190.819,287.351 188.330,287.762 187.509 C 287.902 187.229,288.811 185.560,289.781 183.800 C 290.751 182.040,292.045 179.610,292.657 178.400 C 293.268 177.190,293.916 176.138,294.096 176.063 C 294.277 175.987,294.872 175.042,295.419 173.963 L 296.413 172.000 301.206 172.000 L 305.998 172.000 306.932 173.900 C 308.181 176.444,309.455 178.645,310.848 180.670 C 311.482 181.591,312.000 182.444,312.000 182.566 C 312.000 184.675,317.305 190.147,320.124 190.946 C 323.038 191.772,337.528 187.832,339.752 185.608 C 339.976 185.384,340.546 185.200,341.018 185.200 C 341.490 185.200,342.202 184.840,342.600 184.400 C 342.998 183.960,343.724 183.600,344.213 183.600 C 344.702 183.600,345.334 183.321,345.616 182.980 C 345.899 182.639,346.876 182.021,347.786 181.606 C 348.697 181.191,350.298 179.937,351.344 178.818 L 353.247 176.784 353.082 172.092 C 352.992 169.511,352.698 166.590,352.430 165.600 C 352.162 164.610,351.845 163.213,351.727 162.496 C 351.608 161.779,351.351 161.094,351.156 160.973 C 350.960 160.852,350.800 160.324,350.800 159.800 C 350.800 159.276,350.620 158.736,350.400 158.600 C 350.180 158.464,350.000 157.924,350.000 157.400 C 350.000 156.876,349.820 156.336,349.600 156.200 C 348.416 155.468,349.255 153.725,352.200 150.800 C 353.850 149.161,355.200 147.591,355.200 147.310 C 355.200 146.704,355.849 146.632,356.200 147.200 C 356.336 147.420,357.056 147.600,357.800 147.600 C 358.544 147.600,359.264 147.780,359.400 148.000 C 359.536 148.220,360.029 148.400,360.495 148.400 C 360.962 148.400,361.896 148.567,362.572 148.771 C 363.247 148.975,365.150 149.528,366.800 150.000 C 368.450 150.472,370.353 151.025,371.028 151.229 C 374.345 152.231,379.313 151.038,381.490 148.718 C 382.360 147.791,388.400 136.259,388.400 135.526 C 388.400 135.322,388.754 134.378,389.187 133.428 C 392.331 126.527,393.245 117.676,391.123 114.677 C 389.964 113.040,388.659 112.063,385.200 110.242 C 383.990 109.605,382.716 108.840,382.369 108.542 C 382.021 108.244,381.374 108.000,380.930 108.000 C 380.487 108.000,379.798 107.640,379.400 107.200 C 379.002 106.760,378.462 106.400,378.200 106.400 C 377.938 106.400,377.398 106.040,377.000 105.600 C 376.602 105.160,375.860 104.800,375.352 104.800 C 373.948 104.800,373.600 103.648,373.600 98.990 C 373.600 94.200,373.712 93.988,377.076 92.395 C 377.997 91.959,378.856 91.433,378.984 91.227 C 379.111 91.020,380.247 90.350,381.508 89.737 C 382.768 89.124,384.374 88.258,385.075 87.811 C 385.776 87.365,387.098 86.550,388.012 86.000 C 394.326 82.200,393.858 74.809,386.276 58.600 C 385.144 56.180,383.899 53.828,383.509 53.374 C 383.119 52.920,382.800 52.251,382.800 51.888 C 382.800 49.338,375.478 45.198,372.981 46.336 C 372.421 46.591,371.489 46.800,370.910 46.800 C 370.331 46.800,369.304 46.968,368.628 47.173 C 367.953 47.378,366.590 47.769,365.600 48.042 C 364.610 48.316,363.629 48.688,363.420 48.870 C 363.211 49.051,362.637 49.200,362.144 49.200 C 361.651 49.200,361.148 49.360,361.027 49.556 C 360.906 49.751,360.221 50.013,359.504 50.137 C 358.787 50.261,357.605 50.482,356.879 50.630 C 353.484 51.317,347.416 42.932,349.635 40.620 C 349.836 40.411,350.000 39.895,350.000 39.473 C 350.000 39.050,350.347 37.601,350.772 36.253 C 351.197 34.904,351.749 32.990,351.999 32.000 C 352.249 31.010,352.622 29.647,352.827 28.972 C 353.782 25.826,352.865 21.180,350.872 19.060 C 349.898 18.025,339.196 12.332,336.800 11.574 C 336.250 11.401,334.559 10.795,333.041 10.229 C 331.524 9.663,329.994 9.199,329.641 9.198 C 329.289 9.196,328.484 8.926,327.854 8.598 C 327.029 8.167,325.403 8.000,322.039 8.000 L 317.370 8.000 315.551 9.900 C 313.726 11.806,311.200 15.412,311.200 16.111 C 311.200 16.316,310.699 17.230,310.088 18.142 C 309.476 19.054,308.669 20.450,308.295 21.245 C 307.921 22.040,307.341 22.917,307.007 23.194 C 306.673 23.471,306.400 24.090,306.400 24.569 C 306.400 26.190,305.712 26.400,300.395 26.400 L 295.349 26.400 294.797 24.991 C 294.493 24.217,293.919 23.289,293.522 22.929 C 293.125 22.570,292.800 21.882,292.800 21.400 C 292.800 20.918,292.420 20.181,291.956 19.762 C 291.492 19.343,290.479 17.740,289.705 16.200 C 288.931 14.660,288.148 13.304,287.965 13.186 C 287.781 13.068,287.351 12.302,287.009 11.484 C 285.857 8.727,275.663 6.365,273.380 8.326 M331.100 30.126 C 332.206 30.629,332.221 31.208,331.200 34.000 C 330.760 35.204,330.400 36.875,330.400 37.714 C 330.400 38.553,330.100 39.816,329.733 40.520 C 326.734 46.270,327.958 53.551,332.421 56.523 C 333.203 57.043,334.283 57.857,334.821 58.332 C 338.856 61.889,340.800 63.785,340.800 64.162 C 340.800 64.404,341.346 65.118,342.014 65.749 C 342.682 66.379,343.485 67.392,343.800 67.999 C 345.486 71.261,353.872 73.061,356.259 70.674 C 356.410 70.523,356.885 70.400,357.314 70.400 C 357.744 70.400,359.199 70.053,360.547 69.628 C 361.896 69.203,363.810 68.652,364.800 68.403 C 365.790 68.154,367.121 67.787,367.759 67.588 C 369.134 67.157,369.600 67.370,369.600 68.429 C 369.600 69.215,369.697 69.471,370.945 71.954 C 371.319 72.699,371.574 73.342,371.512 73.382 C 371.451 73.423,370.368 73.950,369.108 74.554 C 367.847 75.157,366.711 75.820,366.584 76.027 C 366.456 76.233,365.597 76.770,364.676 77.219 C 359.379 79.801,355.741 82.474,354.500 84.695 C 353.883 85.799,353.795 96.626,354.400 97.000 C 354.620 97.136,354.800 98.126,354.800 99.200 C 354.800 100.274,354.620 101.264,354.400 101.400 C 353.799 101.771,353.885 111.805,354.499 112.905 C 355.548 114.789,358.690 117.680,360.800 118.703 C 362.010 119.290,363.180 119.996,363.400 120.272 C 363.620 120.547,364.790 121.236,366.000 121.802 C 367.210 122.368,368.920 123.271,369.800 123.809 C 370.680 124.346,371.548 124.838,371.728 124.902 C 371.909 124.966,371.700 125.735,371.265 126.609 C 370.830 127.484,370.267 128.758,370.013 129.440 C 369.490 130.848,369.167 130.859,365.000 129.615 C 361.898 128.688,359.876 128.169,357.400 127.665 C 356.300 127.441,354.570 127.040,353.556 126.774 C 350.183 125.890,344.884 128.202,343.534 131.148 C 343.155 131.974,342.385 132.861,341.823 133.117 C 341.260 133.373,340.800 133.817,340.800 134.104 C 340.800 134.696,336.383 139.195,335.788 139.208 C 334.645 139.233,329.100 145.546,328.731 147.243 C 328.115 150.070,328.434 152.849,329.656 155.284 C 330.065 156.100,330.400 157.258,330.400 157.856 C 330.400 158.454,330.567 159.496,330.771 160.172 C 330.975 160.847,331.547 162.709,332.042 164.309 C 333.073 167.646,333.057 167.683,329.977 168.808 C 326.826 169.960,326.729 169.918,325.048 166.700 C 319.951 156.938,316.328 152.400,313.629 152.400 C 313.199 152.400,312.736 152.220,312.600 152.000 C 312.278 151.479,308.922 151.479,308.600 152.000 C 308.446 152.250,304.527 152.400,298.171 152.400 C 290.780 152.400,287.744 152.537,287.095 152.899 C 284.950 154.095,282.632 156.785,280.865 160.127 C 277.916 165.705,277.271 166.855,276.700 167.549 C 276.406 167.907,275.916 168.699,275.610 169.309 C 275.305 169.919,274.953 170.361,274.828 170.291 C 274.702 170.220,273.469 169.631,272.086 168.981 C 269.616 167.821,269.575 167.775,269.753 166.400 C 270.056 164.065,270.630 161.855,271.207 160.800 C 271.508 160.250,271.888 158.990,272.052 158.000 C 272.216 157.010,272.557 155.390,272.811 154.400 C 274.154 149.154,273.540 146.604,270.090 143.100 C 268.844 141.835,267.643 140.800,267.420 140.800 C 266.862 140.800,259.200 133.124,259.200 132.566 C 259.200 131.678,254.929 128.073,253.362 127.638 C 250.558 126.860,246.395 127.312,241.600 128.916 C 240.610 129.247,238.810 129.737,237.600 130.004 C 236.390 130.271,234.987 130.650,234.481 130.845 C 232.903 131.455,232.407 131.247,231.745 129.700 C 231.391 128.875,230.944 127.887,230.751 127.505 C 229.849 125.722,231.149 124.431,236.055 122.236 C 237.235 121.709,238.427 120.900,238.703 120.438 C 238.985 119.970,239.619 119.600,240.141 119.600 C 240.655 119.600,241.402 119.240,241.800 118.800 C 242.198 118.360,242.715 118.000,242.949 118.000 C 243.183 118.000,244.326 117.061,245.487 115.914 L 247.600 113.827 247.600 100.175 C 247.600 83.845,247.616 83.899,241.654 80.400 C 240.717 79.850,239.323 78.995,238.557 78.500 C 237.791 78.005,236.927 77.600,236.636 77.600 C 236.346 77.600,235.650 77.240,235.091 76.800 C 234.531 76.360,233.905 76.000,233.699 76.000 C 233.493 76.000,232.998 75.640,232.600 75.200 C 232.202 74.760,231.465 74.400,230.962 74.400 C 229.294 74.400,229.324 74.185,231.726 68.900 C 232.229 67.794,232.808 67.779,235.600 68.800 C 236.804 69.240,238.244 69.600,238.800 69.600 C 239.356 69.600,240.796 69.960,242.000 70.400 C 243.204 70.840,244.586 71.200,245.071 71.200 C 245.556 71.200,246.064 71.380,246.200 71.600 C 246.336 71.820,247.832 71.999,249.524 71.999 C 253.161 71.997,254.140 71.516,256.800 68.427 C 259.584 65.195,266.830 58.001,269.317 56.000 C 273.072 52.979,274.002 45.108,271.207 40.000 C 270.906 39.450,270.520 38.370,270.348 37.600 C 269.840 35.318,269.280 33.057,269.000 32.160 C 268.788 31.481,269.001 31.196,270.114 30.668 C 270.871 30.309,271.717 29.741,271.994 29.407 C 272.784 28.455,274.745 28.633,275.224 29.700 C 275.447 30.195,276.249 31.590,277.008 32.800 C 277.767 34.010,278.941 36.112,279.618 37.471 C 280.295 38.830,281.107 40.157,281.424 40.420 C 281.741 40.683,282.000 41.095,282.000 41.336 C 282.000 42.441,286.169 46.000,287.463 46.000 C 288.172 46.000,288.864 46.180,289.000 46.400 C 289.321 46.920,291.879 46.920,292.200 46.400 C 292.355 46.150,296.406 46.000,303.029 46.000 C 310.739 46.000,313.854 45.865,314.505 45.501 C 315.834 44.760,318.800 41.904,318.800 41.366 C 318.800 41.108,319.079 40.667,319.419 40.384 C 319.760 40.102,320.605 38.684,321.297 37.235 C 321.989 35.786,322.854 34.150,323.220 33.600 C 323.586 33.050,324.479 31.581,325.205 30.336 L 326.526 28.071 328.363 28.894 C 329.373 29.347,330.605 29.901,331.100 30.126 M293.600 62.005 C 293.050 62.192,291.790 62.552,290.800 62.805 C 286.772 63.837,285.715 64.186,283.851 65.104 C 281.356 66.332,278.237 68.487,276.200 70.391 C 275.320 71.214,274.282 71.997,273.894 72.133 C 273.506 72.269,273.028 72.789,272.833 73.290 C 272.637 73.790,271.830 74.820,271.039 75.578 C 270.247 76.337,269.600 77.130,269.600 77.341 C 269.600 77.552,269.176 78.281,268.658 78.962 C 266.935 81.225,264.820 86.033,264.806 87.716 C 264.803 88.110,264.440 89.138,264.000 90.000 C 263.283 91.406,263.200 92.358,263.200 99.200 C 263.200 106.042,263.283 106.994,264.000 108.400 C 264.440 109.262,264.800 110.519,264.800 111.193 C 264.800 112.326,266.528 116.015,269.125 120.425 C 270.485 122.735,273.648 126.400,274.281 126.400 C 274.546 126.400,275.356 127.139,276.081 128.043 C 276.807 128.947,278.210 130.125,279.200 130.661 C 280.190 131.197,282.054 132.258,283.343 133.018 C 284.631 133.778,285.945 134.400,286.263 134.400 C 286.580 134.400,287.416 134.700,288.120 135.067 C 289.629 135.855,291.831 136.401,294.600 136.675 C 295.700 136.785,296.771 137.037,296.980 137.237 C 297.498 137.732,304.291 137.699,304.600 137.200 C 304.736 136.980,305.604 136.800,306.529 136.800 C 307.454 136.800,309.196 136.440,310.400 136.000 C 311.604 135.560,312.930 135.200,313.347 135.200 C 314.330 135.200,321.016 131.803,322.702 130.447 C 328.707 125.618,332.230 121.511,334.873 116.257 C 337.771 110.496,338.124 108.648,338.124 99.200 C 338.124 92.293,337.858 89.562,336.899 86.600 C 336.110 84.161,332.845 78.184,332.036 77.697 C 331.576 77.420,331.200 76.966,331.200 76.689 C 331.200 75.267,321.956 67.218,318.012 65.206 C 312.493 62.391,298.051 60.497,293.600 62.005 M304.600 80.800 C 304.736 81.020,305.162 81.200,305.547 81.200 C 308.452 81.200,317.973 89.222,317.994 91.688 C 317.997 92.066,318.360 93.017,318.800 93.800 C 319.684 95.374,320.001 103.305,319.200 103.800 C 318.980 103.936,318.800 104.376,318.800 104.778 C 318.800 107.188,312.606 114.604,309.473 115.945 C 308.773 116.244,307.430 116.829,306.489 117.245 C 297.776 121.092,282.800 112.165,282.800 103.125 C 282.800 102.312,282.620 101.536,282.400 101.400 C 282.180 101.264,282.000 100.274,282.000 99.200 C 282.000 98.126,282.180 97.136,282.400 97.000 C 282.620 96.864,282.800 95.964,282.800 95.000 C 282.800 94.036,282.980 93.136,283.200 93.000 C 283.420 92.864,283.600 92.389,283.600 91.944 C 283.600 91.499,284.206 90.384,284.947 89.467 C 285.688 88.550,286.501 87.402,286.753 86.915 C 287.535 85.408,294.356 81.200,296.017 81.200 C 296.422 81.200,296.864 81.020,297.000 80.800 C 297.136 80.580,298.846 80.400,300.800 80.400 C 302.754 80.400,304.464 80.580,304.600 80.800 M128.800 138.000 C 128.470 138.213,126.456 138.391,124.324 138.394 C 122.178 138.397,120.337 138.579,120.200 138.800 C 120.064 139.020,119.271 139.200,118.438 139.200 C 114.044 139.200,110.740 143.281,110.019 149.600 C 109.830 151.250,109.459 154.490,109.192 156.800 C 108.926 159.110,108.549 161.171,108.354 161.380 C 108.159 161.589,108.000 163.603,108.000 165.856 C 108.000 168.156,107.825 170.061,107.600 170.200 C 107.380 170.336,107.200 170.912,107.200 171.480 C 107.200 172.655,106.213 173.569,104.924 173.587 C 104.442 173.594,103.936 173.780,103.800 174.000 C 103.664 174.220,103.124 174.400,102.600 174.400 C 102.076 174.400,101.536 174.580,101.400 174.800 C 101.264 175.020,100.844 175.200,100.466 175.200 C 100.089 175.200,98.704 175.734,97.390 176.387 C 96.075 177.041,94.730 177.581,94.400 177.589 C 94.070 177.597,93.222 177.955,92.515 178.386 L 91.231 179.169 90.115 178.069 C 89.502 177.463,88.370 176.672,87.600 176.310 C 86.830 175.949,85.580 175.011,84.822 174.226 C 84.063 173.442,83.242 172.800,82.996 172.800 C 82.751 172.800,82.032 172.260,81.400 171.600 C 80.768 170.940,80.048 170.400,79.800 170.400 C 79.552 170.400,78.832 169.860,78.200 169.200 C 77.568 168.540,76.879 168.000,76.670 168.000 C 76.461 168.000,75.526 167.325,74.593 166.500 C 71.673 163.918,70.745 163.200,70.329 163.200 C 70.108 163.200,69.469 162.840,68.909 162.400 C 68.133 161.789,67.286 161.600,65.333 161.600 C 61.189 161.600,59.371 162.734,51.062 170.500 C 49.238 172.205,47.539 173.600,47.287 173.600 C 47.035 173.600,46.621 174.005,46.367 174.500 C 45.695 175.810,43.174 178.375,41.900 179.043 C 41.295 179.361,40.800 179.849,40.800 180.129 C 40.800 180.409,40.080 181.341,39.200 182.200 C 38.320 183.059,37.600 183.961,37.600 184.203 C 37.600 184.445,36.965 185.259,36.188 186.012 C 32.043 190.029,31.636 197.589,35.349 201.600 C 36.062 202.370,37.175 203.799,37.823 204.776 C 38.470 205.752,39.404 207.012,39.897 207.576 C 40.390 208.139,41.155 209.011,41.597 209.514 C 42.039 210.017,42.400 210.574,42.400 210.752 C 42.400 210.930,42.760 211.402,43.200 211.800 C 43.640 212.198,44.000 212.754,44.000 213.035 C 44.000 213.316,44.315 213.646,44.700 213.768 C 45.085 213.891,45.638 214.527,45.928 215.183 C 46.219 215.839,46.995 216.953,47.654 217.658 C 49.798 219.953,50.156 221.021,49.212 222.301 C 48.766 222.906,48.022 224.390,47.559 225.600 C 46.171 229.225,44.362 234.146,44.104 235.000 C 43.701 236.327,42.721 236.774,40.180 236.787 C 38.849 236.794,37.589 236.966,37.380 237.169 C 37.171 237.372,35.695 237.642,34.100 237.769 C 32.505 237.896,29.895 238.104,28.300 238.231 C 26.705 238.358,25.229 238.628,25.020 238.831 C 24.811 239.034,23.517 239.200,22.144 239.200 C 20.771 239.200,19.536 239.380,19.400 239.600 C 19.264 239.820,18.474 240.000,17.644 240.000 C 13.640 240.000,10.573 243.108,9.994 247.756 C 9.799 249.320,9.454 251.770,9.228 253.200 C 8.739 256.288,8.722 274.053,9.205 277.200 C 9.391 278.410,9.725 280.781,9.949 282.469 C 10.703 288.180,12.734 290.173,18.800 291.156 C 20.450 291.424,22.700 291.811,23.800 292.016 C 24.900 292.221,28.011 292.509,30.714 292.655 C 33.417 292.802,35.722 293.074,35.838 293.261 C 35.953 293.447,37.171 293.600,38.544 293.600 C 39.917 293.600,41.211 293.765,41.420 293.966 C 41.629 294.168,42.224 294.393,42.743 294.466 C 43.464 294.569,43.821 295.023,44.262 296.400 C 44.580 297.390,45.003 298.560,45.203 299.000 C 46.007 300.766,47.600 304.961,47.600 305.311 C 47.600 305.516,48.151 306.500,48.823 307.497 C 49.936 309.145,49.999 309.405,49.520 310.355 C 48.745 311.892,45.623 316.247,43.900 318.194 C 43.075 319.127,42.400 320.058,42.400 320.264 C 42.400 320.469,41.680 321.341,40.800 322.200 C 39.920 323.059,39.200 323.962,39.200 324.206 C 39.200 324.451,38.660 325.168,38.000 325.800 C 37.340 326.432,36.800 327.167,36.800 327.432 C 36.800 327.697,36.548 328.011,36.240 328.129 C 31.972 329.767,31.686 340.135,35.802 344.002 C 36.351 344.518,36.800 345.140,36.800 345.385 C 36.800 345.630,37.700 346.717,38.800 347.800 C 39.900 348.883,40.800 349.997,40.800 350.275 C 40.800 350.552,41.340 351.059,42.000 351.400 C 42.660 351.741,43.200 352.246,43.200 352.521 C 43.200 353.159,48.460 358.400,49.100 358.400 C 49.364 358.400,49.859 358.940,50.200 359.600 C 50.541 360.260,51.044 360.800,51.316 360.800 C 51.589 360.800,52.890 361.876,54.206 363.191 C 55.523 364.506,56.803 365.586,57.051 365.591 C 57.299 365.596,57.719 365.861,57.984 366.181 C 60.840 369.622,67.962 369.693,72.000 366.320 C 72.770 365.676,73.850 364.800,74.400 364.372 C 74.950 363.944,76.142 362.965,77.048 362.197 C 77.955 361.428,78.835 360.800,79.004 360.800 C 79.172 360.800,80.089 360.125,81.041 359.300 C 83.900 356.822,85.331 355.748,86.721 355.035 C 87.447 354.663,88.141 354.098,88.263 353.779 C 88.386 353.461,88.705 353.200,88.973 353.200 C 89.241 353.200,89.867 352.767,90.364 352.238 C 91.370 351.167,90.863 351.046,95.878 353.558 C 97.241 354.241,98.591 354.801,98.878 354.802 C 99.165 354.803,100.300 355.262,101.400 355.823 C 102.500 356.384,104.255 357.028,105.300 357.255 C 107.027 357.629,107.200 357.770,107.200 358.810 C 107.200 359.438,107.380 360.064,107.600 360.200 C 107.823 360.338,108.000 362.206,108.000 364.429 C 108.000 366.619,108.171 368.723,108.380 369.105 C 108.589 369.487,108.966 371.690,109.218 374.000 C 110.133 382.386,110.292 383.432,110.952 385.348 C 113.123 391.651,115.044 392.202,134.800 392.194 C 153.682 392.186,156.257 391.899,158.678 389.526 C 160.828 387.418,161.600 385.949,161.600 383.962 C 161.600 383.129,161.780 382.336,162.000 382.200 C 162.220 382.064,162.400 380.649,162.400 379.056 C 162.400 377.463,162.565 375.989,162.766 375.780 C 163.116 375.417,163.346 373.623,163.840 367.400 C 163.962 365.860,164.228 364.429,164.431 364.220 C 164.634 364.011,164.806 362.751,164.813 361.420 C 164.829 358.399,165.280 357.797,168.243 356.848 C 170.451 356.141,171.483 355.704,177.914 352.749 C 180.761 351.441,181.398 351.570,183.972 353.974 C 184.694 354.648,185.418 355.200,185.580 355.200 C 185.743 355.200,186.202 355.560,186.600 356.000 C 186.998 356.440,187.501 356.800,187.717 356.800 C 187.934 356.800,188.941 357.516,189.955 358.391 C 194.168 362.025,195.060 362.724,196.280 363.347 C 196.984 363.706,197.704 364.231,197.880 364.514 C 198.256 365.118,202.105 367.627,203.719 368.320 C 206.272 369.416,211.827 368.655,213.181 367.023 C 213.465 366.680,213.908 366.400,214.164 366.400 C 214.420 366.400,215.517 365.500,216.600 364.400 C 217.683 363.300,218.759 362.400,218.989 362.400 C 219.493 362.400,233.600 348.343,233.600 347.841 C 233.600 347.648,234.275 346.711,235.100 345.759 C 239.212 341.014,240.000 339.585,240.000 336.868 C 240.000 334.585,238.541 331.048,237.005 329.604 C 236.452 329.085,236.000 328.456,236.000 328.205 C 236.000 327.955,235.460 327.232,234.800 326.600 C 234.140 325.968,233.600 325.248,233.600 325.000 C 233.600 324.752,233.060 324.032,232.400 323.400 C 231.740 322.768,231.200 322.048,231.200 321.800 C 231.200 321.552,230.660 320.832,230.000 320.200 C 229.340 319.568,228.800 318.851,228.800 318.606 C 228.800 318.362,228.080 317.459,227.200 316.600 C 226.320 315.741,225.600 314.826,225.600 314.568 C 225.600 314.309,225.325 313.870,224.989 313.591 C 223.098 312.022,222.091 309.775,222.855 308.831 C 223.259 308.332,223.770 307.266,223.990 306.462 C 224.211 305.658,224.843 304.114,225.396 303.032 C 225.948 301.950,226.400 300.746,226.400 300.356 C 226.400 299.966,226.580 299.536,226.800 299.400 C 227.020 299.264,227.200 298.749,227.200 298.256 C 227.200 297.763,227.365 297.189,227.566 296.980 C 227.768 296.771,227.993 296.150,228.066 295.600 C 228.162 294.882,228.482 294.562,229.200 294.466 C 229.750 294.393,230.371 294.168,230.580 293.966 C 230.789 293.765,232.263 293.600,233.856 293.600 C 235.449 293.600,236.847 293.448,236.962 293.262 C 237.077 293.076,239.292 292.803,241.885 292.656 C 244.478 292.508,247.680 292.201,249.000 291.973 C 250.320 291.745,252.473 291.373,253.784 291.146 C 257.197 290.556,260.800 288.420,260.800 286.987 C 260.800 286.732,261.160 286.198,261.600 285.800 C 262.291 285.175,262.400 284.568,262.400 281.362 C 262.400 279.317,262.580 277.536,262.800 277.400 C 263.052 277.244,263.200 272.870,263.200 265.600 C 263.200 258.330,263.052 253.956,262.800 253.800 C 262.578 253.663,262.400 251.836,262.400 249.698 C 262.400 246.152,262.312 245.713,261.300 244.222 C 259.143 241.042,258.695 240.756,254.896 240.127 C 254.179 240.009,253.494 239.751,253.373 239.556 C 253.252 239.360,252.004 239.200,250.600 239.200 C 249.196 239.200,247.936 239.020,247.800 238.800 C 247.664 238.580,246.224 238.400,244.600 238.400 C 242.976 238.400,241.536 238.220,241.400 238.000 C 241.264 237.780,239.914 237.600,238.400 237.600 C 236.886 237.600,235.536 237.420,235.400 237.200 C 235.264 236.980,234.104 236.800,232.822 236.800 C 229.290 236.800,227.200 235.249,227.200 232.629 C 227.200 232.146,226.840 231.005,226.400 230.094 C 225.960 229.184,225.600 228.276,225.600 228.077 C 225.600 227.879,224.881 226.295,224.002 224.558 C 221.965 220.535,222.156 219.388,225.352 216.430 C 225.928 215.897,226.400 215.256,226.400 215.005 C 226.400 214.755,226.940 214.032,227.600 213.400 C 228.260 212.768,228.800 212.048,228.800 211.800 C 228.800 211.552,229.340 210.832,230.000 210.200 C 230.660 209.568,231.200 208.876,231.200 208.664 C 231.200 208.451,231.875 207.612,232.700 206.799 C 233.525 205.987,234.740 204.565,235.400 203.640 C 236.060 202.715,237.067 201.382,237.638 200.679 C 240.913 196.645,240.591 191.538,236.763 186.800 C 232.887 182.000,231.239 180.179,226.335 175.270 C 219.616 168.543,217.408 166.634,212.159 163.010 C 208.635 160.577,203.413 161.323,199.214 164.859 C 198.436 165.514,197.303 166.444,196.695 166.925 C 196.088 167.406,194.925 168.385,194.112 169.100 C 193.299 169.815,192.437 170.400,192.198 170.400 C 191.958 170.400,191.059 171.120,190.200 172.000 C 189.341 172.880,188.436 173.600,188.189 173.600 C 187.942 173.600,187.303 174.070,186.770 174.645 C 185.330 176.197,181.089 178.863,180.400 178.649 C 178.522 178.067,174.820 176.570,173.688 175.936 C 172.966 175.531,172.032 175.200,171.611 175.200 C 171.191 175.200,170.736 175.020,170.600 174.800 C 170.464 174.580,169.924 174.400,169.400 174.400 C 168.876 174.400,168.336 174.220,168.200 174.000 C 168.064 173.780,167.541 173.600,167.038 173.600 C 165.419 173.600,164.800 172.424,164.800 169.349 C 164.800 167.815,164.635 166.389,164.434 166.180 C 164.084 165.817,163.854 164.023,163.360 157.800 C 163.238 156.260,162.972 154.829,162.769 154.620 C 162.566 154.411,162.400 153.117,162.400 151.744 C 162.400 150.371,162.220 149.136,162.000 149.000 C 161.780 148.864,161.600 147.857,161.600 146.762 C 161.600 142.970,157.930 139.200,154.240 139.200 C 153.474 139.200,152.736 139.020,152.600 138.800 C 152.459 138.571,150.404 138.400,147.800 138.400 C 145.196 138.400,143.141 138.229,143.000 138.000 C 142.678 137.479,129.607 137.479,128.800 138.000 M143.927 157.416 C 143.998 157.474,144.240 159.204,144.466 161.261 C 144.693 163.317,145.047 166.170,145.253 167.600 C 145.711 170.773,146.285 175.358,146.742 179.500 C 147.428 185.713,149.736 188.718,154.800 189.992 C 155.570 190.186,157.190 190.639,158.400 190.999 C 159.610 191.360,161.553 191.920,162.719 192.245 C 163.884 192.569,165.465 193.187,166.231 193.617 C 166.997 194.048,167.861 194.400,168.151 194.400 C 168.820 194.400,171.113 195.535,171.408 196.012 C 171.531 196.211,172.770 196.918,174.163 197.582 C 175.555 198.247,176.920 199.062,177.196 199.395 C 178.323 200.753,185.004 200.218,187.359 198.581 C 191.236 195.885,191.968 195.299,193.018 194.052 C 193.597 193.363,194.319 192.800,194.622 192.800 C 194.924 192.800,195.787 192.260,196.539 191.600 C 197.291 190.940,198.075 190.400,198.283 190.400 C 198.491 190.400,199.097 189.932,199.630 189.360 C 200.164 188.788,201.579 187.668,202.775 186.871 C 203.972 186.074,205.393 185.012,205.934 184.511 C 207.204 183.333,207.170 183.326,209.000 185.200 C 209.859 186.080,210.796 186.800,211.081 186.800 C 211.367 186.800,211.600 187.002,211.600 187.249 C 211.600 187.496,213.075 189.209,214.878 191.056 C 218.127 194.385,218.149 194.420,217.278 195.030 C 216.795 195.369,216.400 195.815,216.400 196.023 C 216.400 196.230,216.085 196.742,215.700 197.160 C 215.315 197.577,214.550 198.581,214.000 199.391 C 212.829 201.113,209.710 205.258,208.232 207.055 C 207.664 207.745,207.200 208.441,207.200 208.601 C 207.200 208.761,206.490 209.547,205.622 210.346 C 202.720 213.019,201.850 214.685,200.924 219.339 C 200.662 220.660,201.443 223.441,202.403 224.600 C 202.767 225.040,203.557 226.432,204.158 227.692 C 204.759 228.953,205.408 230.082,205.600 230.200 C 206.059 230.483,207.200 232.783,207.200 233.424 C 207.200 233.699,207.541 234.616,207.957 235.462 C 208.826 237.227,211.600 245.739,211.600 246.642 C 211.600 250.900,215.808 253.826,223.400 254.846 C 227.917 255.453,237.365 256.646,240.400 256.993 C 244.861 257.503,244.400 256.558,244.400 265.194 C 244.400 273.978,244.586 273.600,240.250 273.600 C 238.818 273.600,237.536 273.780,237.400 274.000 C 237.264 274.220,236.004 274.400,234.600 274.400 C 233.196 274.400,231.936 274.580,231.800 274.800 C 231.664 275.020,230.314 275.200,228.800 275.200 C 227.286 275.200,225.936 275.380,225.800 275.600 C 225.664 275.820,224.383 276.000,222.954 276.000 C 216.312 276.000,212.661 278.858,211.202 285.200 C 210.924 286.410,210.462 287.850,210.176 288.400 C 209.445 289.806,208.800 291.961,208.800 292.998 C 208.800 293.481,208.440 294.202,208.000 294.600 C 207.560 294.998,207.200 295.609,207.200 295.958 C 207.200 296.815,204.511 302.210,203.782 302.815 C 203.462 303.081,203.200 303.698,203.200 304.187 C 203.200 304.676,202.840 305.402,202.400 305.800 C 201.960 306.198,201.600 306.935,201.600 307.438 C 201.600 307.941,201.420 308.464,201.200 308.600 C 200.679 308.922,200.679 313.078,201.200 313.400 C 201.420 313.536,201.600 314.053,201.600 314.549 C 201.600 315.045,202.140 315.968,202.800 316.600 C 203.460 317.232,204.000 317.949,204.000 318.194 C 204.000 318.438,204.720 319.341,205.600 320.200 C 206.480 321.059,207.200 321.962,207.200 322.206 C 207.200 322.451,207.740 323.168,208.400 323.800 C 209.060 324.432,209.600 325.132,209.600 325.356 C 209.600 325.579,210.129 326.310,210.776 326.981 C 211.990 328.239,212.880 329.418,215.466 333.200 C 216.294 334.410,217.224 335.556,217.534 335.747 C 217.960 336.010,216.758 337.434,212.561 341.639 L 207.027 347.184 205.939 346.142 C 205.341 345.568,204.505 344.897,204.083 344.650 C 202.168 343.529,200.119 342.009,199.230 341.048 C 198.697 340.472,198.056 340.000,197.805 340.000 C 197.555 340.000,196.832 339.460,196.200 338.800 C 195.568 338.140,194.851 337.600,194.606 337.600 C 194.362 337.600,193.459 336.880,192.600 336.000 C 191.741 335.120,190.817 334.400,190.548 334.400 C 190.278 334.400,189.730 333.995,189.329 333.500 C 187.444 331.172,185.583 330.400,181.863 330.400 C 178.135 330.400,177.978 330.454,173.200 333.394 C 169.794 335.489,166.937 336.774,162.434 338.234 C 160.765 338.775,159.087 339.394,158.705 339.609 C 158.323 339.824,157.659 340.000,157.229 340.000 C 156.799 340.000,156.336 340.180,156.200 340.400 C 156.064 340.620,155.451 340.800,154.838 340.800 C 150.796 340.800,147.326 345.241,146.713 351.200 C 146.520 353.070,146.197 355.860,145.994 357.400 C 145.792 358.940,145.448 361.550,145.230 363.200 C 145.012 364.850,144.658 367.682,144.445 369.493 C 143.921 373.923,144.560 373.600,136.320 373.600 C 128.128 373.600,128.036 373.566,128.013 370.524 C 128.006 369.602,127.820 368.736,127.600 368.600 C 127.380 368.464,127.200 367.281,127.200 365.971 C 127.200 364.661,127.026 363.277,126.814 362.895 C 126.601 362.513,126.261 359.230,126.057 355.600 C 125.753 350.178,125.537 348.700,124.844 347.319 C 124.380 346.395,124.000 345.394,124.000 345.094 C 124.000 344.466,121.960 342.400,121.340 342.400 C 121.111 342.400,120.598 342.040,120.200 341.600 C 119.756 341.109,118.968 340.800,118.162 340.800 C 117.439 340.800,116.736 340.620,116.600 340.400 C 116.464 340.180,115.924 340.000,115.400 340.000 C 114.876 340.000,114.336 339.820,114.200 339.600 C 114.064 339.380,113.440 339.200,112.814 339.200 C 112.188 339.200,110.984 338.862,110.138 338.449 C 109.292 338.036,107.610 337.300,106.400 336.814 C 105.190 336.328,103.570 335.598,102.800 335.191 C 97.917 332.615,96.495 331.811,95.646 331.147 C 92.480 328.668,85.913 330.435,80.585 335.199 C 77.096 338.319,76.017 339.200,75.685 339.200 C 75.507 339.200,74.659 339.920,73.800 340.800 C 72.941 341.680,72.026 342.400,71.768 342.400 C 71.509 342.400,71.065 342.681,70.779 343.025 C 70.123 343.816,66.249 346.400,65.720 346.400 C 64.409 346.400,56.800 339.711,56.800 338.558 C 56.800 338.385,56.334 337.757,55.764 337.163 C 54.739 336.093,54.889 334.400,56.009 334.400 C 56.218 334.400,56.640 333.815,56.945 333.100 C 57.251 332.385,58.064 331.271,58.751 330.625 C 59.438 329.979,60.000 329.281,60.000 329.074 C 60.000 328.866,60.585 328.041,61.300 327.239 C 62.015 326.438,63.050 325.175,63.600 324.433 C 64.150 323.691,65.230 322.346,66.000 321.442 C 69.760 317.031,71.200 314.030,71.200 310.602 C 71.200 307.823,71.084 307.535,67.194 300.600 C 66.330 299.060,65.618 297.509,65.611 297.154 C 65.605 296.799,65.240 296.050,64.800 295.491 C 64.360 294.931,64.000 294.018,64.000 293.461 C 64.000 292.903,63.820 292.336,63.600 292.200 C 63.380 292.064,63.200 291.524,63.200 291.000 C 63.200 290.476,63.020 289.936,62.800 289.800 C 62.580 289.664,62.400 289.209,62.400 288.789 C 62.400 288.368,62.040 287.383,61.600 286.600 C 61.160 285.817,60.800 284.652,60.800 284.011 C 60.800 283.371,60.620 282.736,60.400 282.600 C 60.180 282.464,60.000 281.949,60.000 281.455 C 60.000 278.924,54.830 276.000,50.356 276.000 C 48.646 276.000,47.136 275.820,47.000 275.600 C 46.864 275.380,45.694 275.200,44.400 275.200 C 43.106 275.200,41.936 275.020,41.800 274.800 C 41.664 274.580,40.224 274.400,38.600 274.400 C 36.976 274.400,35.536 274.220,35.400 274.000 C 35.264 273.780,34.004 273.600,32.600 273.600 C 31.196 273.600,29.936 273.420,29.800 273.200 C 29.664 272.980,29.203 272.800,28.776 272.800 C 28.103 272.800,27.436 257.779,28.100 257.568 C 28.155 257.551,29.640 257.374,31.400 257.174 C 33.160 256.975,35.950 256.626,37.600 256.397 C 43.643 255.560,46.662 255.196,49.400 254.977 C 55.110 254.518,60.000 251.549,60.000 248.540 C 60.000 247.829,60.180 247.136,60.400 247.000 C 60.620 246.864,60.800 246.324,60.800 245.800 C 60.800 245.276,60.980 244.736,61.200 244.600 C 61.420 244.464,61.600 243.949,61.600 243.456 C 61.600 242.963,61.748 242.389,61.928 242.180 C 62.108 241.971,62.681 240.450,63.200 238.800 C 63.720 237.150,64.472 235.428,64.872 234.974 C 65.273 234.520,65.600 233.872,65.600 233.535 C 65.600 233.197,66.311 231.588,67.180 229.960 C 68.049 228.332,69.309 225.970,69.980 224.711 C 72.023 220.879,71.367 215.096,68.631 212.826 C 68.284 212.538,68.000 212.091,68.000 211.832 C 68.000 211.574,67.280 210.659,66.400 209.800 C 65.520 208.941,64.800 208.038,64.800 207.794 C 64.800 207.549,64.260 206.832,63.600 206.200 C 62.940 205.568,62.400 204.848,62.400 204.600 C 62.400 204.352,61.860 203.632,61.200 203.000 C 60.540 202.368,60.000 201.679,60.000 201.470 C 60.000 201.261,59.325 200.311,58.500 199.359 C 56.282 196.800,54.800 194.920,54.800 194.665 C 54.800 193.433,61.785 185.994,64.262 184.588 L 65.525 183.872 67.662 185.355 C 71.597 188.085,72.593 188.840,73.819 190.024 C 74.490 190.671,75.221 191.200,75.444 191.200 C 75.668 191.200,76.368 191.740,77.000 192.400 C 77.632 193.060,78.352 193.600,78.600 193.600 C 78.848 193.600,79.568 194.140,80.200 194.800 C 80.832 195.460,81.552 196.000,81.800 196.000 C 82.048 196.000,82.768 196.540,83.400 197.200 C 84.032 197.860,84.758 198.400,85.013 198.400 C 85.268 198.400,85.802 198.760,86.200 199.200 C 87.155 200.255,94.760 200.413,95.604 199.395 C 95.880 199.062,97.245 198.247,98.637 197.582 C 100.030 196.918,101.269 196.211,101.392 196.012 C 101.687 195.535,103.980 194.400,104.649 194.400 C 104.939 194.400,105.769 194.067,106.495 193.659 C 108.308 192.640,111.959 191.400,115.940 190.449 C 117.777 190.010,119.592 189.370,119.972 189.026 C 120.352 188.681,120.840 188.400,121.057 188.400 C 123.478 188.400,125.808 181.701,126.199 173.613 C 126.360 170.301,126.651 167.492,126.846 167.372 C 127.040 167.251,127.200 166.004,127.200 164.600 C 127.200 163.196,127.380 161.936,127.600 161.800 C 127.820 161.664,128.000 160.878,128.000 160.053 C 128.000 157.629,128.554 157.240,132.200 157.107 C 135.357 156.991,143.680 157.210,143.927 157.416 M133.463 211.872 C 133.283 212.052,131.575 212.322,129.668 212.470 C 122.245 213.049,109.683 217.608,107.171 220.635 C 106.913 220.946,106.488 221.200,106.226 221.200 C 105.964 221.200,105.232 221.740,104.600 222.400 C 103.968 223.060,103.256 223.600,103.018 223.600 C 102.460 223.600,94.000 232.078,94.000 232.637 C 94.000 232.870,93.538 233.494,92.974 234.024 C 92.410 234.554,91.660 235.621,91.307 236.394 C 90.954 237.167,90.407 238.105,90.091 238.478 C 89.177 239.556,86.800 244.480,86.800 245.297 C 86.800 245.705,86.508 246.605,86.150 247.296 C 83.766 251.906,81.700 268.824,83.158 271.787 C 83.378 272.234,83.652 273.410,83.766 274.400 C 84.194 278.094,84.494 279.611,84.842 279.826 C 85.039 279.948,85.200 280.391,85.200 280.811 C 85.200 281.232,85.560 282.217,86.000 283.000 C 86.440 283.783,86.800 284.783,86.800 285.221 C 86.800 286.138,89.859 292.400,90.307 292.400 C 90.471 292.400,90.859 292.985,91.170 293.700 C 92.603 296.997,100.829 306.148,103.700 307.638 C 104.525 308.066,105.200 308.553,105.200 308.720 C 105.200 308.888,105.695 309.238,106.300 309.498 C 107.711 310.105,108.927 310.888,109.271 311.413 C 109.420 311.639,110.680 312.332,112.071 312.952 C 113.462 313.572,115.320 314.421,116.200 314.840 C 117.080 315.259,118.104 315.602,118.476 315.601 C 118.848 315.600,119.264 315.780,119.400 316.000 C 119.536 316.220,120.076 316.400,120.600 316.400 C 121.124 316.400,121.664 316.580,121.800 316.800 C 121.936 317.020,122.811 317.200,123.744 317.200 C 124.677 317.200,125.611 317.366,125.820 317.569 C 126.551 318.278,139.902 319.058,140.532 318.428 C 140.768 318.192,142.083 318.000,143.456 318.000 C 144.829 318.000,146.064 317.820,146.200 317.600 C 146.336 317.380,147.159 317.200,148.029 317.200 C 148.899 317.200,149.923 317.024,150.305 316.809 C 150.687 316.594,152.393 315.966,154.096 315.413 C 157.457 314.322,163.281 311.466,164.061 310.527 C 164.328 310.205,165.279 309.571,166.173 309.119 C 168.579 307.903,176.400 301.021,176.400 300.120 C 176.400 299.917,176.940 299.232,177.600 298.600 C 178.260 297.968,178.800 297.242,178.800 296.987 C 178.800 296.732,179.160 296.198,179.600 295.800 C 180.040 295.402,180.400 294.856,180.400 294.587 C 180.400 294.318,180.657 293.885,180.971 293.624 C 181.285 293.363,182.025 292.216,182.616 291.075 C 183.206 289.934,183.936 288.720,184.237 288.377 C 184.538 288.035,185.138 286.645,185.571 285.289 C 186.005 283.933,186.583 282.413,186.857 281.912 C 187.130 281.410,187.488 280.190,187.652 279.200 C 187.816 278.210,188.172 276.590,188.443 275.600 C 189.386 272.153,189.367 257.925,188.416 255.245 C 187.967 253.981,187.600 252.289,187.600 251.484 C 187.600 250.227,186.918 248.241,185.548 245.505 C 185.357 245.123,185.200 244.470,185.200 244.054 C 185.200 243.638,184.928 243.072,184.595 242.796 C 184.262 242.520,183.447 241.155,182.782 239.763 C 182.118 238.370,181.399 237.123,181.186 236.991 C 180.973 236.859,180.452 235.997,180.030 235.076 C 179.607 234.154,178.617 232.780,177.831 232.022 C 177.044 231.263,176.400 230.494,176.400 230.311 C 176.400 229.796,171.906 225.200,171.403 225.200 C 171.158 225.200,170.337 224.556,169.578 223.769 C 168.820 222.983,167.480 222.008,166.600 221.604 C 165.720 221.199,164.564 220.403,164.030 219.834 C 163.497 219.265,162.715 218.800,162.293 218.800 C 161.871 218.800,161.069 218.440,160.509 218.000 C 159.950 217.560,159.184 217.200,158.808 217.200 C 158.432 217.200,157.798 216.840,157.400 216.400 C 157.002 215.960,156.341 215.600,155.933 215.600 C 155.524 215.600,154.877 215.426,154.495 215.213 C 153.361 214.581,149.945 213.510,147.800 213.115 C 142.488 212.137,133.937 211.396,133.463 211.872 M141.400 231.600 C 141.536 231.820,142.359 232.000,143.229 232.000 C 144.099 232.000,145.123 232.155,145.505 232.345 C 148.403 233.782,151.707 235.200,152.159 235.200 C 152.457 235.200,152.941 235.488,153.233 235.839 C 153.525 236.191,154.942 237.253,156.382 238.200 C 158.944 239.884,160.771 241.597,162.139 243.600 C 162.515 244.150,163.362 245.320,164.021 246.200 C 165.698 248.440,168.000 253.003,168.001 254.090 C 168.002 254.591,168.362 255.589,168.801 256.310 C 169.241 257.030,169.600 258.324,169.600 259.186 C 169.600 260.048,169.780 260.864,170.000 261.000 C 170.227 261.140,170.400 263.130,170.400 265.600 C 170.400 268.070,170.227 270.060,170.000 270.200 C 169.780 270.336,169.600 270.971,169.600 271.611 C 169.600 272.252,169.240 273.417,168.800 274.200 C 168.360 274.983,168.000 276.058,168.000 276.588 C 168.000 277.646,166.198 281.142,164.128 284.096 C 163.398 285.139,162.800 286.096,162.800 286.224 C 162.800 286.618,158.221 291.600,157.858 291.600 C 157.669 291.600,156.859 292.116,156.058 292.746 C 149.914 297.576,136.874 300.684,130.400 298.860 C 123.641 296.955,119.531 295.289,116.800 293.345 C 115.059 292.107,108.800 286.017,108.800 285.562 C 108.800 285.378,108.247 284.598,107.570 283.827 C 104.911 280.799,101.916 271.040,101.976 265.600 C 102.011 262.489,102.484 258.177,102.831 257.820 C 103.034 257.611,103.200 257.114,103.200 256.715 C 103.200 256.316,103.367 255.677,103.572 255.295 C 103.777 254.913,104.353 253.520,104.853 252.200 C 105.353 250.880,105.996 249.516,106.281 249.169 C 106.567 248.821,106.800 248.354,106.800 248.130 C 106.800 247.907,107.160 247.398,107.600 247.000 C 108.040 246.602,108.400 246.069,108.400 245.816 C 108.400 245.563,109.009 244.691,109.754 243.878 C 110.499 243.065,111.403 241.950,111.763 241.400 C 112.124 240.850,112.631 240.400,112.890 240.400 C 113.150 240.400,113.952 239.828,114.674 239.128 C 116.066 237.779,118.399 236.326,122.000 234.567 C 123.210 233.976,124.513 233.336,124.895 233.146 C 125.277 232.956,125.941 232.800,126.371 232.800 C 126.801 232.800,127.264 232.620,127.400 232.400 C 127.536 232.180,128.256 232.000,129.000 232.000 C 129.744 232.000,130.464 231.820,130.600 231.600 C 130.744 231.367,132.996 231.200,136.000 231.200 C 139.004 231.200,141.256 231.367,141.400 231.600 " stroke="none" fill="#04c4dc" fill-rule="evenodd"></path><path id="path1" d="" stroke="none" fill="#08c4dc" fill-rule="evenodd"></path></g></svg>
