<svg id="svg" xmlns="http://www.w3.org/2000/svg" xmlns:xlink="http://www.w3.org/1999/xlink" width="400" height="400" viewBox="0, 0, 400,400" version="1.1"><g id="svgg"><path id="path0" d="M103.000 24.000 C 102.864 24.220,101.244 24.400,99.400 24.400 C 97.556 24.400,95.936 24.580,95.800 24.800 C 95.664 25.020,94.854 25.200,94.000 25.200 C 93.146 25.200,92.352 25.355,92.235 25.543 C 92.118 25.732,90.983 25.989,89.711 26.114 C 86.967 26.384,81.257 28.116,73.496 31.034 C 70.802 32.046,60.974 37.108,60.431 37.763 C 60.140 38.113,59.682 38.400,59.413 38.400 C 59.144 38.400,58.598 38.760,58.200 39.200 C 57.802 39.640,57.262 40.000,57.000 40.000 C 56.738 40.000,56.198 40.360,55.800 40.800 C 55.402 41.240,54.917 41.600,54.722 41.600 C 54.235 41.600,52.138 43.100,50.109 44.900 C 49.179 45.725,48.253 46.400,48.052 46.400 C 47.851 46.400,46.452 47.679,44.943 49.241 C 43.435 50.804,41.792 52.241,41.293 52.434 C 40.794 52.627,40.224 53.194,40.027 53.693 C 39.829 54.192,38.122 56.126,36.234 57.991 C 34.345 59.856,32.800 61.607,32.800 61.882 C 32.800 62.157,32.357 62.672,31.816 63.027 C 31.274 63.381,30.710 64.060,30.562 64.536 C 30.414 65.011,29.802 66.030,29.201 66.800 C 28.601 67.570,27.770 68.809,27.355 69.552 C 26.128 71.751,25.798 72.279,25.221 72.974 C 24.920 73.337,24.285 74.391,23.808 75.317 C 19.788 83.131,18.800 85.173,18.800 85.669 C 18.800 85.983,18.641 86.411,18.447 86.620 C 18.252 86.829,17.700 88.170,17.220 89.600 C 16.740 91.030,16.206 92.560,16.033 93.000 C 14.644 96.528,13.917 99.072,13.177 103.000 C 12.970 104.100,12.607 105.900,12.370 107.000 C 10.615 115.172,10.618 134.394,12.376 143.100 C 12.609 144.255,12.969 146.055,13.175 147.100 C 13.381 148.145,13.733 149.720,13.957 150.600 C 14.181 151.480,14.484 152.698,14.630 153.306 C 14.776 153.914,15.054 154.510,15.248 154.630 C 15.441 154.749,15.600 155.199,15.600 155.629 C 15.600 156.059,15.771 156.723,15.981 157.105 C 16.191 157.487,16.752 158.970,17.228 160.400 C 17.704 161.830,18.252 163.171,18.447 163.380 C 18.641 163.589,18.800 164.044,18.800 164.391 C 18.800 165.236,24.275 175.980,25.239 177.026 C 25.657 177.480,26.000 178.020,26.001 178.226 C 26.001 178.432,26.721 179.637,27.601 180.904 C 28.480 182.172,29.200 183.288,29.200 183.384 C 29.200 184.025,32.162 187.686,35.701 191.418 C 37.986 193.828,39.973 196.118,40.117 196.506 C 40.262 196.894,40.794 197.369,41.300 197.562 C 41.806 197.754,43.391 199.147,44.822 200.656 C 46.253 202.165,48.184 203.919,49.112 204.554 C 50.040 205.189,50.800 205.869,50.800 206.064 C 50.800 206.260,51.236 206.586,51.769 206.788 C 52.302 206.991,53.628 207.796,54.717 208.578 C 55.805 209.360,56.824 210.000,56.980 210.000 C 57.137 210.000,58.016 210.607,58.933 211.349 C 60.612 212.708,70.429 217.858,73.400 218.939 C 74.280 219.259,76.080 219.911,77.400 220.389 C 78.720 220.866,80.160 221.401,80.600 221.577 C 99.439 229.111,128.658 228.017,151.800 218.910 C 154.486 217.853,163.945 212.974,164.789 212.210 C 165.160 211.874,165.652 211.600,165.883 211.600 C 166.113 211.600,166.529 211.327,166.806 210.993 C 167.083 210.659,167.960 210.085,168.755 209.719 C 169.550 209.352,170.776 208.590,171.479 208.026 C 172.182 207.462,173.513 206.460,174.436 205.800 C 175.358 205.140,177.764 203.025,179.782 201.100 C 181.799 199.175,183.659 197.600,183.915 197.600 C 184.170 197.600,184.641 197.105,184.960 196.500 C 185.279 195.895,186.814 194.145,188.370 192.611 C 189.927 191.077,191.200 189.628,191.200 189.392 C 191.200 189.156,191.920 188.259,192.800 187.400 C 193.680 186.541,194.400 185.632,194.400 185.381 C 194.400 185.130,194.760 184.598,195.200 184.200 C 195.640 183.802,196.000 183.262,196.000 183.000 C 196.000 182.738,196.360 182.198,196.800 181.800 C 197.240 181.402,197.600 180.862,197.600 180.600 C 197.600 180.338,197.960 179.798,198.400 179.400 C 198.840 179.002,199.200 178.456,199.200 178.187 C 199.200 177.918,199.456 177.485,199.769 177.226 C 200.473 176.642,205.681 166.392,206.388 164.200 C 206.672 163.320,207.027 162.420,207.177 162.200 C 207.328 161.980,208.043 159.910,208.767 157.600 C 209.490 155.290,210.244 153.087,210.441 152.705 C 210.639 152.323,210.800 151.479,210.800 150.829 C 210.800 150.179,210.980 149.536,211.200 149.400 C 211.420 149.264,211.600 148.389,211.600 147.456 C 211.600 146.523,211.762 145.589,211.959 145.380 C 212.398 144.915,212.789 142.387,213.039 138.400 C 213.143 136.750,213.408 135.039,213.629 134.598 C 214.361 133.136,213.579 109.448,212.771 108.620 C 212.567 108.411,212.400 107.477,212.400 106.544 C 212.400 105.611,212.220 104.736,212.000 104.600 C 211.780 104.464,211.600 103.564,211.600 102.600 C 211.600 101.636,211.420 100.736,211.200 100.600 C 210.980 100.464,210.800 99.821,210.800 99.171 C 210.800 98.521,210.640 97.677,210.445 97.295 C 210.249 96.913,209.521 94.800,208.827 92.600 C 208.132 90.400,207.400 88.240,207.200 87.800 C 207.000 87.360,206.383 85.893,205.830 84.540 C 204.571 81.463,200.530 73.614,199.768 72.769 C 199.456 72.421,199.200 71.954,199.200 71.730 C 199.200 71.507,198.840 70.998,198.400 70.600 C 197.960 70.202,197.600 69.662,197.600 69.400 C 197.600 69.138,197.240 68.598,196.800 68.200 C 196.360 67.802,196.000 67.262,196.000 67.000 C 196.000 66.738,195.640 66.198,195.200 65.800 C 194.760 65.402,194.400 64.870,194.400 64.619 C 194.400 64.368,193.680 63.459,192.800 62.600 C 191.920 61.741,191.200 60.861,191.200 60.646 C 191.200 60.346,187.666 56.412,184.456 53.139 C 181.309 49.930,173.497 43.200,172.920 43.200 C 172.716 43.200,172.032 42.660,171.400 42.000 C 170.768 41.340,170.036 40.800,169.774 40.800 C 169.512 40.800,169.071 40.527,168.794 40.193 C 168.517 39.859,167.640 39.288,166.845 38.926 C 166.050 38.563,165.112 38.023,164.760 37.725 C 162.974 36.217,151.199 30.691,146.554 29.182 C 143.720 28.261,140.590 27.241,139.600 26.915 C 138.610 26.589,136.760 26.225,135.489 26.105 C 134.217 25.985,133.082 25.732,132.965 25.543 C 132.848 25.355,131.964 25.200,131.000 25.200 C 130.036 25.200,129.136 25.020,129.000 24.800 C 128.864 24.580,127.334 24.400,125.600 24.400 C 123.866 24.400,122.336 24.220,122.200 24.000 C 122.047 23.752,118.404 23.600,112.600 23.600 C 106.796 23.600,103.153 23.752,103.000 24.000 M122.200 52.351 C 123.740 52.585,125.810 52.890,126.800 53.029 C 127.790 53.168,128.771 53.444,128.980 53.641 C 129.189 53.838,129.694 54.000,130.103 54.000 C 131.162 54.000,138.232 56.332,140.575 57.454 C 141.661 57.974,142.691 58.400,142.863 58.400 C 143.443 58.400,147.552 60.399,147.801 60.802 C 147.937 61.022,148.818 61.553,149.759 61.981 C 150.700 62.410,151.701 63.039,151.984 63.380 C 152.266 63.721,152.718 64.000,152.987 64.000 C 153.256 64.000,153.802 64.360,154.200 64.800 C 154.598 65.240,155.101 65.600,155.318 65.600 C 156.190 65.600,168.800 77.383,168.800 78.198 C 168.800 78.440,169.520 79.341,170.400 80.200 C 171.280 81.059,172.000 81.968,172.000 82.219 C 172.000 82.470,172.360 83.002,172.800 83.400 C 173.240 83.798,173.600 84.344,173.600 84.613 C 173.600 84.882,173.873 85.329,174.207 85.606 C 174.541 85.883,175.111 86.760,175.473 87.555 C 175.835 88.350,176.429 89.360,176.792 89.800 C 177.155 90.240,177.776 91.410,178.172 92.400 C 178.568 93.390,179.313 95.117,179.828 96.238 C 180.343 97.359,181.226 99.699,181.791 101.438 C 182.356 103.177,182.994 104.913,183.209 105.295 C 183.424 105.677,183.600 106.521,183.600 107.171 C 183.600 107.821,183.780 108.464,184.000 108.600 C 184.220 108.736,184.400 109.611,184.400 110.544 C 184.400 111.477,184.565 112.411,184.766 112.620 C 185.990 113.890,186.023 134.689,184.805 137.400 C 184.607 137.840,184.352 138.920,184.238 139.800 C 183.826 142.980,183.505 144.411,183.156 144.627 C 182.960 144.748,182.800 145.251,182.800 145.744 C 182.800 146.237,182.651 146.811,182.470 147.020 C 182.288 147.229,181.894 148.210,181.594 149.200 C 180.460 152.941,175.716 162.725,174.250 164.344 C 173.893 164.740,173.600 165.246,173.600 165.470 C 173.600 165.693,173.240 166.202,172.800 166.600 C 172.360 166.998,172.000 167.530,172.000 167.781 C 172.000 168.032,171.280 168.941,170.400 169.800 C 169.520 170.659,168.800 171.560,168.800 171.802 C 168.800 172.617,156.190 184.400,155.318 184.400 C 155.101 184.400,154.598 184.760,154.200 185.200 C 153.802 185.640,153.256 186.000,152.987 186.000 C 152.718 186.000,152.266 186.279,151.984 186.620 C 151.701 186.961,150.734 187.576,149.835 187.987 C 148.936 188.398,147.570 189.154,146.800 189.667 C 145.418 190.588,144.748 190.931,142.000 192.128 C 135.289 195.050,130.168 196.481,122.200 197.660 C 118.076 198.270,105.970 198.530,105.459 198.019 C 105.228 197.788,104.094 197.600,102.939 197.600 C 101.783 197.600,100.424 197.437,99.919 197.238 C 99.413 197.039,97.920 196.664,96.600 196.405 C 91.941 195.489,87.398 194.083,84.352 192.614 C 83.196 192.056,81.952 191.600,81.587 191.600 C 81.222 191.600,80.598 191.240,80.200 190.800 C 79.802 190.360,79.082 190.000,78.600 190.000 C 78.118 190.000,77.398 189.640,77.000 189.200 C 76.602 188.760,76.122 188.400,75.933 188.400 C 75.568 188.400,72.164 186.065,69.200 183.781 C 68.210 183.018,66.866 182.040,66.213 181.608 C 64.577 180.526,56.000 171.943,56.000 171.389 C 56.000 171.142,55.533 170.503,54.962 169.970 C 54.392 169.436,52.984 167.560,51.833 165.800 C 50.683 164.040,49.395 162.081,48.971 161.446 C 47.440 159.154,46.072 156.587,46.036 155.941 C 46.016 155.578,45.460 154.255,44.800 153.000 C 44.140 151.745,43.600 150.388,43.600 149.983 C 43.600 149.578,43.441 149.149,43.246 149.029 C 43.051 148.908,42.799 148.313,42.684 147.705 C 42.570 147.097,42.190 145.610,41.839 144.400 C 41.170 142.088,40.574 139.133,39.904 134.800 C 39.373 131.367,39.388 118.492,39.927 115.200 C 40.852 109.552,41.139 108.109,41.794 105.800 C 42.168 104.480,42.568 102.903,42.683 102.295 C 42.798 101.687,43.051 101.092,43.246 100.971 C 43.441 100.851,43.600 100.422,43.600 100.017 C 43.600 99.612,44.140 98.255,44.800 97.000 C 45.460 95.745,46.014 94.422,46.031 94.059 C 46.049 93.697,46.583 92.590,47.218 91.600 C 47.853 90.610,48.724 89.161,49.154 88.380 C 53.672 80.164,64.066 69.212,72.504 63.777 C 74.317 62.609,76.250 61.322,76.800 60.916 C 77.350 60.510,78.790 59.759,80.000 59.246 C 81.210 58.734,83.010 57.954,84.000 57.514 C 86.645 56.336,92.729 54.340,94.800 53.971 C 95.790 53.795,97.410 53.439,98.400 53.182 C 99.390 52.924,101.280 52.628,102.600 52.523 C 103.920 52.418,105.179 52.160,105.397 51.949 C 105.896 51.468,118.347 51.765,122.200 52.351 M76.153 74.948 C 73.357 78.107,73.600 73.341,73.600 124.991 C 73.600 161.520,73.708 171.804,74.100 172.505 C 75.695 175.363,77.238 176.400,79.894 176.400 C 82.592 176.400,82.908 176.271,89.200 172.590 C 90.850 171.624,93.620 170.112,95.357 169.228 C 97.093 168.344,98.809 167.354,99.171 167.026 C 99.533 166.698,100.485 166.156,101.287 165.821 C 102.089 165.486,102.861 165.025,103.002 164.796 C 103.144 164.567,104.551 163.735,106.130 162.947 C 107.708 162.159,109.360 161.203,109.800 160.822 C 110.240 160.441,111.230 159.892,112.000 159.601 C 112.770 159.310,113.940 158.685,114.600 158.212 C 115.260 157.739,116.970 156.754,118.400 156.023 C 119.830 155.292,121.478 154.358,122.062 153.947 C 122.646 153.536,123.250 153.200,123.404 153.200 C 123.558 153.200,124.430 152.699,125.342 152.088 C 126.254 151.476,127.667 150.661,128.483 150.277 C 129.299 149.893,130.068 149.413,130.193 149.211 C 130.318 149.009,131.941 148.104,133.800 147.200 C 135.659 146.296,137.278 145.398,137.398 145.204 C 137.517 145.010,138.647 144.359,139.908 143.757 C 141.168 143.155,142.480 142.427,142.822 142.140 C 143.165 141.852,144.605 140.995,146.022 140.236 C 147.440 139.477,149.680 138.278,151.000 137.572 C 152.320 136.866,153.940 135.892,154.600 135.409 C 155.260 134.925,156.450 134.234,157.245 133.872 C 158.040 133.511,158.917 132.941,159.194 132.607 C 159.471 132.273,159.911 132.000,160.171 132.000 C 160.704 132.000,162.743 129.861,163.500 128.505 C 164.147 127.348,164.147 122.652,163.500 121.495 C 162.743 120.139,160.704 118.000,160.171 118.000 C 159.911 118.000,159.471 117.727,159.194 117.393 C 158.917 117.059,158.040 116.482,157.245 116.112 C 156.450 115.742,154.480 114.666,152.867 113.720 C 151.254 112.774,149.846 112.000,149.739 112.000 C 149.632 112.000,148.792 111.492,147.872 110.872 C 146.952 110.252,145.570 109.504,144.800 109.210 C 144.030 108.917,143.217 108.457,142.994 108.190 C 142.770 107.922,141.119 106.965,139.324 106.062 C 137.529 105.160,135.950 104.243,135.815 104.024 C 135.679 103.805,134.451 103.068,133.084 102.386 C 131.718 101.704,129.610 100.536,128.400 99.791 C 127.190 99.046,124.670 97.610,122.800 96.600 C 120.930 95.590,118.410 94.154,117.200 93.409 C 115.990 92.664,113.920 91.500,112.600 90.823 C 111.280 90.145,108.940 88.784,107.400 87.798 C 105.860 86.811,103.430 85.359,102.000 84.571 C 100.570 83.782,97.690 82.171,95.600 80.992 C 93.510 79.812,90.684 78.293,89.319 77.616 C 87.954 76.939,86.738 76.224,86.617 76.027 C 85.074 73.532,78.049 72.807,76.153 74.948 M225.682 86.478 C 225.110 87.050,225.045 89.322,225.573 90.305 C 225.996 91.095,227.536 97.196,228.070 100.200 C 228.266 101.300,228.610 103.100,228.836 104.200 C 229.627 108.064,230.062 111.844,230.239 116.400 C 230.337 118.930,230.612 121.383,230.850 121.852 C 231.110 122.363,231.179 123.564,231.023 124.852 C 230.880 126.033,230.600 129.610,230.401 132.800 C 230.047 138.479,229.649 141.786,228.836 145.800 C 228.614 146.900,228.264 148.790,228.061 150.000 C 227.595 152.761,226.047 158.772,225.564 159.695 C 225.364 160.077,225.200 160.741,225.200 161.171 C 225.200 161.601,225.020 162.064,224.800 162.200 C 224.580 162.336,224.400 162.876,224.400 163.400 C 224.400 163.924,224.220 164.464,224.000 164.600 C 223.780 164.736,223.600 165.191,223.600 165.611 C 223.600 166.032,223.240 167.017,222.800 167.800 C 222.360 168.583,222.000 169.465,222.000 169.760 C 222.000 170.369,215.771 182.681,214.998 183.600 C 214.720 183.930,214.067 184.989,213.547 185.954 C 212.120 188.599,211.789 189.128,211.064 189.929 C 210.699 190.333,210.388 190.829,210.373 191.031 C 210.359 191.234,209.730 192.210,208.975 193.200 C 208.221 194.190,207.173 195.630,206.647 196.400 C 206.121 197.170,205.130 198.329,204.445 198.975 C 203.760 199.621,203.200 200.347,203.200 200.589 C 203.200 200.968,189.408 214.694,186.900 216.812 L 186.000 217.571 186.000 255.791 L 186.000 294.011 185.100 295.387 C 182.958 298.662,187.645 298.400,131.226 298.400 C 77.209 298.400,80.053 298.511,78.200 296.338 C 76.347 294.166,76.400 295.055,76.400 266.067 C 76.400 235.131,76.659 237.754,73.483 236.565 C 72.777 236.300,71.210 235.686,70.000 235.200 C 68.790 234.714,67.123 234.065,66.296 233.759 C 65.468 233.452,62.249 231.896,59.142 230.300 C 51.605 226.430,50.512 225.826,49.661 225.055 C 49.263 224.695,48.754 224.400,48.530 224.400 C 48.307 224.400,47.798 224.040,47.400 223.600 C 47.002 223.160,46.493 222.800,46.270 222.800 C 46.046 222.800,45.533 222.501,45.129 222.136 C 44.725 221.770,44.058 221.275,43.647 221.036 C 43.236 220.796,41.961 219.835,40.814 218.900 C 38.578 217.077,37.624 216.833,36.629 217.829 C 35.870 218.587,35.644 343.332,36.400 343.800 C 36.620 343.936,36.800 344.836,36.800 345.800 C 36.800 346.764,36.980 347.664,37.200 347.800 C 37.420 347.936,37.600 348.476,37.600 349.000 C 37.600 349.524,37.780 350.064,38.000 350.200 C 38.220 350.336,38.400 350.741,38.400 351.100 C 38.400 351.955,41.918 359.034,42.640 359.634 C 42.948 359.889,43.200 360.304,43.200 360.556 C 43.200 361.093,50.834 368.636,52.628 369.872 C 54.777 371.352,59.558 373.607,63.338 374.924 L 67.000 376.200 212.600 376.200 L 358.200 376.200 361.400 375.070 C 365.507 373.620,372.000 370.513,372.000 369.997 C 372.000 369.779,372.228 369.600,372.507 369.600 C 373.129 369.600,382.000 360.762,382.000 360.143 C 382.000 359.898,382.250 359.490,382.556 359.237 C 384.080 357.971,387.595 349.821,388.522 345.400 C 389.024 343.007,389.174 120.318,388.675 117.800 C 388.196 115.378,387.500 113.045,387.130 112.620 C 386.949 112.411,386.800 111.992,386.800 111.689 C 386.800 110.898,383.233 103.726,382.563 103.169 C 382.253 102.912,382.000 102.496,382.000 102.244 C 382.000 101.656,373.532 93.200,372.942 93.200 C 372.698 93.200,372.282 92.940,372.019 92.623 C 371.400 91.877,364.402 88.400,363.521 88.400 C 363.150 88.400,362.736 88.220,362.600 88.000 C 362.464 87.780,361.949 87.600,361.456 87.600 C 360.963 87.600,360.389 87.438,360.180 87.241 C 359.971 87.044,358.990 86.747,358.000 86.583 C 354.697 86.034,226.228 85.932,225.682 86.478 M286.000 125.000 L 286.000 136.000 275.000 136.000 L 264.000 136.000 264.000 125.000 L 264.000 114.000 275.000 114.000 L 286.000 114.000 286.000 125.000 M348.400 125.000 L 348.400 136.000 337.400 136.000 L 326.400 136.000 326.400 125.000 L 326.400 114.000 337.400 114.000 L 348.400 114.000 348.400 125.000 M345.496 165.046 C 348.686 167.479,348.397 160.862,348.397 231.400 C 348.397 302.000,348.674 295.669,345.504 297.602 C 343.454 298.852,244.146 298.852,242.096 297.602 C 238.926 295.669,239.203 302.028,239.201 231.178 L 239.200 168.155 240.201 166.778 C 242.348 163.823,237.700 164.062,293.762 164.029 L 344.124 164.000 345.496 165.046 M98.400 337.400 L 98.400 348.400 87.400 348.400 L 76.400 348.400 76.400 337.400 L 76.400 326.400 87.400 326.400 L 98.400 326.400 98.400 337.400 M160.800 337.400 L 160.800 348.400 150.000 348.400 L 139.200 348.400 139.200 337.400 L 139.200 326.400 150.000 326.400 L 160.800 326.400 160.800 337.400 M223.600 337.400 L 223.600 348.400 212.600 348.400 L 201.600 348.400 201.600 337.400 L 201.600 326.400 212.600 326.400 L 223.600 326.400 223.600 337.400 M286.000 337.400 L 286.000 348.400 275.000 348.400 L 264.000 348.400 264.000 337.400 L 264.000 326.400 275.000 326.400 L 286.000 326.400 286.000 337.400 M348.400 337.400 L 348.400 348.400 337.400 348.400 L 326.400 348.400 326.400 337.400 L 326.400 326.400 337.400 326.400 L 348.400 326.400 348.400 337.400 " stroke="none" fill="#04b4d4" fill-rule="evenodd"></path><path id="path1" d="" stroke="none" fill="#08b4d4" fill-rule="evenodd"></path></g></svg>
