<svg id="svg" xmlns="http://www.w3.org/2000/svg" xmlns:xlink="http://www.w3.org/1999/xlink" width="400" height="400" viewBox="0, 0, 400,400" version="1.1"><g id="svgg"><path id="path0" d="M7.853 48.111 C 1.274 51.723,1.523 61.240,8.285 64.663 L 10.136 65.600 63.397 65.600 L 116.658 65.600 118.965 64.351 C 125.115 61.019,125.022 51.141,118.810 48.005 L 116.423 46.800 63.311 46.811 L 10.200 46.822 7.853 48.111 M8.130 88.568 C 1.366 92.148,1.416 102.089,8.214 105.236 L 10.729 106.400 63.309 106.400 L 115.889 106.400 118.542 105.197 C 125.080 102.233,125.285 92.236,118.880 88.753 L 116.760 87.600 63.280 87.642 L 9.800 87.684 8.130 88.568 M8.153 130.758 C 3.643 132.892,1.791 138.682,4.137 143.315 C 5.426 145.861,5.771 146.215,8.111 147.381 L 10.157 148.400 63.408 148.400 L 116.658 148.400 118.965 147.151 C 125.240 143.752,125.009 133.677,118.589 130.766 L 116.018 129.600 63.309 129.600 L 10.600 129.601 8.153 130.758 M283.074 130.689 C 276.575 133.582,276.411 143.975,282.812 147.206 L 285.177 148.400 338.321 148.400 L 391.464 148.400 393.315 147.463 C 400.145 144.006,400.325 134.318,393.624 130.900 L 391.076 129.600 338.238 129.626 L 285.400 129.653 283.074 130.689 M8.130 171.368 C 1.405 174.928,1.418 184.856,8.153 188.042 L 10.600 189.199 63.309 189.200 L 116.018 189.200 118.589 188.034 C 125.009 185.123,125.240 175.048,118.965 171.649 L 116.658 170.400 63.229 170.442 L 9.800 170.484 8.130 171.368 M282.723 171.614 C 276.334 174.913,276.633 185.288,283.199 188.136 L 285.653 189.200 338.364 189.200 L 391.076 189.200 393.624 187.900 C 400.325 184.482,400.145 174.794,393.315 171.337 L 391.464 170.400 338.232 170.419 L 285.000 170.438 282.723 171.614 M8.153 213.558 C 3.643 215.692,1.791 221.482,4.137 226.115 C 5.426 228.661,5.771 229.015,8.111 230.181 L 10.157 231.200 63.459 231.200 L 116.760 231.200 118.880 230.047 C 125.247 226.585,125.070 216.504,118.589 213.566 L 116.018 212.400 63.309 212.400 L 10.600 212.401 8.153 213.558 M145.411 213.711 C 138.980 217.181,139.142 226.924,145.687 230.243 L 147.573 231.200 200.803 231.200 L 254.032 231.200 255.716 230.353 C 262.461 226.963,262.737 217.244,256.189 213.711 L 253.800 212.422 200.800 212.422 L 147.800 212.422 145.411 213.711 M283.130 213.464 C 276.568 216.388,276.363 226.722,282.800 230.047 L 285.000 231.183 338.232 231.191 L 391.464 231.200 393.315 230.263 C 400.192 226.782,400.271 216.786,393.447 213.558 L 391.000 212.401 338.200 212.427 L 285.400 212.453 283.130 213.464 M8.130 254.168 C 1.518 257.667,1.360 267.124,7.853 270.689 L 10.200 271.978 63.311 271.989 L 116.423 272.000 118.810 270.795 C 125.022 267.659,125.115 257.781,118.965 254.449 L 116.658 253.200 63.229 253.242 L 9.800 253.284 8.130 254.168 M145.704 254.165 C 143.288 255.490,142.959 255.824,141.819 258.111 C 139.453 262.861,141.010 268.314,145.411 270.689 L 147.800 271.978 200.800 271.978 L 253.800 271.978 256.189 270.689 C 262.615 267.221,262.453 257.473,255.913 254.157 L 254.027 253.200 200.713 253.218 L 147.400 253.235 145.704 254.165 M282.723 254.414 C 276.467 257.644,276.616 267.798,282.966 270.900 L 285.218 272.000 338.309 271.989 L 391.400 271.978 393.789 270.689 C 400.334 267.157,400.059 257.551,393.315 254.137 L 391.464 253.200 338.232 253.219 L 285.000 253.238 282.723 254.414 M282.600 295.909 C 276.593 299.185,276.593 308.823,282.600 312.052 L 284.600 313.128 338.200 313.135 C 397.221 313.142,394.423 313.257,394.071 310.839 C 393.893 309.619,394.732 308.736,395.931 308.880 C 400.404 309.417,398.691 298.213,393.938 295.844 L 391.843 294.800 338.221 294.809 L 284.600 294.819 282.600 295.909 M8.148 296.378 C 3.639 298.502,1.790 304.279,4.137 308.915 C 5.426 311.461,5.771 311.815,8.111 312.981 L 10.157 314.000 63.459 314.000 L 116.760 314.000 118.880 312.847 C 125.285 309.364,125.080 299.367,118.542 296.403 L 115.889 295.200 63.245 295.212 L 10.600 295.224 8.148 296.378 M145.411 296.511 C 138.980 299.981,139.142 309.724,145.687 313.043 L 147.573 314.000 200.831 314.000 L 254.088 314.000 256.439 312.747 C 262.536 309.497,262.388 299.856,256.189 296.511 L 253.800 295.222 200.800 295.222 L 147.800 295.222 145.411 296.511 M282.723 336.414 C 276.465 339.645,276.566 349.633,282.889 352.839 L 285.177 354.000 338.289 353.989 L 391.400 353.978 393.789 352.689 C 398.755 350.009,400.554 339.600,396.051 339.600 C 394.666 339.600,394.000 338.934,394.000 337.549 C 394.000 335.077,396.903 335.198,338.239 335.219 L 285.000 335.238 282.723 336.414 M8.130 336.968 C 1.518 340.467,1.360 349.924,7.853 353.489 L 10.200 354.778 63.311 354.789 L 116.423 354.800 118.805 353.598 C 125.115 350.412,125.131 340.396,118.832 337.216 L 116.423 336.000 63.111 336.042 L 9.800 336.084 8.130 336.968 M145.730 336.968 C 139.136 340.458,138.952 350.003,145.411 353.489 L 147.800 354.778 200.800 354.778 L 253.800 354.778 256.189 353.489 C 262.615 350.021,262.453 340.273,255.913 336.957 L 254.027 336.000 200.713 336.042 L 147.400 336.084 145.730 336.968 " stroke="none" fill="#04bcd4" fill-rule="evenodd"></path><path id="path1" d="M312.100 294.700 C 326.565 294.758,350.235 294.758,364.700 294.700 C 379.165 294.642,367.330 294.594,338.400 294.594 C 309.470 294.594,297.635 294.642,312.100 294.700 M394.480 309.280 C 393.886 309.874,393.855 311.063,394.425 311.416 C 394.873 311.692,396.243 310.641,396.807 309.587 C 397.226 308.805,395.220 308.540,394.480 309.280 M394.000 337.720 C 394.000 338.226,394.216 338.856,394.480 339.120 C 395.127 339.767,396.800 339.731,396.800 339.070 C 396.800 338.426,395.134 336.800,394.474 336.800 C 394.213 336.800,394.000 337.214,394.000 337.720 " stroke="none" fill="#a4c404" fill-rule="evenodd"></path></g></svg>
