<svg id="svg" xmlns="http://www.w3.org/2000/svg" xmlns:xlink="http://www.w3.org/1999/xlink" width="400" height="400" viewBox="0, 0, 400,400" version="1.1"><g id="svgg"><path id="path0" d="M250.730 3.398 C 250.581 3.550,248.331 3.844,245.730 4.052 C 239.020 4.588,234.573 5.067,231.800 5.552 C 205.676 10.120,184.695 19.625,163.008 36.715 C 157.705 40.895,145.192 54.121,140.600 60.401 C 139.940 61.304,138.930 62.618,138.355 63.321 C 137.781 64.024,137.016 65.176,136.656 65.879 C 136.296 66.583,135.416 68.017,134.700 69.065 C 124.140 84.550,114.870 110.382,113.192 129.000 C 112.994 131.200,112.620 135.160,112.363 137.800 C 111.791 143.649,111.778 149.343,112.323 154.400 C 112.548 156.490,112.923 160.270,113.156 162.800 C 113.926 171.159,114.900 176.012,118.097 187.400 C 119.468 192.285,122.458 200.023,124.964 205.171 C 125.974 207.245,126.800 209.156,126.800 209.417 C 126.800 209.678,127.134 210.321,127.543 210.846 C 127.951 211.371,129.056 213.330,129.998 215.200 C 131.829 218.836,133.423 221.507,137.459 227.697 C 138.857 229.840,140.000 231.738,140.000 231.914 C 140.000 232.091,136.388 235.813,131.974 240.186 L 123.948 248.137 118.674 242.912 C 112.875 237.167,112.361 236.800,110.105 236.800 C 107.418 236.800,105.826 238.275,72.685 271.451 C 54.912 289.243,40.062 304.105,39.685 304.478 C 16.629 327.270,3.576 340.720,3.352 341.916 C 2.861 344.533,3.265 344.995,26.926 368.867 C 55.041 397.234,55.434 397.600,57.746 397.600 L 59.463 397.600 111.184 345.862 C 139.631 317.407,163.145 293.692,163.438 293.162 C 165.097 290.169,164.319 288.617,157.921 282.159 L 152.729 276.919 159.565 270.047 C 163.325 266.267,167.009 262.640,167.753 261.988 L 169.105 260.801 171.254 262.100 C 172.436 262.815,174.033 263.875,174.802 264.455 C 175.571 265.036,177.100 265.983,178.200 266.560 C 179.300 267.138,181.730 268.513,183.600 269.616 C 185.470 270.720,188.710 272.449,190.800 273.458 C 192.890 274.468,195.050 275.613,195.600 276.003 C 198.867 278.319,205.557 279.632,207.303 278.300 C 207.663 278.025,209.198 275.190,210.713 272.000 C 214.409 264.219,214.606 263.825,216.435 260.600 C 217.308 259.060,218.495 256.822,219.074 255.627 C 220.213 253.274,222.209 250.165,222.827 249.783 C 223.723 249.229,224.800 246.330,224.800 244.470 C 224.800 241.820,224.004 240.930,219.948 239.043 C 214.318 236.425,207.077 232.838,205.600 231.936 C 202.725 230.181,198.554 227.395,197.200 226.325 C 196.430 225.717,194.936 224.540,193.880 223.710 C 188.750 219.677,178.858 209.777,175.800 205.614 C 175.140 204.716,174.060 203.293,173.400 202.451 C 172.740 201.610,171.750 200.163,171.200 199.236 C 170.650 198.309,169.766 196.886,169.236 196.075 C 163.291 186.984,157.518 169.732,156.359 157.600 C 156.159 155.510,155.800 152.180,155.561 150.200 C 154.965 145.262,154.940 145.769,156.403 133.600 C 163.319 76.104,221.610 35.995,278.000 49.932 C 296.158 54.420,318.291 67.986,329.000 81.194 C 330.100 82.551,331.546 84.322,332.213 85.130 C 334.759 88.217,336.786 91.127,338.810 94.600 C 339.964 96.580,341.492 99.190,342.205 100.400 C 342.918 101.610,343.637 103.050,343.804 103.600 C 343.970 104.150,344.821 106.029,345.695 107.775 C 346.569 109.521,347.515 111.771,347.797 112.775 C 348.344 114.722,348.845 116.197,350.048 119.408 C 350.461 120.512,350.800 121.913,350.800 122.521 C 350.800 123.128,351.080 124.295,351.423 125.113 C 351.765 125.931,352.217 127.860,352.427 129.400 C 352.638 130.940,353.030 133.820,353.298 135.800 C 353.929 140.448,353.914 152.089,353.272 156.200 C 352.997 157.960,352.612 160.781,352.416 162.469 C 352.063 165.519,351.463 168.009,349.977 172.600 C 349.549 173.920,349.200 175.277,349.200 175.615 C 349.200 175.954,348.840 176.937,348.400 177.800 C 347.960 178.663,347.600 179.702,347.600 180.109 C 347.600 181.219,343.057 190.745,340.213 195.600 C 336.763 201.489,336.400 202.308,336.400 204.213 C 336.400 207.365,337.328 208.176,343.000 209.981 C 347.344 211.364,356.373 215.515,360.000 217.796 C 370.623 224.481,374.649 224.365,378.310 217.270 C 378.954 216.022,380.364 213.290,381.442 211.200 C 387.751 198.967,393.027 183.392,394.787 171.800 C 395.054 170.040,395.616 166.898,396.036 164.818 C 397.177 159.167,397.170 134.408,396.026 128.081 C 395.600 125.726,394.872 121.640,394.409 119.000 C 393.411 113.307,392.054 108.080,390.152 102.600 C 389.389 100.400,388.582 97.880,388.360 97.000 C 388.137 96.120,387.695 95.001,387.378 94.514 C 387.060 94.027,386.800 93.394,386.800 93.108 C 386.800 92.822,386.440 91.916,386.000 91.096 C 385.560 90.275,385.200 89.404,385.200 89.161 C 385.200 88.636,380.190 78.515,378.080 74.778 C 376.062 71.203,368.976 60.586,367.225 58.514 C 366.441 57.586,365.080 55.896,364.200 54.758 C 361.263 50.960,346.692 36.736,343.676 34.724 C 343.084 34.329,341.790 33.378,340.800 32.611 C 337.360 29.945,327.597 23.606,324.109 21.775 C 317.389 18.247,316.173 17.640,311.800 15.630 C 306.941 13.398,303.522 12.097,298.400 10.531 C 291.835 8.524,289.757 7.979,284.800 6.964 C 275.901 5.142,276.638 5.244,263.200 3.979 C 256.576 3.356,251.024 3.097,250.730 3.398 M296.200 222.382 C 295.540 222.552,293.740 222.910,292.200 223.178 C 285.354 224.367,273.533 228.299,269.000 230.894 C 268.560 231.146,267.022 232.004,265.581 232.801 C 256.654 237.740,244.026 248.552,239.536 255.099 C 238.819 256.144,237.651 257.765,236.939 258.700 C 232.732 264.232,227.897 274.019,225.375 282.109 C 224.811 283.919,224.001 286.480,223.574 287.800 C 223.148 289.120,222.800 290.861,222.800 291.670 C 222.800 292.478,222.434 294.731,221.986 296.675 C 220.887 301.446,220.980 317.402,222.144 324.000 C 228.364 359.246,251.324 384.426,286.600 394.688 C 292.933 396.531,314.121 397.549,322.400 396.408 C 357.238 391.609,385.804 365.425,394.779 330.065 C 396.695 322.517,396.799 321.446,396.799 309.400 C 396.799 295.473,396.327 292.501,392.186 280.396 C 386.930 265.028,375.134 248.482,363.441 240.072 C 361.703 238.822,359.453 237.179,358.441 236.420 C 357.428 235.661,355.430 234.381,354.000 233.577 C 352.570 232.772,350.590 231.652,349.600 231.089 C 344.765 228.337,333.552 224.599,326.000 223.220 C 324.570 222.959,322.645 222.578,321.723 222.373 C 319.726 221.929,297.926 221.937,296.200 222.382 M311.034 252.988 C 315.653 254.359,318.646 260.443,316.626 264.350 C 314.951 267.589,309.819 270.160,306.841 269.252 C 298.699 266.769,298.621 255.527,306.727 253.032 C 309.104 252.301,308.733 252.305,311.034 252.988 M317.000 327.400 L 317.000 366.200 308.600 366.200 L 300.200 366.200 300.000 330.600 C 299.853 304.346,299.676 294.790,299.329 294.200 C 299.071 293.760,297.856 292.416,296.629 291.214 C 295.403 290.011,294.400 288.883,294.400 288.707 C 294.400 288.531,299.485 288.435,305.700 288.494 L 317.000 288.600 317.000 327.400 " stroke="none" fill="#04bcdc" fill-rule="evenodd"></path><path id="path1" d="" stroke="none" fill="#08bcdc" fill-rule="evenodd"></path></g></svg>
