<svg id="svg" xmlns="http://www.w3.org/2000/svg" xmlns:xlink="http://www.w3.org/1999/xlink" width="400" height="400" viewBox="0, 0, 400,400" version="1.1"><g id="svgg"><path id="path0" d="M174.272 1.222 C 11.170 22.162,-58.243 221.856,56.608 339.734 C 162.586 448.506,347.794 403.654,391.657 258.594 C 433.734 119.436,318.272 -17.266,174.272 1.222 M151.616 122.343 C 155.606 123.518,157.178 124.904,177.930 145.554 L 200.000 167.517 222.070 145.587 C 241.436 126.345,244.612 123.501,247.991 122.376 C 262.965 117.389,277.739 128.228,277.656 144.141 C 277.610 153.017,276.302 154.833,252.658 178.853 L 231.859 199.983 252.767 221.280 C 276.418 245.372,277.733 247.221,277.680 256.320 C 277.592 271.321,263.258 281.947,248.763 277.757 C 244.270 276.458,243.522 275.804,222.070 254.452 L 200.000 232.483 177.930 254.413 C 158.564 273.655,155.388 276.499,152.009 277.624 C 137.035 282.611,122.261 271.772,122.344 255.859 C 122.390 246.983,123.698 245.167,147.342 221.147 L 168.141 200.017 147.233 178.720 C 122.338 153.361,120.406 150.293,122.619 139.631 C 125.395 126.263,138.464 118.471,151.616 122.343 " stroke="none" fill="#000000" fill-rule="evenodd"></path></g></svg>
