<svg id="svg" xmlns="http://www.w3.org/2000/svg" xmlns:xlink="http://www.w3.org/1999/xlink" width="400" height="398.4375" viewBox="0, 0, 400,398.4375" version="1.1"><g id="svgg"><path id="path0" d="M335.938 0.925 C 332.843 1.633,306.946 26.187,305.637 29.653 C 305.514 29.977,320.417 44.770,338.755 62.526 L 372.096 94.809 383.740 82.756 C 398.742 67.228,400.000 65.356,400.000 58.556 C 400.000 51.444,400.212 51.703,373.035 25.627 C 345.880 -0.428,344.848 -1.115,335.938 0.925 M19.141 18.014 C 14.682 19.319,8.248 23.841,5.309 27.734 C -0.455 35.371,-0.000 19.947,-0.000 207.532 L -0.000 376.504 1.690 381.020 C 3.979 387.138,10.421 393.593,16.803 396.162 L 21.484 398.047 190.234 398.047 L 358.984 398.047 363.666 396.162 C 370.048 393.593,376.490 387.138,378.779 381.020 L 380.469 376.504 380.469 294.502 L 380.469 212.500 358.984 212.500 L 337.500 212.500 337.500 282.301 C 337.500 348.930,337.435 352.160,336.071 353.395 C 333.737 355.507,46.175 355.373,44.262 353.259 C 42.034 350.797,42.299 63.951,44.531 61.719 C 46.071 60.179,47.135 60.156,118.359 60.156 L 190.625 60.156 190.625 38.672 L 190.625 17.188 106.055 17.258 C 59.541 17.297,20.430 17.637,19.141 18.014 M236.328 101.276 C 208.398 130.319,185.459 154.307,185.351 154.582 C 185.243 154.858,199.931 169.848,217.992 187.893 L 250.829 220.703 255.322 216.016 C 257.794 213.438,281.074 189.221,307.056 162.202 C 333.039 135.183,354.386 112.856,354.494 112.587 C 354.753 111.945,289.176 48.882,288.008 48.650 C 287.514 48.551,264.258 72.233,236.328 101.276 M159.035 183.789 C 150.737 213.001,138.436 263.354,138.088 269.531 C 137.803 274.613,137.327 274.702,173.047 262.998 C 190.664 257.226,209.648 251.046,215.234 249.265 C 220.820 247.484,225.900 245.850,226.524 245.634 C 227.773 245.201,162.837 179.688,161.158 179.688 C 160.631 179.688,159.676 181.533,159.035 183.789 " stroke="none" fill="#000000" fill-rule="evenodd"></path></g></svg>
