<svg id="svg" xmlns="http://www.w3.org/2000/svg" xmlns:xlink="http://www.w3.org/1999/xlink" width="400" height="400" viewBox="0, 0, 400,400" version="1.1"><g id="svgg"><path id="path0" d="M180.078 0.469 C 178.789 0.646,174.922 1.163,171.484 1.617 C 51.480 17.472,-26.381 139.257,7.863 257.545 C 27.548 325.544,85.454 379.698,155.469 395.587 C 188.983 403.192,231.504 401.021,264.059 390.042 C 366.250 355.578,422.408 247.020,392.137 142.455 C 371.242 70.274,308.987 15.345,233.203 2.221 C 224.240 0.669,187.439 -0.545,180.078 0.469 M228.516 32.753 C 340.565 52.256,402.299 173.603,351.880 275.239 C 300.359 379.095,161.969 401.854,80.058 319.942 C 14.132 254.017,13.961 146.543,79.677 80.411 C 118.228 41.615,174.998 23.438,228.516 32.753 M198.828 101.602 C 178.651 104.691,164.983 125.531,172.904 141.132 C 184.594 164.159,229.191 150.445,229.176 123.828 C 229.167 107.254,217.539 98.738,198.828 101.602 M221.094 173.653 C 215.222 175.035,210.946 175.256,184.180 175.562 L 153.906 175.908 153.906 182.485 L 153.906 189.063 162.500 189.063 L 171.094 189.063 171.094 235.938 L 171.094 282.813 162.500 282.813 L 153.906 282.813 153.906 291.016 L 153.906 299.219 200.000 299.219 L 246.094 299.219 246.094 291.016 L 246.094 282.813 237.891 282.813 L 229.688 282.813 229.688 227.344 C 229.688 183.432,229.484 171.897,228.711 171.983 C 228.174 172.042,224.746 172.794,221.094 173.653 " stroke="none" fill="#000000" fill-rule="evenodd"></path></g></svg>
