<svg id="svg" version="1.1" xmlns="http://www.w3.org/2000/svg" xmlns:xlink="http://www.w3.org/1999/xlink" width="400" height="400" viewBox="0, 0, 400,400"><g id="svgg"><path id="path0" d="M3.125 200.000 L 3.125 363.281 200.391 363.281 L 397.656 363.281 397.656 200.000 L 397.656 36.719 200.391 36.719 L 3.125 36.719 3.125 200.000 M372.656 200.000 L 372.656 337.500 200.391 337.500 L 28.125 337.500 28.125 200.000 L 28.125 62.500 200.391 62.500 L 372.656 62.500 372.656 200.000 M303.991 87.564 C 284.058 91.478,270.130 113.863,275.371 133.558 C 286.853 176.702,347.596 169.542,347.977 125.000 C 348.187 100.408,327.639 82.919,303.991 87.564 M124.972 116.080 C 124.128 118.050,123.439 119.895,123.440 120.182 C 123.441 120.469,122.247 123.867,120.787 127.734 C 114.847 143.463,107.852 162.319,106.733 165.625 C 106.078 167.559,103.723 173.887,101.500 179.688 C 99.278 185.488,96.450 193.223,95.215 196.875 C 93.981 200.527,92.115 205.625,91.069 208.203 C 90.022 210.781,87.708 216.934,85.927 221.875 C 82.188 232.243,79.973 238.314,78.516 242.188 C 77.950 243.691,76.779 246.855,75.914 249.219 C 75.048 251.582,72.058 259.668,69.269 267.188 C 66.479 274.707,63.281 283.496,62.161 286.719 C 61.041 289.941,59.805 293.281,59.413 294.141 C 57.804 297.674,53.125 311.057,53.125 312.128 C 53.125 313.141,71.095 313.281,200.781 313.281 C 281.992 313.281,348.438 313.065,348.438 312.800 C 348.437 312.536,346.904 309.987,345.031 307.136 C 343.157 304.286,335.150 292.109,327.238 280.078 C 305.910 247.647,295.800 232.198,294.902 230.665 C 293.912 228.976,275.015 200.536,274.619 200.140 C 274.349 199.870,248.968 218.934,230.099 233.578 L 225.134 237.431 223.949 235.622 C 223.297 234.627,222.286 233.324,221.702 232.727 C 221.119 232.129,218.478 228.828,215.834 225.391 C 213.190 221.953,208.634 216.121,205.709 212.431 C 194.985 198.901,188.465 190.595,179.332 178.829 C 174.195 172.211,169.625 166.401,169.176 165.917 C 168.727 165.433,165.547 161.424,162.109 157.008 C 149.878 141.296,136.744 124.592,135.713 123.438 C 135.138 122.793,132.968 120.068,130.890 117.383 C 126.385 111.559,126.865 111.665,124.972 116.080 " stroke="none" fill="#000000" fill-rule="evenodd"></path></g></svg>
