<svg id="svg" version="1.1" xmlns="http://www.w3.org/2000/svg" xmlns:xlink="http://www.w3.org/1999/xlink" width="400" height="400" viewBox="0, 0, 400,400"><g id="svgg"><path id="path0" d="M60.766 33.917 C 47.464 38.590,33.594 53.099,33.594 62.341 C 33.594 63.237,33.242 64.188,32.813 64.453 C 31.789 65.086,31.789 80.227,32.813 80.859 C 33.242 81.125,33.594 82.076,33.594 82.972 C 33.594 90.316,45.040 104.344,54.818 108.984 C 85.859 123.715,119.534 97.411,112.549 63.891 C 107.859 41.385,82.043 26.442,60.766 33.917 M159.127 33.354 C 152.075 37.060,152.238 48.263,159.398 51.965 C 162.821 53.735,358.298 53.715,361.991 51.945 C 368.724 48.716,369.898 40.950,364.474 35.526 L 360.979 32.031 261.153 32.114 C 174.615 32.186,161.035 32.351,159.127 33.354 M158.827 85.901 C 152.125 90.001,152.402 100.691,159.302 104.259 C 162.796 106.066,358.225 106.103,361.717 104.298 C 368.480 100.800,369.884 93.766,364.933 88.186 L 361.898 84.766 261.613 84.568 C 163.228 84.375,161.281 84.400,158.827 85.901 M160.407 137.934 C 151.867 141.674,151.753 153.076,160.211 157.450 C 163.590 159.198,358.336 159.171,361.717 157.423 C 370.030 153.124,369.909 142.067,361.507 138.253 C 357.121 136.262,164.921 135.957,160.407 137.934 M62.518 160.579 C 48.823 164.414,33.594 179.738,33.594 189.684 C 33.594 190.581,33.242 191.531,32.813 191.797 C 32.377 192.066,32.031 195.696,32.031 200.000 C 32.031 204.304,32.377 207.934,32.813 208.203 C 33.242 208.469,33.594 209.419,33.594 210.316 C 33.594 213.920,39.074 223.362,44.059 228.347 C 70.000 254.288,113.281 236.112,113.281 199.276 C 113.281 173.365,87.378 153.619,62.518 160.579 M161.180 189.608 C 154.121 190.979,151.594 201.594,157.031 207.031 L 160.156 210.156 260.622 210.156 L 361.087 210.156 363.368 208.532 C 370.226 203.649,369.046 193.409,361.250 190.151 C 358.764 189.113,166.418 188.590,161.180 189.608 M159.586 242.565 C 154.395 244.821,152.294 252.424,155.437 257.579 C 158.666 262.875,151.113 262.539,261.786 262.313 L 361.898 262.109 364.933 258.689 C 369.884 253.109,368.480 246.075,361.717 242.577 C 358.417 240.871,163.510 240.859,159.586 242.565 M65.719 287.122 C 27.682 294.010,19.995 346.336,54.524 363.335 C 62.616 367.319,78.309 369.660,80.725 367.243 C 81.186 366.783,82.246 366.406,83.082 366.406 C 85.974 366.406,95.981 360.925,100.305 356.973 C 109.393 348.668,112.891 340.324,112.891 326.953 C 112.891 317.832,112.617 316.359,109.686 309.672 C 105.817 300.848,95.725 291.955,85.547 288.402 C 83.571 287.712,72.472 285.790,71.725 286.008 C 71.593 286.047,68.890 286.548,65.719 287.122 M158.377 296.200 C 151.932 301.007,152.676 311.037,159.725 314.382 C 162.151 315.533,171.506 315.629,262.146 315.441 L 361.898 315.234 364.933 311.814 C 369.631 306.520,368.436 298.773,362.445 295.675 C 358.324 293.544,161.258 294.051,158.377 296.200 M161.182 346.955 C 153.519 349.172,151.492 358.564,157.401 364.474 L 160.896 367.969 260.917 367.969 C 327.076 367.969,360.938 367.704,360.938 367.188 C 360.938 366.758,361.439 366.406,362.052 366.406 C 362.666 366.406,364.248 365.096,365.568 363.494 C 370.128 357.962,368.223 350.678,361.405 347.582 C 357.828 345.958,166.699 345.359,161.182 346.955 " stroke="none" fill="#000000" fill-rule="evenodd"></path></g></svg>
