<svg id="svg" xmlns="http://www.w3.org/2000/svg" xmlns:xlink="http://www.w3.org/1999/xlink" width="400" height="400" viewBox="0, 0, 400,400" version="1.1"><g id="svgg"><path id="path0" d="M94.885 3.784 C 90.712 6.087,90.800 5.542,90.800 29.203 L 90.800 49.884 92.976 51.942 L 95.152 54.000 145.592 54.000 C 201.019 54.000,197.543 54.145,199.652 51.743 C 201.619 49.502,201.600 49.718,201.600 29.029 L 201.600 9.618 200.558 7.509 C 199.842 6.060,198.980 5.056,197.806 4.300 L 196.096 3.200 145.948 3.239 C 106.366 3.270,95.607 3.385,94.885 3.784 M296.200 221.600 C 296.064 221.820,294.289 222.000,292.256 222.000 C 290.223 222.000,288.389 222.163,288.180 222.363 C 287.971 222.563,286.900 222.821,285.800 222.937 C 282.108 223.326,277.693 224.327,277.370 224.848 C 277.251 225.041,276.621 225.200,275.971 225.200 C 275.321 225.200,274.477 225.362,274.095 225.561 C 273.713 225.760,272.590 226.161,271.600 226.452 C 270.610 226.744,268.946 227.391,267.902 227.891 C 266.858 228.391,265.820 228.800,265.595 228.800 C 264.246 228.800,254.528 234.393,249.316 238.169 C 244.077 241.964,230.000 256.039,230.000 257.482 C 230.000 257.699,229.640 258.202,229.200 258.600 C 228.760 258.998,228.400 259.538,228.400 259.800 C 228.400 260.062,228.040 260.602,227.600 261.000 C 227.160 261.398,226.800 261.927,226.800 262.175 C 226.800 262.424,226.162 263.611,225.382 264.813 C 223.939 267.038,220.400 274.137,220.400 274.807 C 220.400 275.010,220.040 275.817,219.600 276.600 C 219.160 277.383,218.800 278.291,218.800 278.618 C 218.800 278.944,218.626 279.523,218.413 279.905 C 217.922 280.785,216.804 284.141,216.349 286.100 C 216.157 286.925,215.806 288.365,215.570 289.300 C 213.174 298.761,212.802 315.438,214.772 325.100 C 215.007 326.255,215.356 328.055,215.548 329.100 C 215.739 330.145,216.203 331.990,216.579 333.200 C 216.955 334.410,217.465 336.120,217.713 337.000 C 217.960 337.880,218.486 339.190,218.881 339.912 C 219.277 340.634,219.600 341.446,219.600 341.718 C 219.600 342.312,225.414 353.913,226.149 354.786 C 226.433 355.124,226.954 356.033,227.307 356.806 C 227.660 357.579,228.410 358.646,228.974 359.176 C 229.538 359.706,230.000 360.309,230.000 360.517 C 230.000 360.890,230.557 361.617,234.284 366.110 C 237.880 370.446,240.199 372.915,241.323 373.608 C 241.941 373.988,243.349 375.087,244.454 376.050 C 250.990 381.748,252.139 382.503,261.697 387.388 C 267.513 390.360,269.064 391.029,273.000 392.261 C 274.100 392.605,275.360 393.034,275.800 393.213 C 276.240 393.393,277.140 393.651,277.800 393.788 C 278.460 393.924,279.720 394.222,280.600 394.450 C 281.480 394.679,282.920 394.959,283.800 395.074 C 284.680 395.188,285.571 395.444,285.780 395.641 C 285.989 395.838,287.463 396.000,289.056 396.000 C 290.649 396.000,292.064 396.180,292.200 396.400 C 292.535 396.941,309.865 396.941,310.200 396.400 C 310.336 396.180,311.751 396.000,313.344 396.000 C 314.937 396.000,316.411 395.838,316.620 395.641 C 316.829 395.444,317.720 395.180,318.600 395.056 C 321.989 394.578,323.215 394.299,323.427 393.956 C 323.548 393.760,324.179 393.600,324.829 393.600 C 325.479 393.600,326.323 393.441,326.705 393.246 C 327.087 393.051,328.660 392.506,330.200 392.034 C 336.099 390.227,344.638 385.980,350.608 381.884 C 355.103 378.801,355.894 378.183,357.899 376.202 C 358.945 375.169,360.250 374.089,360.800 373.803 C 362.093 373.130,365.345 369.554,371.216 362.347 C 371.867 361.548,372.400 360.725,372.400 360.517 C 372.400 360.309,372.862 359.706,373.426 359.176 C 373.990 358.646,374.740 357.579,375.093 356.806 C 375.446 356.033,375.965 355.125,376.248 354.790 C 377.070 353.814,382.800 342.170,382.800 341.476 C 382.800 341.130,382.980 340.736,383.200 340.600 C 383.420 340.464,383.600 340.008,383.600 339.586 C 383.600 339.164,383.959 338.230,384.399 337.510 C 384.838 336.789,385.200 335.840,385.204 335.400 C 385.208 334.960,385.506 333.790,385.866 332.800 C 386.225 331.810,386.678 330.100,386.873 329.000 C 387.067 327.900,387.413 326.100,387.642 325.000 C 389.578 315.711,389.190 298.616,386.830 289.300 C 386.594 288.365,386.243 286.925,386.051 286.100 C 385.596 284.141,384.478 280.785,383.987 279.905 C 383.774 279.523,383.600 278.943,383.600 278.615 C 383.600 278.287,383.241 277.430,382.801 276.710 C 382.362 275.989,382.002 275.158,382.001 274.862 C 382.000 274.209,377.750 265.643,377.010 264.800 C 376.720 264.470,376.149 263.550,375.742 262.756 C 374.976 261.265,373.714 259.379,371.623 256.600 C 370.961 255.720,369.988 254.370,369.460 253.600 C 367.724 251.068,357.824 241.755,352.987 238.104 C 348.144 234.448,341.493 230.681,336.200 228.596 C 334.660 227.989,333.220 227.369,333.000 227.218 C 332.780 227.067,331.790 226.714,330.800 226.433 C 329.810 226.152,328.687 225.760,328.305 225.561 C 327.923 225.362,327.259 225.200,326.829 225.200 C 326.399 225.200,325.948 225.040,325.827 224.844 C 325.706 224.649,325.021 224.386,324.304 224.261 C 323.587 224.136,322.010 223.834,320.800 223.590 C 319.590 223.347,317.700 223.053,316.600 222.937 C 315.500 222.821,314.429 222.563,314.220 222.363 C 314.011 222.163,312.177 222.000,310.144 222.000 C 308.111 222.000,306.336 221.820,306.200 221.600 C 306.058 221.370,303.937 221.200,301.200 221.200 C 298.463 221.200,296.342 221.370,296.200 221.600 M275.656 265.098 C 276.567 265.922,277.740 267.272,278.262 268.098 C 278.783 268.924,279.437 269.600,279.715 269.600 C 280.326 269.600,285.725 275.035,286.369 276.300 C 286.622 276.795,287.052 277.200,287.325 277.200 C 287.933 277.200,292.998 282.334,293.326 283.283 C 293.456 283.659,294.245 284.405,295.081 284.942 C 295.916 285.478,297.402 286.746,298.383 287.759 C 301.280 290.750,300.543 291.239,315.206 276.600 C 322.368 269.450,328.492 263.600,328.814 263.600 C 329.588 263.601,346.800 280.459,346.800 281.217 C 346.800 281.540,340.860 287.743,333.600 295.000 C 319.011 309.584,319.463 308.923,322.237 311.617 C 323.247 312.598,324.234 313.808,324.430 314.307 C 324.625 314.806,325.194 315.376,325.693 315.573 C 326.748 315.991,332.495 321.776,333.170 323.100 C 333.422 323.595,333.852 324.000,334.125 324.000 C 334.741 324.000,339.799 329.139,340.135 330.106 C 340.269 330.494,340.789 330.973,341.290 331.170 C 342.362 331.591,345.690 334.976,346.408 336.375 C 346.890 337.315,346.583 337.668,337.969 346.075 C 333.052 350.874,328.931 354.800,328.812 354.800 C 328.693 354.800,322.657 348.860,315.400 341.600 C 305.077 331.274,301.986 328.400,301.200 328.400 C 300.414 328.400,297.323 331.274,287.000 341.600 C 279.743 348.860,273.707 354.800,273.588 354.800 C 273.469 354.800,269.350 350.875,264.435 346.078 L 255.498 337.357 256.123 336.178 C 256.466 335.530,262.429 329.331,269.374 322.402 C 277.583 314.212,282.000 309.523,282.000 309.000 C 282.000 308.477,277.386 303.583,268.800 295.000 C 261.540 287.743,255.600 281.534,255.600 281.204 C 255.600 280.403,272.406 263.749,273.299 263.665 C 273.683 263.629,274.744 264.274,275.656 265.098 " stroke="none" fill="#047cbc" fill-rule="evenodd"></path><path id="path1" d="M38.600 26.262 C 32.410 27.569,28.481 29.138,24.353 31.950 C 20.508 34.569,15.183 41.102,13.739 44.970 C 13.405 45.867,12.851 47.320,12.508 48.200 C 12.165 49.080,11.690 50.790,11.452 52.000 C 10.801 55.314,10.826 349.323,11.477 352.600 C 12.443 357.456,12.705 358.267,14.388 361.600 C 18.057 368.869,27.277 377.200,31.653 377.200 C 32.038 377.200,32.464 377.380,32.600 377.600 C 32.736 377.820,33.276 378.000,33.800 378.000 C 34.324 378.000,34.864 378.180,35.000 378.400 C 35.136 378.620,36.576 378.800,38.200 378.800 C 39.824 378.800,41.264 378.980,41.400 379.200 C 41.787 379.826,232.493 379.747,233.120 379.120 C 234.221 378.019,233.672 376.241,231.600 374.200 C 230.500 373.117,229.600 372.032,229.600 371.790 C 229.600 371.548,229.060 370.832,228.400 370.200 C 227.740 369.568,227.200 368.848,227.200 368.600 C 227.200 368.352,226.660 367.632,226.000 367.000 C 225.340 366.368,224.800 365.636,224.800 365.374 C 224.800 365.112,224.519 364.665,224.175 364.379 C 223.579 363.885,221.891 361.416,220.088 358.400 C 219.334 357.139,214.952 348.418,211.948 342.200 C 211.310 340.880,210.791 339.496,210.794 339.124 C 210.797 338.752,210.620 338.336,210.400 338.200 C 210.180 338.064,210.000 337.498,210.000 336.943 C 210.000 336.388,209.633 334.496,209.184 332.739 C 208.031 328.221,207.574 325.836,207.209 322.420 C 206.957 320.058,206.706 319.292,206.001 318.720 C 205.151 318.032,201.551 318.000,124.656 317.999 C 44.949 317.997,44.188 317.990,42.890 317.198 C 40.527 315.757,40.132 312.960,42.003 310.904 L 43.182 309.608 123.826 309.504 L 204.469 309.400 205.435 308.278 C 206.333 307.233,206.400 306.840,206.400 302.583 C 206.400 300.069,206.571 297.244,206.780 296.306 C 206.990 295.368,207.369 293.340,207.623 291.800 C 208.237 288.085,209.960 280.778,210.428 279.905 C 210.632 279.523,210.800 278.944,210.800 278.618 C 210.800 278.291,211.145 277.410,211.567 276.659 C 211.989 275.908,212.394 274.867,212.467 274.347 C 212.540 273.826,212.717 273.310,212.860 273.200 C 213.004 273.090,214.441 270.390,216.054 267.200 C 219.788 259.818,223.677 253.883,227.700 249.427 C 229.627 247.293,230.081 245.780,229.208 244.400 C 228.874 243.870,217.877 243.776,135.515 243.596 C 84.192 243.483,42.155 243.348,42.100 243.296 C 42.045 243.243,42.000 242.952,42.000 242.649 C 42.000 242.346,41.730 241.874,41.400 241.600 C 40.047 240.477,40.918 237.204,42.890 236.002 C 44.190 235.209,44.959 235.203,142.839 235.201 C 250.319 235.200,242.577 235.366,244.790 233.010 C 245.312 232.455,245.950 232.000,246.208 232.000 C 246.465 232.000,247.002 231.640,247.400 231.200 C 247.798 230.760,248.338 230.400,248.600 230.400 C 248.862 230.400,249.402 230.040,249.800 229.600 C 250.198 229.160,250.744 228.800,251.013 228.800 C 251.282 228.800,251.734 228.521,252.016 228.180 C 252.299 227.839,253.300 227.210,254.241 226.781 C 255.182 226.353,256.057 225.832,256.186 225.623 C 256.437 225.217,263.045 222.000,263.629 222.000 C 263.821 222.000,264.748 221.659,265.689 221.243 C 266.630 220.826,268.390 220.085,269.600 219.597 C 270.810 219.108,272.113 218.549,272.495 218.354 C 272.877 218.159,273.541 218.000,273.971 218.000 C 274.401 218.000,274.864 217.820,275.000 217.600 C 275.136 217.380,275.822 217.187,276.524 217.171 C 277.226 217.155,278.340 216.825,279.000 216.438 L 280.200 215.735 280.301 133.410 C 280.372 75.513,280.275 50.932,279.975 50.570 C 279.740 50.287,279.532 49.497,279.513 48.813 C 279.493 48.130,279.325 47.477,279.139 47.362 C 278.952 47.247,278.800 46.803,278.800 46.376 C 278.800 45.949,278.658 45.600,278.485 45.600 C 278.312 45.600,278.141 45.217,278.106 44.748 C 278.071 44.280,277.681 43.512,277.240 43.043 C 276.799 42.573,276.175 41.562,275.854 40.795 C 275.533 40.028,274.804 38.964,274.235 38.430 C 273.666 37.897,273.200 37.247,273.200 36.985 C 273.200 36.529,270.706 34.157,267.918 31.962 C 266.213 30.618,261.358 28.309,257.800 27.149 C 254.562 26.094,212.434 25.407,211.445 26.394 C 211.141 26.698,210.935 31.791,210.795 42.519 C 210.574 59.473,210.583 59.408,208.310 61.465 C 206.361 63.230,207.451 63.200,144.598 63.200 L 84.515 63.200 82.690 61.807 C 79.526 59.391,79.600 59.848,79.600 42.739 C 79.600 28.133,79.572 27.572,78.800 26.800 C 78.046 26.046,41.914 25.562,38.600 26.262 M247.305 88.100 C 250.497 89.884,251.238 93.657,248.700 95.204 C 246.923 96.288,44.486 96.479,42.398 95.399 C 40.123 94.222,40.344 90.143,42.772 88.507 L 44.118 87.600 145.265 87.600 C 225.438 87.600,246.596 87.704,247.305 88.100 M244.200 161.200 C 244.336 161.420,244.956 161.600,245.578 161.600 C 249.752 161.600,251.493 166.090,248.421 168.933 L 246.842 170.394 145.845 170.398 C 78.683 170.402,44.766 170.269,44.601 170.002 C 44.464 169.781,43.911 169.600,43.371 169.600 C 41.461 169.600,39.709 164.394,41.400 163.745 C 41.730 163.618,42.000 163.329,42.000 163.101 C 42.000 161.593,39.754 161.626,143.076 161.613 C 209.082 161.604,242.836 161.465,243.000 161.200 C 243.136 160.980,243.406 160.800,243.600 160.800 C 243.794 160.800,244.064 160.980,244.200 161.200 M262.185 274.100 L 260.200 276.200 262.300 274.215 C 263.455 273.123,264.400 272.178,264.400 272.115 C 264.400 271.817,264.029 272.149,262.185 274.100 M340.400 274.600 C 341.146 275.370,341.847 276.000,341.957 276.000 C 342.067 276.000,341.546 275.370,340.800 274.600 C 340.054 273.830,339.353 273.200,339.243 273.200 C 339.133 273.200,339.654 273.830,340.400 274.600 M343.800 278.000 C 344.659 278.880,345.452 279.600,345.562 279.600 C 345.672 279.600,345.059 278.880,344.200 278.000 C 343.341 277.120,342.548 276.400,342.438 276.400 C 342.328 276.400,342.941 277.120,343.800 278.000 M257.978 278.300 L 256.600 279.800 258.100 278.422 C 259.496 277.138,259.784 276.800,259.478 276.800 C 259.412 276.800,258.737 277.475,257.978 278.300 M255.600 337.048 C 255.600 337.258,256.545 338.323,257.700 339.415 L 259.800 341.400 257.800 339.208 C 256.700 338.003,255.755 336.938,255.700 336.842 C 255.645 336.745,255.600 336.838,255.600 337.048 M344.417 339.385 L 342.233 341.800 344.598 339.514 C 345.898 338.257,346.881 337.171,346.781 337.100 C 346.682 337.029,345.617 338.057,344.417 339.385 M262.800 344.600 C 263.995 345.810,265.063 346.800,265.173 346.800 C 265.283 346.800,264.395 345.810,263.200 344.600 C 262.005 343.390,260.937 342.400,260.827 342.400 C 260.717 342.400,261.605 343.390,262.800 344.600 M339.186 344.700 L 337.000 347.000 339.300 344.814 C 341.437 342.782,341.783 342.400,341.486 342.400 C 341.424 342.400,340.389 343.435,339.186 344.700 " stroke="none" fill="#343434" fill-rule="evenodd"></path></g></svg>
