<svg id="svg" version="1.1" xmlns="http://www.w3.org/2000/svg" xmlns:xlink="http://www.w3.org/1999/xlink" width="400" height="400" viewBox="0, 0, 400,400"><g id="svgg"><path id="path0" d="M172.266 9.814 C 41.394 29.712,-30.721 170.217,29.431 288.102 C 80.938 389.042,210.476 422.898,305.771 360.326 C 337.719 339.349,361.078 310.911,378.105 272.266 C 395.147 233.588,396.267 174.449,380.718 134.375 C 354.200 66.030,297.509 20.015,227.243 9.801 C 216.549 8.246,182.524 8.254,172.266 9.814 M230.078 29.576 C 275.338 38.274,311.524 60.706,339.100 97.159 C 373.121 142.135,382.299 207.064,362.139 260.156 C 313.194 389.056,144.229 412.998,60.900 302.841 C 16.261 243.829,16.220 155.992,60.805 97.266 C 91.187 57.247,129.607 35.168,181.641 27.823 C 188.909 26.797,221.813 27.988,230.078 29.576 M149.219 202.734 L 149.219 285.938 158.594 285.938 L 167.969 285.938 167.969 202.734 L 167.969 119.531 158.594 119.531 L 149.219 119.531 149.219 202.734 M238.044 120.029 C 237.745 120.328,237.500 157.780,237.500 203.255 L 237.500 285.938 247.269 285.938 L 257.038 285.938 256.839 202.930 L 256.641 119.922 247.615 119.703 C 242.650 119.583,238.344 119.729,238.044 120.029 " stroke="none" fill="#000000" fill-rule="evenodd"></path></g></svg>
