<svg id="svg" version="1.1" xmlns="http://www.w3.org/2000/svg" xmlns:xlink="http://www.w3.org/1999/xlink" width="400" height="400" viewBox="0, 0, 400,400"><g id="svgg"><path id="path0" d="M8.680 49.528 C 3.444 52.430,3.616 60.693,8.963 63.129 C 10.486 63.823,24.420 64.063,63.281 64.063 C 102.143 64.063,116.077 63.823,117.600 63.129 C 123.049 60.646,123.049 51.854,117.600 49.371 C 114.468 47.944,11.269 48.093,8.680 49.528 M8.680 90.153 C 3.444 93.055,3.616 101.318,8.963 103.754 C 11.903 105.094,114.660 105.094,117.600 103.754 C 123.049 101.271,123.049 92.479,117.600 89.996 C 114.468 88.569,11.269 88.718,8.680 90.153 M8.680 132.340 C 3.444 135.242,3.616 143.505,8.963 145.942 C 11.903 147.281,114.660 147.281,117.600 145.942 C 123.049 143.459,123.049 134.666,117.600 132.183 C 114.468 130.757,11.269 130.905,8.680 132.340 M283.680 132.340 C 278.444 135.242,278.616 143.505,283.963 145.942 C 286.903 147.281,389.660 147.281,392.600 145.942 C 394.839 144.921,396.875 141.645,396.875 139.063 C 396.875 136.480,394.839 133.204,392.600 132.183 C 389.468 130.757,286.269 130.905,283.680 132.340 M8.680 172.965 C 3.444 175.867,3.616 184.130,8.963 186.567 C 11.903 187.906,114.660 187.906,117.600 186.567 C 123.049 184.084,123.049 175.291,117.600 172.808 C 114.468 171.382,11.269 171.530,8.680 172.965 M283.680 172.965 C 278.444 175.867,278.616 184.130,283.963 186.567 C 286.903 187.906,389.660 187.906,392.600 186.567 C 394.839 185.546,396.875 182.270,396.875 179.688 C 396.875 177.105,394.839 173.829,392.600 172.808 C 389.468 171.382,286.269 171.530,283.680 172.965 M8.680 215.153 C 3.444 218.055,3.616 226.318,8.963 228.754 C 10.486 229.448,24.420 229.688,63.281 229.688 C 102.143 229.688,116.077 229.448,117.600 228.754 C 123.049 226.271,123.049 217.479,117.600 214.996 C 114.468 213.569,11.269 213.718,8.680 215.153 M146.180 215.153 C 140.944 218.055,141.116 226.318,146.463 228.754 C 147.986 229.448,161.920 229.688,200.781 229.688 C 256.859 229.688,256.158 229.737,258.262 225.668 C 260.353 221.624,258.903 216.729,255.100 214.996 C 251.968 213.569,148.769 213.718,146.180 215.153 M283.680 215.153 C 278.444 218.055,278.616 226.318,283.963 228.754 C 285.486 229.448,299.420 229.688,338.281 229.688 C 394.359 229.688,393.658 229.737,395.762 225.668 C 397.853 221.624,396.403 216.729,392.600 214.996 C 389.468 213.569,286.269 213.718,283.680 215.153 M8.680 255.778 C 3.444 258.680,3.616 266.943,8.963 269.379 C 10.486 270.073,24.420 270.313,63.281 270.313 C 102.143 270.313,116.077 270.073,117.600 269.379 C 123.049 266.896,123.049 258.104,117.600 255.621 C 114.468 254.194,11.269 254.343,8.680 255.778 M146.180 255.778 C 140.944 258.680,141.116 266.943,146.463 269.379 C 147.986 270.073,161.920 270.313,200.781 270.313 C 256.859 270.313,256.158 270.362,258.262 266.293 C 260.353 262.249,258.903 257.354,255.100 255.621 C 251.968 254.194,148.769 254.343,146.180 255.778 M283.680 255.778 C 278.444 258.680,278.616 266.943,283.963 269.379 C 285.486 270.073,299.420 270.313,338.281 270.313 C 394.359 270.313,393.658 270.362,395.762 266.293 C 397.853 262.249,396.403 257.354,392.600 255.621 C 389.468 254.194,286.269 254.343,283.680 255.778 M283.680 297.184 C 278.444 300.086,278.616 308.349,283.963 310.785 C 285.486 311.479,299.420 311.719,338.281 311.719 C 394.359 311.719,393.658 311.768,395.762 307.699 C 397.853 303.655,396.403 298.760,392.600 297.027 C 389.468 295.600,286.269 295.749,283.680 297.184 M8.680 297.965 C 3.444 300.867,3.616 309.130,8.963 311.567 C 10.486 312.261,24.420 312.500,63.281 312.500 C 102.143 312.500,116.077 312.261,117.600 311.567 C 123.049 309.084,123.049 300.291,117.600 297.808 C 114.468 296.382,11.269 296.530,8.680 297.965 M146.180 297.965 C 140.944 300.867,141.116 309.130,146.463 311.567 C 147.986 312.261,161.920 312.500,200.781 312.500 C 256.859 312.500,256.158 312.549,258.262 308.480 C 260.353 304.436,258.903 299.541,255.100 297.808 C 251.968 296.382,148.769 296.530,146.180 297.965 M283.680 337.809 C 278.444 340.711,278.616 348.974,283.963 351.410 C 285.486 352.104,299.420 352.344,338.281 352.344 C 394.359 352.344,393.658 352.393,395.762 348.324 C 397.853 344.280,396.403 339.385,392.600 337.652 C 389.468 336.225,286.269 336.374,283.680 337.809 M8.680 338.590 C 3.444 341.492,3.616 349.755,8.963 352.192 C 10.486 352.886,24.420 353.125,63.281 353.125 C 102.143 353.125,116.077 352.886,117.600 352.192 C 123.049 349.709,123.049 340.916,117.600 338.433 C 114.468 337.007,11.269 337.155,8.680 338.590 M146.180 338.590 C 140.944 341.492,141.116 349.755,146.463 352.192 C 147.986 352.886,161.920 353.125,200.781 353.125 C 256.859 353.125,256.158 353.174,258.262 349.105 C 260.353 345.061,258.903 340.166,255.100 338.433 C 251.968 337.007,148.769 337.155,146.180 338.590 " stroke="none" fill="#000000" fill-rule="evenodd"></path></g></svg>
