<svg id="svg" version="1.1" xmlns="http://www.w3.org/2000/svg" xmlns:xlink="http://www.w3.org/1999/xlink" width="400" height="400" viewBox="0, 0, 400,400"><g id="svgg"><path id="path0" d="M34.296 1.131 C 17.721 5.702,4.297 19.664,0.828 35.938 C 0.143 39.156,-0.027 75.137,0.152 179.297 L 0.391 318.359 2.139 322.994 C 7.251 336.540,17.366 346.656,30.912 351.767 L 35.547 353.516 116.211 353.729 C 160.576 353.846,196.875 353.843,196.875 353.723 C 196.875 353.602,195.804 350.356,194.496 346.509 C 193.188 342.662,191.369 335.722,190.454 331.086 L 188.791 322.656 116.075 322.639 C 31.553 322.619,36.681 323.204,32.459 313.100 C 30.418 308.216,30.677 44.676,32.727 40.234 C 34.472 36.452,36.945 34.072,40.806 32.459 C 45.729 30.402,324.837 30.678,329.388 32.745 C 338.569 36.914,338.272 34.036,338.277 118.853 L 338.281 192.003 344.746 194.019 C 348.302 195.128,355.178 197.981,360.026 200.361 C 364.875 202.741,368.997 204.688,369.186 204.688 C 369.983 204.688,369.506 41.553,368.696 37.058 C 365.743 20.660,351.314 5.392,334.797 1.186 C 328.413 -0.440,40.183 -0.493,34.296 1.131 M70.696 78.020 C 63.060 81.489,61.328 85.552,61.328 100.000 C 61.328 119.637,65.055 123.389,84.595 123.420 C 104.261 123.452,107.765 119.940,107.795 100.170 C 107.818 85.468,106.183 81.434,98.828 78.039 C 94.297 75.948,75.285 75.935,70.696 78.020 M148.828 78.286 C 140.480 81.205,138.276 85.924,138.298 100.833 C 138.321 115.645,140.098 119.776,147.837 123.010 C 152.220 124.841,293.874 124.841,298.257 123.010 C 306.089 119.737,307.817 115.752,307.795 101.008 C 307.772 85.523,305.695 81.160,296.954 78.233 C 293.373 77.034,152.265 77.085,148.828 78.286 M69.538 156.411 C 58.989 161.798,56.977 189.013,66.523 197.184 C 76.087 205.371,100.866 202.728,106.039 192.969 C 110.992 183.624,107.858 161.726,100.883 156.941 C 96.706 154.075,74.836 153.705,69.538 156.411 M147.266 155.907 C 139.712 159.848,138.281 163.355,138.281 177.925 C 138.281 191.933,139.327 194.879,145.702 198.828 L 149.485 201.172 200.748 201.394 L 252.011 201.615 257.353 199.193 C 272.304 192.414,289.348 188.281,302.353 188.281 L 307.922 188.281 307.672 176.367 C 307.392 163.036,306.641 160.889,300.880 156.941 L 298.162 155.078 223.886 154.881 C 157.753 154.706,149.352 154.818,147.266 155.907 M294.531 218.829 C 233.633 228.433,199.926 294.223,227.961 348.761 C 268.708 428.028,387.387 405.197,396.891 316.264 C 402.997 259.132,351.258 209.883,294.531 218.829 M70.696 232.707 C 62.952 236.225,61.328 240.170,61.328 255.469 C 61.328 274.291,64.459 277.574,82.813 277.993 C 104.142 278.479,107.825 275.077,107.795 254.914 C 107.765 234.645,104.342 231.246,83.984 231.272 C 75.848 231.282,73.205 231.567,70.696 232.707 M148.973 232.044 C 140.765 234.508,138.316 239.712,138.316 254.688 C 138.316 276.614,140.447 278.125,171.367 278.125 L 192.002 278.125 192.925 274.414 C 195.539 263.901,203.455 247.729,211.042 237.404 C 213.133 234.559,214.844 232.010,214.844 231.740 C 214.844 230.995,151.493 231.288,148.973 232.044 M322.656 277.344 L 322.656 292.969 337.891 292.969 L 353.125 292.969 353.125 307.813 L 353.125 322.656 337.891 322.656 L 322.656 322.656 322.656 337.891 L 322.656 353.125 307.813 353.125 L 292.969 353.125 292.969 337.891 L 292.969 322.656 277.344 322.656 L 261.719 322.656 261.719 307.813 L 261.719 292.969 277.344 292.969 L 292.969 292.969 292.969 277.344 L 292.969 261.719 307.813 261.719 L 322.656 261.719 322.656 277.344 " stroke="none" fill="#000000" fill-rule="evenodd"></path></g></svg>
