<svg id="svg" version="1.1" xmlns="http://www.w3.org/2000/svg" xmlns:xlink="http://www.w3.org/1999/xlink" width="400" height="400" viewBox="0, 0, 400,400"><g id="svgg"><path id="path0" d="M101.563 25.489 C 21.208 35.663,-15.662 130.321,37.251 190.594 C 98.120 259.927,212.056 217.174,212.056 125.000 C 212.056 65.542,159.445 18.160,101.563 25.489 M130.583 52.231 C 187.370 67.152,206.499 136.449,165.224 177.724 C 117.901 225.047,37.965 191.930,37.965 125.000 C 37.965 86.541,62.858 58.071,103.125 50.476 C 107.706 49.612,124.764 50.702,130.583 52.231 M76.619 77.058 C 74.076 80.292,74.076 169.708,76.619 172.942 C 79.215 176.242,79.651 176.042,120.232 152.936 C 161.173 129.626,162.500 128.753,162.500 125.122 C 162.500 121.295,161.101 120.365,120.636 97.302 C 79.697 73.968,79.222 73.750,76.619 77.058 M226.939 88.867 C 241.481 125.439,228.591 177.498,197.113 209.331 L 187.500 219.052 187.500 257.242 L 187.500 295.433 185.216 297.716 L 182.933 300.000 131.354 300.000 L 79.775 300.000 77.583 298.115 L 75.391 296.231 75.000 267.573 L 74.609 238.915 68.359 236.379 C 59.130 232.636,53.235 229.485,44.933 223.855 L 37.500 218.816 37.500 280.338 C 37.500 333.060,37.671 342.516,38.696 346.452 C 42.206 359.926,52.619 370.306,66.167 373.835 C 72.922 375.594,352.078 375.594,358.833 373.835 C 372.381 370.306,382.794 359.926,386.304 346.452 C 388.113 339.505,388.113 122.995,386.304 116.048 C 382.794 102.574,372.381 92.194,358.833 88.665 C 351.429 86.737,226.168 86.929,226.939 88.867 M287.500 125.000 L 287.500 137.500 275.000 137.500 L 262.500 137.500 262.500 125.000 L 262.500 112.500 275.000 112.500 L 287.500 112.500 287.500 125.000 M350.000 125.000 L 350.000 137.500 337.500 137.500 L 325.000 137.500 325.000 125.000 L 325.000 112.500 337.500 112.500 L 350.000 112.500 350.000 125.000 M347.716 164.784 L 350.000 167.067 350.000 231.250 L 350.000 295.433 347.716 297.716 L 345.433 300.000 293.750 300.000 L 242.067 300.000 239.784 297.716 L 237.500 295.433 237.500 231.250 L 237.500 167.067 239.784 164.784 L 242.067 162.500 293.750 162.500 L 345.433 162.500 347.716 164.784 M100.000 337.500 L 100.000 350.000 87.500 350.000 L 75.000 350.000 75.000 337.500 L 75.000 325.000 87.500 325.000 L 100.000 325.000 100.000 337.500 M162.500 337.500 L 162.500 350.000 150.000 350.000 L 137.500 350.000 137.500 337.500 L 137.500 325.000 150.000 325.000 L 162.500 325.000 162.500 337.500 M225.000 337.500 L 225.000 350.000 212.500 350.000 L 200.000 350.000 200.000 337.500 L 200.000 325.000 212.500 325.000 L 225.000 325.000 225.000 337.500 M287.500 337.500 L 287.500 350.000 275.000 350.000 L 262.500 350.000 262.500 337.500 L 262.500 325.000 275.000 325.000 L 287.500 325.000 287.500 337.500 M350.000 337.500 L 350.000 350.000 337.500 350.000 L 325.000 350.000 325.000 337.500 L 325.000 325.000 337.500 325.000 L 350.000 325.000 350.000 337.500 " stroke="none" fill="#000000" fill-rule="evenodd"></path></g></svg>
