<svg id="svg" version="1.1" xmlns="http://www.w3.org/2000/svg" xmlns:xlink="http://www.w3.org/1999/xlink" width="400" height="400" viewBox="0, 0, 400,400"><g id="svgg"><path id="path0" d="M195.227 26.183 C 187.114 28.760,197.561 11.603,79.874 215.625 C 62.896 245.059,39.258 286.016,27.346 306.641 C 0.084 353.844,2.017 350.061,1.982 356.250 C 1.934 364.665,7.024 371.396,15.323 373.894 C 22.137 375.945,381.404 375.505,386.925 373.439 C 396.076 370.016,401.378 359.553,398.357 350.885 C 397.882 349.524,392.040 339.013,385.374 327.526 C 378.708 316.039,358.570 281.152,340.622 250.000 C 263.097 115.437,216.172 34.577,214.133 32.035 C 209.781 26.608,201.733 24.117,195.227 26.183 M233.679 138.281 C 251.412 169.004,284.487 226.309,307.177 265.625 L 348.433 337.109 200.651 337.307 C 119.371 337.415,52.750 337.386,52.605 337.241 C 52.322 336.957,62.030 320.046,133.410 196.484 C 158.977 152.227,183.933 108.984,188.867 100.391 C 200.138 80.760,200.016 80.949,200.791 81.752 C 201.146 82.121,215.945 107.559,233.679 138.281 M186.749 144.679 C 184.790 146.781,184.759 140.656,187.094 211.914 C 188.209 245.960,189.338 270.929,189.800 271.792 C 192.134 276.155,208.647 276.155,210.982 271.792 C 211.607 270.624,215.557 166.714,215.613 149.952 C 215.635 143.471,214.539 142.969,200.391 142.969 C 189.002 142.969,188.255 143.062,186.749 144.679 M187.035 286.801 C 185.696 288.281,185.547 289.760,185.547 301.563 C 185.547 318.967,184.644 317.969,200.391 317.969 C 216.137 317.969,215.234 318.967,215.234 301.563 C 215.234 284.158,216.137 285.156,200.391 285.156 C 189.318 285.156,188.424 285.266,187.035 286.801 " stroke="none" fill="#000000" fill-rule="evenodd"></path></g></svg>
