<svg id="svg" version="1.1" xmlns="http://www.w3.org/2000/svg" xmlns:xlink="http://www.w3.org/1999/xlink" width="400" height="400" viewBox="0, 0, 400,400"><g id="svgg"><path id="path0" d="M40.447 50.434 C 27.361 53.606,16.927 63.802,12.965 77.290 C 11.445 82.465,11.066 315.358,12.567 321.875 C 15.920 336.437,29.224 348.585,44.185 350.748 C 51.808 351.849,350.178 351.839,356.971 350.737 C 371.973 348.302,384.872 336.387,388.215 321.875 C 389.716 315.358,389.336 82.465,387.816 77.290 C 383.799 63.613,373.391 53.560,359.976 50.397 C 352.856 48.718,47.379 48.753,40.447 50.434 M181.250 143.750 L 181.250 162.500 151.661 162.500 C 115.345 162.500,113.151 163.020,108.284 172.788 L 106.250 176.869 106.250 200.162 C 106.250 238.298,106.230 238.281,152.486 238.281 L 181.250 238.281 181.250 257.084 L 181.250 275.887 148.242 275.590 C 105.338 275.203,100.366 273.881,84.897 258.753 C 70.661 244.831,67.468 232.486,68.188 194.141 C 68.785 162.300,73.223 150.441,89.472 137.269 C 103.068 126.248,108.412 125.145,148.633 125.065 L 181.250 125.000 181.250 143.750 M332.631 143.555 L 332.422 162.109 301.563 162.500 C 266.686 162.941,267.453 162.812,261.802 169.232 C 257.178 174.485,256.908 176.393,257.181 201.953 L 257.422 224.609 259.532 228.198 C 265.083 237.641,267.913 238.281,304.091 238.281 L 332.841 238.281 332.631 256.836 L 332.422 275.391 302.734 275.606 C 271.905 275.829,266.134 275.443,257.533 272.583 C 241.660 267.306,227.765 253.109,222.050 236.328 L 219.922 230.078 219.922 200.391 L 219.922 170.703 222.177 163.824 C 228.180 145.507,243.132 131.492,261.924 126.568 C 267.026 125.231,270.766 125.082,300.209 125.043 L 332.841 125.000 332.631 143.555 " stroke="none" fill="#000000" fill-rule="evenodd"></path></g></svg>
