<svg id="svg" version="1.1" xmlns="http://www.w3.org/2000/svg" xmlns:xlink="http://www.w3.org/1999/xlink" width="400" height="400" viewBox="0, 0, 400,400"><g id="svgg"><path id="path0" d="M196.668 20.332 C 186.907 22.796,178.543 31.037,176.126 40.570 L 175.220 44.141 156.946 44.531 C 137.393 44.949,136.069 45.208,132.324 49.340 C 126.074 56.237,127.441 82.009,134.429 88.996 C 139.406 93.973,136.082 93.750,205.328 93.750 L 268.519 93.750 271.106 91.992 C 276.256 88.492,276.927 85.880,277.171 68.359 C 277.510 44.067,278.037 44.534,250.282 44.532 L 231.424 44.531 230.939 41.992 C 228.115 27.195,211.379 16.617,196.668 20.332 M212.224 31.707 C 227.344 41.055,221.669 65.002,204.041 66.234 C 198.016 66.656,192.087 63.643,188.521 58.348 C 177.525 42.021,195.758 21.527,212.224 31.707 M85.654 62.863 C 83.994 63.455,81.628 64.905,80.395 66.087 C 75.410 70.862,75.722 59.854,75.958 222.779 L 76.172 370.949 78.561 373.900 C 84.132 380.784,70.020 380.048,201.424 380.309 C 324.476 380.553,321.252 380.644,325.852 376.773 C 330.790 372.619,330.469 383.444,330.469 221.088 C 330.469 74.702,330.447 72.551,328.924 69.566 C 325.441 62.738,321.156 61.585,300.391 61.884 L 284.766 62.109 284.339 73.828 C 283.771 89.425,281.420 94.704,273.221 98.790 L 269.224 100.781 204.729 100.774 L 140.234 100.766 136.195 98.885 C 126.067 94.170,122.368 87.287,121.995 72.461 L 121.725 61.719 105.199 61.753 C 93.221 61.778,87.841 62.083,85.654 62.863 M180.273 152.294 C 182.100 154.414,183.594 156.367,183.594 156.633 C 183.594 156.899,173.151 168.010,160.387 181.325 L 137.181 205.533 126.224 194.577 L 115.267 183.620 119.085 179.744 L 122.902 175.869 129.615 181.653 L 136.328 187.438 155.857 167.938 C 177.941 145.887,175.889 147.202,180.273 152.294 M294.531 182.422 L 294.531 188.281 242.969 188.281 L 191.406 188.281 191.406 182.422 L 191.406 176.563 242.969 176.563 L 294.531 176.563 294.531 182.422 M181.478 215.055 L 185.222 218.359 160.773 242.770 L 136.325 267.182 125.780 257.093 L 115.234 247.004 118.794 243.390 L 122.354 239.776 129.209 246.190 L 136.065 252.604 156.507 232.161 C 167.750 220.918,177.126 211.726,177.342 211.735 C 177.558 211.744,179.419 213.238,181.478 215.055 M293.750 246.094 L 293.750 251.563 242.578 251.563 L 191.406 251.563 191.406 246.094 L 191.406 240.625 242.578 240.625 L 293.750 240.625 293.750 246.094 M180.519 278.320 C 182.639 280.146,184.374 281.936,184.375 282.297 C 184.375 282.857,154.306 315.124,141.734 328.054 L 137.626 332.279 126.622 322.320 L 115.618 312.360 117.113 310.282 C 117.935 309.138,119.675 307.189,120.980 305.949 L 123.353 303.695 129.841 309.638 L 136.328 315.581 156.119 295.290 C 167.005 284.131,176.080 275.000,176.287 275.000 C 176.494 275.000,178.398 276.494,180.519 278.320 M292.969 309.766 L 292.969 314.844 241.797 314.844 L 190.625 314.844 190.625 309.766 L 190.625 304.688 241.797 304.688 L 292.969 304.688 292.969 309.766 " stroke="none" fill="#000000" fill-rule="evenodd"></path></g></svg>
