<svg id="svg" version="1.1" xmlns="http://www.w3.org/2000/svg" xmlns:xlink="http://www.w3.org/1999/xlink" width="400" height="400" viewBox="0, 0, 400,400"><g id="svgg"><path id="path0" d="M47.266 25.305 C 38.589 28.082,32.388 33.427,28.589 41.406 L 26.172 46.484 26.172 200.000 L 26.172 353.516 28.589 358.594 C 31.662 365.048,36.515 369.900,42.969 372.973 L 48.047 375.391 128.125 375.603 L 208.203 375.814 205.078 373.336 C 203.359 371.973,198.513 367.396,194.309 363.164 L 186.665 355.469 119.036 355.469 L 51.406 355.469 48.750 352.812 L 46.094 350.156 46.094 200.000 L 46.094 49.844 48.750 47.188 L 51.406 44.531 123.750 44.531 L 196.094 44.531 196.097 81.055 C 196.101 130.457,191.376 125.298,236.914 125.626 L 269.531 125.861 269.531 143.399 L 269.531 160.938 279.688 160.938 L 289.844 160.938 289.844 136.883 C 289.844 101.343,292.625 107.234,257.813 69.049 C 223.725 31.660,221.729 29.647,216.016 26.880 L 211.328 24.609 130.859 24.457 C 67.288 24.337,49.734 24.515,47.266 25.305 M239.844 78.989 C 251.230 91.495,260.666 102.047,260.812 102.439 C 260.968 102.859,252.331 103.065,239.718 102.942 L 218.359 102.734 218.152 79.492 C 218.039 66.709,218.214 56.250,218.543 56.251 C 218.872 56.251,228.457 66.484,239.844 78.989 M93.438 131.866 C 82.725 132.177,81.245 133.225,81.262 140.483 C 81.285 150.534,78.837 150.000,124.861 150.000 L 163.437 150.000 166.094 147.344 C 172.739 140.699,168.031 132.081,157.695 131.970 C 135.972 131.736,99.893 131.678,93.438 131.866 M262.891 183.895 C 179.091 200.021,152.842 304.491,219.727 355.681 C 293.961 412.496,397.308 340.626,370.570 250.781 C 357.206 205.876,307.881 175.238,262.891 183.895 M83.906 187.031 C 78.960 191.978,80.878 200.518,87.338 202.312 C 89.181 202.824,107.941 203.118,138.917 203.121 L 187.600 203.125 195.167 195.733 C 199.329 191.667,203.945 187.448,205.425 186.358 L 208.116 184.375 147.339 184.375 L 86.563 184.375 83.906 187.031 M298.663 208.110 C 347.669 222.789,367.956 279.615,339.095 321.364 C 307.229 367.460,237.373 362.216,212.150 311.834 C 191.271 270.129,215.619 217.804,260.699 207.503 C 263.623 206.835,266.719 206.124,267.578 205.923 C 272.595 204.749,292.001 206.115,298.663 208.110 M271.278 235.485 L 268.359 238.158 268.120 254.215 L 267.880 270.271 256.401 270.487 C 245.328 270.695,244.913 270.763,244.682 272.383 C 244.445 274.047,274.980 327.923,276.799 329.051 C 278.760 330.266,278.648 330.443,306.176 282.617 C 313.505 269.884,313.765 270.313,298.732 270.313 L 287.500 270.313 287.500 255.392 C 287.500 238.921,286.989 236.576,282.875 234.145 C 279.043 231.882,274.659 232.388,271.278 235.485 M86.233 237.841 C 79.508 240.768,79.332 250.881,85.946 254.301 C 87.855 255.288,93.865 255.469,124.847 255.469 L 161.490 255.469 164.339 246.582 C 165.906 241.694,167.188 237.475,167.188 237.207 C 167.188 236.120,88.775 236.735,86.233 237.841 M93.195 289.677 C 86.356 289.890,85.882 290.019,83.625 292.277 C 79.961 295.941,80.139 301.988,84.012 305.388 L 86.773 307.813 124.637 307.813 C 145.461 307.813,162.500 307.523,162.500 307.169 C 162.500 305.849,160.061 290.269,159.816 290.024 C 159.479 289.687,102.421 289.390,93.195 289.677 " stroke="none" fill="#000000" fill-rule="evenodd"></path></g></svg>
