<svg id="svg" version="1.1" xmlns="http://www.w3.org/2000/svg" xmlns:xlink="http://www.w3.org/1999/xlink" width="400" height="400" viewBox="0, 0, 400,400"><g id="svgg"><path id="path0" d="M272.493 10.670 C 271.508 11.216,270.150 11.676,269.475 11.691 C 267.631 11.733,253.775 18.629,251.758 20.509 C 249.800 22.334,249.338 27.927,250.779 32.366 C 251.207 33.686,252.234 37.051,253.060 39.844 L 254.563 44.922 250.405 49.133 L 246.247 53.345 237.150 50.891 C 222.109 46.834,219.682 48.750,212.425 70.413 C 208.845 81.097,209.574 82.505,222.461 89.785 L 229.688 93.867 229.688 99.624 L 229.688 105.380 222.001 109.733 C 209.784 116.650,208.976 118.358,212.751 129.297 C 219.924 150.082,222.647 152.187,237.109 148.124 L 246.484 145.490 250.700 149.625 L 254.915 153.760 253.962 157.153 C 253.438 159.020,252.467 162.480,251.803 164.844 C 248.650 176.069,249.773 178.165,261.866 183.619 C 280.934 192.220,283.136 191.854,290.550 178.853 L 295.421 170.312 301.180 170.313 L 306.940 170.313 309.359 174.805 C 317.454 189.835,319.241 190.961,329.596 187.564 C 351.316 180.439,353.936 177.116,349.609 162.185 C 347.070 153.423,347.076 153.381,351.309 148.943 L 354.926 145.151 364.927 147.737 C 377.874 151.085,378.901 150.739,383.573 141.447 C 393.105 122.489,392.921 116.019,382.699 110.724 C 380.398 109.532,377.109 107.744,375.391 106.751 L 372.266 104.944 372.040 99.123 L 371.815 93.303 379.738 88.720 C 391.849 81.714,392.462 80.357,388.645 68.987 C 381.785 48.552,378.382 46.136,362.891 50.700 L 355.078 53.003 350.909 48.886 L 346.741 44.770 349.217 35.553 C 353.194 20.751,351.713 18.730,331.647 11.595 C 318.535 6.933,318.142 7.172,307.136 26.563 C 306.634 27.445,304.984 27.734,300.442 27.734 L 294.413 27.734 292.168 23.828 C 290.934 21.680,288.777 17.912,287.374 15.456 C 283.948 9.454,278.081 7.568,272.493 10.670 M333.688 29.355 C 334.227 29.688,333.239 34.180,330.804 42.473 C 329.120 48.205,330.296 54.688,333.019 54.688 C 333.919 54.688,345.313 66.158,345.313 67.065 C 345.313 69.939,351.514 70.322,359.907 67.965 C 370.076 65.109,370.168 65.108,371.113 67.773 C 371.533 68.955,372.227 70.532,372.657 71.278 C 373.965 73.551,373.707 73.812,365.263 78.780 C 355.175 84.715,355.647 83.718,355.659 99.046 C 355.672 114.276,355.362 113.659,366.013 119.651 C 374.180 124.246,374.098 124.111,371.880 129.286 C 370.684 132.075,370.002 132.822,368.950 132.495 C 355.407 128.293,348.984 127.664,346.700 130.315 C 346.072 131.044,342.121 135.044,337.920 139.203 C 330.187 146.861,328.567 150.197,330.816 153.835 C 331.060 154.231,332.088 157.742,333.100 161.637 L 334.939 168.719 330.556 170.359 C 327.015 171.684,326.058 171.799,325.569 170.960 C 314.667 152.233,316.627 153.597,300.912 153.803 C 286.132 153.998,286.476 153.821,280.473 164.338 C 275.727 172.651,275.914 172.537,270.797 170.274 C 266.820 168.514,266.849 168.674,269.165 161.328 C 273.106 148.826,273.092 148.778,261.961 137.760 C 251.671 127.574,252.247 127.764,241.021 130.869 C 231.585 133.479,231.473 133.463,229.660 129.232 C 227.646 124.535,227.476 124.949,232.617 122.019 C 247.361 113.615,246.094 115.708,246.094 99.761 L 246.094 86.513 243.469 84.077 C 241.156 81.930,238.279 80.169,230.273 76.004 C 227.722 74.676,227.648 73.898,229.631 69.271 L 231.138 65.757 239.592 68.021 C 252.048 71.356,250.851 71.742,261.687 60.906 C 272.952 49.641,272.579 51.117,268.089 35.558 C 267.223 32.556,266.578 30.096,266.655 30.089 C 266.733 30.083,268.027 29.487,269.531 28.765 C 275.215 26.034,275.009 25.927,279.688 34.044 C 286.184 45.313,285.084 44.745,300.153 44.608 C 310.861 44.511,313.183 44.278,314.726 43.145 C 316.416 41.904,325.000 27.965,325.000 26.461 C 325.000 25.917,331.776 28.173,333.688 29.355 M290.118 64.767 C 250.983 75.967,259.947 135.429,300.781 135.502 C 331.847 135.557,348.543 97.828,327.555 75.000 C 318.085 64.699,303.901 60.823,290.118 64.767 M308.984 80.744 C 322.409 87.009,325.333 104.130,314.679 114.088 C 302.751 125.238,283.284 118.393,280.855 102.196 C 278.481 86.366,294.634 74.048,308.984 80.744 M127.734 139.521 C 126.445 139.702,123.541 140.050,121.281 140.294 C 116.274 140.837,112.733 143.485,112.160 147.117 C 111.576 150.813,109.454 166.248,108.951 170.458 C 108.519 174.068,108.456 174.139,104.467 175.464 C 102.242 176.203,98.481 177.704,96.109 178.801 C 93.737 179.897,91.585 180.808,91.325 180.827 C 90.770 180.865,89.010 179.596,79.424 172.244 C 63.427 159.974,64.543 159.855,48.210 175.576 C 34.148 189.111,31.733 194.482,36.910 200.714 C 37.879 201.880,39.375 203.807,40.234 204.996 C 41.094 206.185,42.346 207.810,43.017 208.608 C 43.689 209.405,44.919 210.987,45.752 212.123 C 46.584 213.259,48.059 215.127,49.028 216.274 C 51.722 219.461,51.830 220.760,49.774 225.200 C 48.731 227.453,47.227 231.154,46.431 233.425 C 44.758 238.201,46.078 237.701,29.510 239.838 C 16.233 241.552,13.880 242.246,12.655 244.813 C 9.632 251.148,9.381 271.546,12.162 284.951 C 12.813 288.086,15.670 289.033,30.473 291.016 C 38.327 292.068,44.816 293.026,44.894 293.144 C 44.972 293.263,45.672 295.117,46.451 297.266 C 47.230 299.414,48.740 303.051,49.807 305.347 C 52.205 310.512,52.416 310.018,42.277 323.037 C 31.371 337.042,31.524 338.285,45.950 352.880 C 63.463 370.598,63.349 370.580,79.637 358.140 C 87.694 351.986,91.784 349.317,92.421 349.797 C 93.507 350.613,104.254 355.139,106.794 355.849 C 108.155 356.230,108.601 357.087,108.953 360.000 C 112.918 392.810,110.576 390.234,136.442 390.234 C 160.863 390.234,159.166 391.446,161.679 372.220 C 163.842 355.665,163.568 356.533,166.992 355.412 C 168.603 354.885,172.410 353.323,175.450 351.942 C 181.475 349.206,180.650 349.098,186.257 353.354 C 189.286 355.652,197.812 362.292,198.964 363.251 C 204.384 367.757,208.516 368.206,213.221 364.798 C 222.773 357.878,238.281 340.680,238.281 337.007 C 238.281 334.250,237.484 332.963,228.323 320.931 L 220.168 310.222 222.500 305.287 C 223.783 302.572,225.287 298.832,225.843 296.976 C 227.089 292.817,227.195 292.777,241.406 291.102 C 262.070 288.666,261.328 289.629,261.328 265.234 C 261.328 240.830,262.341 242.069,240.234 239.428 C 228.281 238.000,226.776 237.486,226.087 234.597 C 225.802 233.401,224.339 229.702,222.836 226.377 C 220.920 222.137,220.337 220.038,220.883 219.346 C 241.881 192.755,241.628 194.146,228.121 179.503 C 212.687 162.771,206.261 160.358,198.042 168.209 C 197.506 168.721,196.271 169.668,195.300 170.313 C 194.328 170.957,192.615 172.223,191.493 173.126 C 190.371 174.029,187.565 176.188,185.257 177.924 L 181.061 181.080 176.663 179.116 C 174.245 178.036,170.530 176.554,168.408 175.823 C 163.472 174.122,163.676 174.639,161.649 158.697 C 159.707 143.429,159.000 141.857,153.516 140.619 C 149.968 139.819,131.290 139.023,127.734 139.521 M145.190 155.908 C 145.338 156.034,146.278 162.351,147.280 169.947 C 149.423 186.204,149.614 186.542,158.098 189.051 C 165.162 191.139,170.067 193.185,175.043 196.119 C 180.734 199.475,183.716 199.255,189.063 195.085 C 191.426 193.242,196.454 189.355,200.237 186.447 L 207.114 181.161 209.612 183.370 C 210.985 184.585,213.945 187.529,216.189 189.913 L 220.269 194.246 218.769 196.146 C 217.944 197.192,214.946 201.035,212.107 204.688 C 209.268 208.340,206.040 212.475,204.934 213.877 C 202.049 217.536,202.204 221.224,205.468 226.563 C 206.912 228.926,209.542 235.053,211.312 240.179 C 215.458 252.187,215.134 251.955,230.480 253.936 C 237.134 254.795,243.369 255.674,244.336 255.889 C 247.080 256.499,247.080 273.976,244.336 274.569 C 243.369 274.778,236.974 275.665,230.124 276.541 C 215.313 278.435,215.087 278.576,212.130 287.779 C 211.006 291.278,208.309 297.757,206.137 302.176 C 201.078 312.470,201.221 312.838,218.403 333.798 C 220.248 336.048,219.814 336.865,213.374 343.267 L 207.217 349.388 200.288 344.061 C 196.477 341.132,191.426 337.227,189.063 335.383 C 183.504 331.048,180.548 330.921,174.253 334.745 C 171.797 336.237,165.950 338.729,161.261 340.282 C 149.366 344.223,149.445 344.119,147.613 358.269 C 146.784 364.678,145.911 371.064,145.673 372.461 L 145.242 375.000 136.376 375.000 C 125.886 375.000,126.952 376.272,125.288 361.776 C 123.353 344.935,122.642 343.597,114.453 341.388 C 108.949 339.903,102.397 337.170,97.698 334.400 C 93.097 331.687,88.867 331.320,85.916 333.379 C 84.854 334.120,81.172 336.976,77.734 339.725 C 74.297 342.475,70.027 345.727,68.245 346.953 L 65.006 349.182 60.398 344.708 C 57.863 342.248,55.005 339.323,54.046 338.209 L 52.302 336.183 59.438 326.957 C 71.244 311.693,71.185 311.902,66.328 302.559 C 64.566 299.170,61.990 292.919,60.603 288.667 C 57.269 278.448,57.045 278.294,42.834 276.485 C 36.678 275.701,30.498 274.855,29.102 274.604 L 26.563 274.148 26.563 265.214 C 26.563 256.582,26.622 256.267,28.320 255.899 C 29.287 255.690,35.501 254.827,42.128 253.982 C 57.111 252.072,57.182 252.026,60.326 242.188 C 61.630 238.105,64.235 231.850,66.114 228.287 C 71.230 218.588,71.299 218.847,59.464 203.545 L 52.354 194.353 54.750 191.327 C 58.297 186.849,65.011 181.211,65.970 181.905 C 66.425 182.234,71.562 186.089,77.385 190.471 C 89.615 199.672,90.958 200.043,97.683 196.078 C 102.785 193.070,109.620 190.192,114.523 188.987 C 122.573 187.008,123.217 185.770,125.313 168.256 C 126.890 155.079,126.643 155.595,131.514 155.307 C 135.524 155.071,144.677 155.473,145.190 155.908 M129.042 214.091 C 88.009 219.660,70.197 270.077,98.553 300.389 C 130.385 334.418,187.285 311.980,187.472 265.325 C 187.597 234.181,159.908 209.903,129.042 214.091 M149.219 232.056 C 170.426 241.055,178.107 265.749,165.680 284.976 C 146.741 314.278,100.490 300.250,100.589 265.234 C 100.659 240.181,126.623 222.468,149.219 232.056 " stroke="none" fill="#000000" fill-rule="evenodd"></path></g></svg>
