<svg id="svg" xmlns="http://www.w3.org/2000/svg" xmlns:xlink="http://www.w3.org/1999/xlink" width="400" height="400" viewBox="0, 0, 400,400" version="1.1"><g id="svgg"><path id="path0" d="M157.654 6.977 C 144.718 11.114,135.438 21.869,133.390 35.102 L 132.535 40.625 118.807 40.638 C 95.271 40.660,92.906 43.703,96.052 69.922 C 98.394 89.450,100.365 93.800,108.764 97.985 L 112.807 100.000 167.927 99.983 C 230.143 99.963,226.338 100.328,232.701 93.771 C 236.942 89.401,237.947 86.187,239.812 71.026 C 242.281 50.957,241.607 47.387,234.500 42.880 L 230.944 40.625 217.070 40.625 L 203.196 40.625 202.770 37.891 C 202.535 36.387,202.168 34.014,201.953 32.617 C 199.118 14.187,176.340 1.003,157.654 6.977 M175.434 24.130 C 186.095 28.972,189.182 43.112,181.447 51.674 C 170.759 63.505,152.113 57.994,150.279 42.463 C 148.659 28.736,162.833 18.406,175.434 24.130 M72.148 50.032 C 50.988 54.219,33.018 70.203,25.632 91.406 L 23.047 98.828 22.829 219.141 C 22.589 351.323,22.385 345.005,27.293 356.909 C 34.186 373.624,47.898 385.906,66.797 392.293 L 72.266 394.141 206.087 394.349 C 326.326 394.536,340.395 394.431,344.703 393.315 C 358.595 389.715,369.749 379.828,374.931 366.521 L 376.953 361.328 377.166 278.347 C 377.405 184.937,377.770 191.129,371.462 181.683 C 368.369 177.050,319.498 128.204,315.919 126.168 L 313.478 124.779 313.053 112.194 C 311.980 80.478,293.960 56.774,266.406 50.836 C 257.632 48.946,258.594 48.443,258.594 54.925 C 258.594 89.355,249.510 108.458,229.688 115.718 L 224.609 117.578 167.578 117.578 L 110.547 117.578 105.922 115.817 C 93.919 111.245,84.310 101.208,81.325 90.121 C 79.824 84.549,76.476 55.218,76.990 52.148 C 77.531 48.920,77.604 48.952,72.148 50.032 M298.443 153.711 C 298.460 186.977,308.152 196.875,340.707 196.875 L 355.469 196.875 355.461 276.758 L 355.453 356.641 353.621 360.577 C 351.300 365.560,345.691 370.554,340.828 371.967 C 337.780 372.852,323.869 373.047,263.672 373.047 L 190.234 373.047 185.778 370.859 C 181.029 368.527,178.322 365.821,175.549 360.638 L 173.828 357.422 173.828 257.422 L 173.828 157.422 176.132 153.263 C 177.399 150.975,179.738 148.072,181.330 146.811 C 187.351 142.043,184.509 142.251,243.945 142.218 L 298.438 142.188 298.443 153.711 M202.736 200.437 C 195.613 204.189,193.253 211.358,196.967 217.966 C 200.540 224.323,199.815 224.219,240.663 224.219 L 276.816 224.219 280.103 222.292 C 287.908 217.719,287.966 206.987,280.217 201.244 C 277.191 199.001,206.854 198.268,202.736 200.437 M203.125 254.784 C 193.520 258.614,192.621 271.145,201.522 277.144 L 204.178 278.934 265.175 278.725 L 326.172 278.516 328.723 276.696 C 336.165 271.388,335.372 259.564,327.296 255.444 C 323.866 253.695,207.411 253.075,203.125 254.784 M201.501 310.370 C 193.389 315.837,193.170 325.742,201.034 331.569 C 203.221 333.190,203.722 333.205,263.924 333.393 L 324.609 333.584 327.691 331.831 C 333.962 328.262,335.854 320.289,331.861 314.255 C 327.910 308.285,331.599 308.594,264.255 308.594 L 204.137 308.594 201.501 310.370 " stroke="none" fill="#000000" fill-rule="evenodd"></path></g></svg>
