<svg id="svg" version="1.1" xmlns="http://www.w3.org/2000/svg" xmlns:xlink="http://www.w3.org/1999/xlink" width="400" height="400" viewBox="0, 0, 400,400"><g id="svgg"><path id="path0" d="M31.641 35.468 C 21.773 38.589,14.312 46.229,11.397 56.196 C 9.189 63.747,9.543 315.417,11.771 322.030 C 14.672 330.643,19.682 336.287,28.125 340.456 L 32.422 342.578 104.492 342.793 L 176.563 343.008 176.563 331.270 L 176.563 319.531 107.386 319.531 L 38.210 319.531 36.293 317.614 L 34.375 315.696 34.375 188.672 L 34.375 61.648 36.293 59.730 L 38.210 57.813 90.790 57.813 L 143.369 57.813 167.188 81.641 L 191.006 105.469 276.689 105.469 C 323.815 105.469,362.941 105.687,363.637 105.954 C 367.177 107.312,367.188 107.503,367.188 167.539 L 367.188 224.219 378.929 224.219 L 390.671 224.219 390.453 164.258 L 390.234 104.297 387.746 99.043 C 384.760 92.742,379.756 87.635,373.607 84.615 L 369.141 82.422 285.138 82.213 L 201.135 82.004 177.330 58.190 L 153.525 34.375 94.145 34.427 C 48.554 34.467,34.040 34.709,31.641 35.468 M260.319 188.337 C 210.978 194.745,178.093 243.068,190.271 291.267 C 202.963 341.498,261.106 368.872,306.055 345.779 L 309.766 343.873 332.422 366.390 C 362.862 396.644,361.124 396.182,378.653 378.653 C 396.167 361.139,396.628 362.883,366.427 332.422 L 343.964 309.766 346.161 305.078 C 373.505 246.728,324.445 180.008,260.319 188.337 M284.836 213.277 C 329.026 224.417,344.968 278.166,313.925 311.351 C 285.780 341.438,236.215 334.165,217.931 297.266 C 195.630 252.258,236.408 201.068,284.836 213.277 " stroke="none" fill="#000000" fill-rule="evenodd"></path></g></svg>
