<svg id="svg" version="1.1" xmlns="http://www.w3.org/2000/svg" xmlns:xlink="http://www.w3.org/1999/xlink" width="400" height="400" viewBox="0, 0, 400,400"><g id="svgg"><path id="path0" d="M98.822 8.087 C 94.788 9.966,90.905 13.757,88.491 18.175 C 86.705 21.442,85.868 325.607,87.627 332.023 C 88.304 334.490,89.875 336.845,92.927 339.966 C 100.302 347.505,89.636 346.931,218.018 346.693 L 330.078 346.484 333.294 344.764 C 338.390 342.038,341.175 339.301,343.326 334.903 L 345.326 330.816 345.124 198.416 C 344.929 70.412,344.873 65.917,343.447 63.046 C 342.118 60.371,328.548 46.623,299.124 18.142 C 285.310 4.772,298.476 6.249,193.189 6.258 L 102.734 6.265 98.822 8.087 M272.455 47.656 C 272.712 82.094,269.432 78.906,304.610 78.906 L 329.688 78.906 329.688 203.811 C 329.687 308.014,329.512 328.861,328.628 329.595 C 327.851 330.239,297.686 330.421,215.542 330.276 L 103.516 330.078 103.318 176.610 C 103.161 54.351,103.320 23.015,104.100 22.518 C 104.638 22.175,142.695 21.978,188.672 22.080 L 272.266 22.266 272.455 47.656 M305.469 46.873 L 321.484 62.450 305.078 62.280 L 288.672 62.109 288.460 46.680 C 288.344 38.193,288.519 31.260,288.851 31.273 C 289.182 31.286,296.660 38.306,305.469 46.873 M55.389 54.693 C 49.440 55.734,43.712 60.241,40.502 66.406 L 38.672 69.922 38.433 221.875 C 38.264 329.490,38.443 374.968,39.046 377.734 C 40.193 382.993,44.366 388.488,49.407 391.379 L 53.516 393.735 176.172 393.735 L 298.828 393.735 302.936 391.379 C 312.715 385.771,316.918 373.511,310.820 368.380 C 305.568 363.961,297.656 367.669,297.656 374.550 C 297.656 378.265,302.156 378.141,175.308 377.932 L 55.078 377.734 55.078 224.219 L 55.078 70.703 58.524 70.243 C 63.501 69.579,66.748 65.859,66.163 61.493 C 65.465 56.294,61.292 53.660,55.389 54.693 M148.733 119.873 C 143.326 122.226,141.961 128.800,146.034 132.873 L 148.317 135.156 191.724 135.156 L 235.132 135.156 237.515 133.008 C 242.358 128.641,240.769 121.294,234.611 119.584 C 229.828 118.255,151.846 118.518,148.733 119.873 M149.463 168.049 C 143.659 169.728,141.767 177.044,146.034 181.310 L 148.317 183.594 216.034 183.594 L 283.750 183.594 286.406 180.937 C 290.871 176.473,289.111 169.705,283.048 168.021 C 279.279 166.974,153.087 167.000,149.463 168.049 M152.861 216.406 C 144.073 217.049,140.438 224.152,146.034 229.748 L 148.317 232.031 216.034 232.031 L 283.750 232.031 286.406 229.375 C 290.208 225.573,289.518 219.522,285.007 217.107 C 283.273 216.180,164.571 215.550,152.861 216.406 M151.664 264.874 C 144.019 265.642,140.889 273.040,146.034 278.185 L 148.317 280.469 216.151 280.444 C 288.385 280.417,284.962 280.602,287.731 276.584 C 290.067 273.196,288.687 267.515,285.058 265.572 C 283.342 264.654,160.271 264.010,151.664 264.874 " stroke="none" fill="#000000" fill-rule="evenodd"></path></g></svg>
