<svg id="svg" version="1.1" xmlns="http://www.w3.org/2000/svg" xmlns:xlink="http://www.w3.org/1999/xlink" width="400" height="400" viewBox="0, 0, 400,400"><g id="svgg"><path id="path0" d="M70.054 33.673 C 66.193 34.581,55.469 39.733,55.469 40.680 C 55.469 41.079,55.102 41.406,54.655 41.406 C 53.720 41.406,52.794 42.149,48.323 46.484 C 42.095 52.524,35.938 61.516,35.938 64.569 C 35.938 65.150,35.634 65.625,35.264 65.625 C 33.008 65.625,32.812 76.338,32.812 200.000 C 32.812 323.662,33.008 334.375,35.264 334.375 C 35.634 334.375,35.937 334.850,35.937 335.431 C 35.937 338.484,42.095 347.476,48.323 353.516 C 52.794 357.851,53.720 358.594,54.655 358.594 C 55.102 358.594,55.469 358.921,55.469 359.320 C 55.469 360.405,66.467 365.488,70.819 366.415 C 78.944 368.145,329.504 367.047,333.594 365.264 C 335.527 364.420,337.285 363.510,337.500 363.241 C 337.715 362.972,339.385 362.100,341.211 361.304 C 343.037 360.507,344.531 359.572,344.531 359.225 C 344.531 358.878,344.933 358.594,345.425 358.594 C 346.252 358.594,354.613 350.374,358.203 346.031 C 359.063 344.991,360.469 342.651,361.328 340.829 C 362.188 339.008,363.115 337.514,363.390 337.509 C 363.664 337.504,364.135 336.182,364.436 334.570 C 364.737 332.959,365.392 331.147,365.890 330.544 C 367.591 328.487,367.147 142.399,365.435 139.453 C 364.685 138.164,364.070 136.494,364.067 135.742 C 364.065 134.990,363.711 134.375,363.281 134.375 C 362.852 134.375,362.500 133.848,362.500 133.203 C 362.500 132.559,362.172 132.031,361.771 132.031 C 361.371 132.031,360.807 131.289,360.519 130.381 C 359.412 126.894,268.946 37.500,266.523 37.500 C 266.101 37.500,265.638 37.200,265.495 36.834 C 264.571 34.471,255.279 32.812,242.966 32.813 L 230.469 32.813 230.469 64.453 C 230.469 85.026,230.195 96.094,229.688 96.094 C 229.258 96.094,228.906 96.800,228.906 97.663 C 228.906 99.321,225.019 103.906,223.613 103.906 C 223.159 103.906,222.640 104.346,222.461 104.883 C 221.790 106.897,102.027 106.650,98.144 104.626 C 94.670 102.815,92.188 100.349,92.188 98.709 C 92.188 98.130,91.836 97.656,91.406 97.656 C 90.898 97.656,90.625 86.328,90.625 65.234 L 90.625 32.813 81.836 32.891 C 77.002 32.934,71.700 33.286,70.054 33.673 M188.629 50.480 L 185.547 53.303 185.547 70.237 L 185.547 87.171 188.113 89.679 C 189.524 91.059,191.173 92.188,191.778 92.188 C 192.382 92.188,193.094 92.539,193.359 92.969 C 193.625 93.398,196.986 93.750,200.827 93.750 C 204.963 93.750,207.813 93.431,207.813 92.969 C 207.813 92.539,208.480 92.188,209.297 92.188 C 215.353 92.188,217.439 85.428,217.062 67.027 L 216.797 54.110 213.568 50.883 L 210.340 47.656 201.026 47.656 L 191.712 47.656 188.629 50.480 M300.781 186.741 C 305.303 189.506,306.250 190.267,306.250 191.138 C 306.250 191.644,306.689 192.204,307.227 192.383 C 308.246 192.722,309.185 293.576,308.219 298.925 C 307.732 301.625,303.771 306.250,301.946 306.250 C 301.306 306.250,300.781 306.522,300.781 306.854 C 300.781 309.511,111.779 310.929,102.344 308.342 C 96.275 306.678,92.271 303.613,92.213 300.586 C 92.199 299.834,91.836 299.219,91.406 299.219 C 90.893 299.219,90.625 281.250,90.625 246.875 C 90.625 216.743,90.921 194.531,91.322 194.531 C 91.705 194.531,92.235 193.667,92.500 192.611 C 93.031 190.495,98.571 186.299,101.593 185.723 C 107.468 184.605,298.887 185.583,300.781 186.741 M132.729 213.090 C 125.525 218.446,126.549 231.802,134.180 232.005 C 134.717 232.020,135.156 232.383,135.156 232.813 C 135.156 234.063,262.814 233.871,265.022 232.617 C 269.157 230.269,272.656 225.525,272.656 222.266 C 272.656 219.157,267.904 212.500,265.685 212.500 C 265.222 212.500,264.844 212.148,264.844 211.719 C 264.844 211.204,242.793 210.947,200.195 210.966 L 135.547 210.995 132.729 213.090 M135.248 263.056 C 126.278 264.796,125.033 278.630,133.418 283.398 C 135.623 284.652,265.625 284.844,265.625 283.594 C 265.625 283.164,266.089 282.813,266.656 282.813 C 267.983 282.813,271.094 279.248,271.094 277.728 C 271.094 277.087,271.445 276.563,271.875 276.563 C 274.476 276.563,271.839 268.942,267.948 265.214 L 265.523 262.891 201.316 262.793 C 166.002 262.739,136.272 262.858,135.248 263.056 " stroke="none" fill="#000000" fill-rule="evenodd"></path></g></svg>
