<svg id="svg" xmlns="http://www.w3.org/2000/svg" xmlns:xlink="http://www.w3.org/1999/xlink" width="400" height="400" viewBox="0, 0, 400,400"><g id="svgg"><path id="path0" d="M140.625 17.220 C 48.415 28.622,-6.100 123.077,30.926 207.289 C 61.683 277.244,146.835 307.823,215.257 273.484 L 224.609 268.790 228.614 272.872 C 347.619 394.147,336.955 384.040,345.120 383.298 C 355.380 382.365,373.897 367.925,378.860 356.986 C 380.935 352.412,380.959 345.297,378.914 340.791 C 377.568 337.825,333.197 291.165,279.763 236.524 L 269.258 225.782 274.876 214.923 C 324.346 119.313,246.157 4.171,140.625 17.220 M169.922 43.385 C 186.539 46.573,203.125 51.942,203.125 54.133 C 203.125 54.581,203.352 54.720,203.630 54.442 C 204.302 53.771,213.339 58.616,213.837 59.914 C 214.051 60.472,214.543 60.732,214.931 60.493 C 215.319 60.253,215.846 60.605,216.103 61.274 C 216.360 61.943,216.826 62.333,217.138 62.140 C 217.940 61.645,228.303 70.031,229.458 72.110 C 229.984 73.055,230.426 73.503,230.441 73.106 C 230.484 71.982,234.375 75.922,234.375 77.089 C 234.375 77.659,234.961 78.125,235.677 78.125 C 236.393 78.125,236.764 78.340,236.502 78.603 C 236.239 78.865,237.074 79.964,238.358 81.043 C 239.641 82.123,240.512 83.186,240.294 83.404 C 240.075 83.622,240.743 84.467,241.777 85.280 C 242.811 86.094,243.902 87.541,244.200 88.497 C 244.498 89.453,244.960 90.410,245.227 90.625 C 251.243 95.470,259.691 116.512,263.732 136.719 C 271.212 174.117,250.898 220.200,216.839 243.095 C 151.007 287.347,63.253 251.396,46.808 173.438 C 43.918 159.734,44.550 135.320,48.043 125.787 C 48.595 124.280,49.807 120.613,50.735 117.638 C 52.771 111.110,56.070 103.730,57.304 102.942 C 57.799 102.626,57.917 102.362,57.567 102.356 C 56.823 102.342,60.200 96.094,60.951 96.094 C 61.230 96.094,61.458 95.646,61.458 95.099 C 61.458 93.643,66.918 85.909,69.791 83.295 C 71.152 82.057,71.738 81.300,71.094 81.613 C 68.065 83.082,87.040 65.436,92.285 61.906 C 103.086 54.636,115.224 48.957,125.391 46.416 C 126.680 46.094,127.910 45.786,128.125 45.732 C 128.340 45.677,129.922 45.328,131.641 44.956 C 133.359 44.585,135.293 44.165,135.938 44.025 C 136.582 43.885,139.219 43.552,141.797 43.287 C 144.375 43.022,146.624 42.673,146.794 42.512 C 147.235 42.095,167.110 42.845,169.922 43.385 " stroke="none" fill="#000000" fill-rule="evenodd"></path></g></svg>
