<svg id="svg" version="1.1" xmlns="http://www.w3.org/2000/svg" xmlns:xlink="http://www.w3.org/1999/xlink" width="400" height="400" viewBox="0, 0, 400,400"><g id="svgg"><path id="path0" d="M242.875 7.414 C 204.674 11.570,173.957 27.473,148.022 56.520 C 133.443 72.849,119.366 104.324,116.871 126.172 C 114.700 145.190,114.698 147.074,116.839 165.625 C 119.025 184.560,127.237 205.711,139.741 224.609 C 141.731 227.617,143.655 230.544,144.017 231.113 C 144.481 231.844,141.618 235.234,134.278 242.647 L 123.881 253.147 117.064 246.362 C 110.892 240.218,110.118 239.682,108.875 240.687 C 108.121 241.297,84.732 264.563,56.900 292.388 L 6.298 342.980 31.904 368.740 L 57.510 394.500 109.029 342.927 C 137.364 314.562,160.704 291.179,160.897 290.965 C 161.089 290.751,158.167 287.482,154.402 283.700 L 147.558 276.823 155.615 268.792 C 160.046 264.375,164.819 259.752,166.222 258.520 L 168.772 256.278 172.863 258.967 C 182.275 265.154,201.964 275.785,203.997 275.778 C 204.610 275.775,207.400 271.020,210.443 264.792 C 213.394 258.752,217.173 251.766,218.841 249.268 C 220.510 246.769,221.875 244.529,221.875 244.289 C 221.875 244.050,217.217 241.559,211.523 238.755 C 179.634 223.045,156.817 192.623,153.454 161.328 C 153.224 159.180,152.701 154.832,152.294 151.666 C 148.410 121.495,167.765 81.892,195.730 62.794 C 256.942 20.990,335.332 51.101,354.626 123.828 C 357.923 136.256,357.574 158.167,353.866 171.484 C 353.388 173.203,352.809 175.580,352.580 176.767 C 352.351 177.954,351.853 179.118,351.472 179.353 C 351.092 179.587,350.781 180.285,350.781 180.902 C 350.781 182.453,346.160 192.246,342.339 198.793 C 338.607 205.187,338.522 204.897,344.735 206.985 C 349.361 208.540,357.983 212.679,366.973 217.660 C 372.257 220.588,372.781 220.239,377.793 210.466 C 396.669 173.662,399.019 131.694,384.198 96.094 C 383.751 95.020,383.129 93.438,382.817 92.578 C 368.722 53.814,327.672 19.681,283.645 10.118 C 277.197 8.718,256.385 6.151,253.125 6.354 C 252.480 6.394,247.868 6.871,242.875 7.414 M293.750 226.163 C 232.378 238.447,204.103 308.596,240.217 358.979 C 261.834 389.139,304.216 402.070,338.281 388.900 C 395.713 366.696,412.274 295.876,370.439 251.379 C 351.165 230.879,320.525 220.804,293.750 226.163 M314.047 250.587 C 322.758 254.964,322.446 267.869,313.538 271.591 C 303.216 275.903,293.562 265.930,298.395 255.947 C 301.240 250.070,308.244 247.672,314.047 250.587 M320.313 327.344 L 320.313 369.531 308.594 369.531 L 296.875 369.531 296.875 332.985 L 296.875 296.439 291.797 291.406 C 289.004 288.638,286.719 286.099,286.719 285.765 C 286.719 285.430,294.277 285.156,303.516 285.156 L 320.313 285.156 320.313 327.344 " stroke="none" fill="#000000" fill-rule="evenodd"></path></g></svg>
