<svg id="svg" xmlns="http://www.w3.org/2000/svg" xmlns:xlink="http://www.w3.org/1999/xlink" width="400" height="400" viewBox="0, 0, 400,400"><g id="svgg"><path id="path0" d="M174.272 1.222 C 11.170 22.162,-58.243 221.856,56.608 339.734 C 162.594 448.514,347.791 403.664,391.657 258.594 C 433.734 119.436,318.272 -17.266,174.272 1.222 M215.698 157.387 C 247.670 175.751,275.488 191.826,277.517 193.111 C 285.116 197.923,286.198 203.742,280.513 209.223 C 277.946 211.698,173.690 272.677,161.041 279.102 C 153.763 282.798,148.807 281.735,145.910 275.856 L 144.141 272.266 144.141 201.034 C 144.141 121.599,143.753 127.359,149.294 124.382 C 153.835 121.942,154.958 122.500,215.698 157.387 " stroke="none" fill="#000000" fill-rule="evenodd"></path></g></svg>
