<svg id="svg" xmlns="http://www.w3.org/2000/svg" xmlns:xlink="http://www.w3.org/1999/xlink" width="400" height="400" viewBox="0, 0, 400,400"><g id="svgg"><path id="path0" d="M175.954 1.699 C 166.873 6.102,164.844 11.853,164.844 33.181 L 164.844 48.892 156.342 51.362 C 151.666 52.720,143.204 55.831,137.537 58.275 L 127.234 62.719 114.984 50.592 C 91.895 27.735,88.621 28.019,61.552 55.219 C 43.078 73.783,42.188 75.065,42.188 83.083 C 42.187 90.863,43.451 92.891,56.507 106.070 L 68.325 118.000 65.754 122.477 C 61.997 129.018,58.021 137.608,54.643 146.484 L 51.669 154.297 32.671 154.688 C 9.602 155.162,5.285 156.832,1.074 166.910 C -0.934 171.717,-0.445 219.383,1.659 223.858 C 6.005 233.105,11.728 235.156,33.181 235.156 L 48.892 235.156 51.362 243.658 C 52.720 248.334,55.831 256.796,58.275 262.463 L 62.719 272.766 50.592 285.016 C 27.735 308.105,28.019 311.379,55.219 338.448 C 73.783 356.922,75.065 357.813,83.083 357.812 C 90.864 357.812,92.890 356.550,106.085 343.479 L 118.029 331.647 120.538 333.119 C 126.930 336.870,138.678 342.440,146.117 345.246 L 154.297 348.331 154.688 367.329 C 155.162 390.398,156.832 394.715,166.910 398.926 C 171.717 400.934,219.383 400.445,223.858 398.341 C 233.105 393.995,235.156 388.272,235.156 366.819 L 235.156 351.108 243.658 348.638 C 248.334 347.280,256.796 344.169,262.463 341.725 L 272.766 337.281 285.016 349.408 C 308.105 372.265,311.379 371.981,338.448 344.781 C 356.922 326.217,357.812 324.935,357.812 316.917 C 357.813 309.137,356.549 307.109,343.493 293.930 L 331.675 282.000 334.246 277.523 C 338.003 270.982,341.979 262.392,345.357 253.516 L 348.331 245.703 367.329 245.313 C 390.398 244.838,394.715 243.168,398.926 233.090 C 400.934 228.283,400.445 180.617,398.341 176.142 C 393.995 166.895,388.272 164.844,366.819 164.844 L 351.108 164.844 348.638 156.342 C 347.280 151.666,344.169 143.204,341.725 137.537 L 337.281 127.234 349.408 114.984 C 372.265 91.895,371.981 88.621,344.781 61.552 C 326.217 43.078,324.935 42.188,316.917 42.187 C 309.137 42.187,307.109 43.451,293.930 56.507 L 282.000 68.325 277.523 65.750 C 270.817 61.893,262.248 57.921,253.516 54.621 L 245.703 51.669 245.313 32.671 C 244.838 9.602,243.168 5.285,233.090 1.074 C 228.362 -0.901,180.231 -0.375,175.954 1.699 M208.614 121.122 C 275.007 129.239,302.958 208.885,255.921 255.921 C 208.566 303.276,128.846 274.820,121.052 207.780 C 115.368 158.888,159.585 115.128,208.614 121.122 " stroke="none" fill="#000000" fill-rule="evenodd"></path></g></svg>
