<svg id="svg" xmlns="http://www.w3.org/2000/svg" xmlns:xlink="http://www.w3.org/1999/xlink" width="400" height="401.5686274509804" viewBox="0, 0, 400,401.5686274509804"><g id="svgg"><path id="path0" d="M175.686 0.875 C 134.762 5.546,95.611 23.115,64.558 50.743 L 57.875 56.688 36.781 35.604 L 15.686 14.521 15.686 86.868 L 15.686 159.216 88.034 159.216 L 160.383 159.216 136.204 135.027 L 112.025 110.839 116.993 106.326 C 165.564 62.199,246.495 67.054,291.002 116.764 C 355.307 188.587,319.468 301.193,225.430 322.793 C 163.914 336.923,98.604 299.413,79.566 239.018 L 78.145 234.510 39.058 234.510 L -0.030 234.510 0.356 236.275 C 12.175 290.290,37.354 331.178,77.255 361.147 C 194.279 449.045,362.723 387.407,394.888 244.919 C 425.240 110.463,312.755 -14.770,175.686 0.875 " stroke="none" fill="#000000" fill-rule="evenodd"></path></g></svg>
