<svg id="svg" xmlns="http://www.w3.org/2000/svg" xmlns:xlink="http://www.w3.org/1999/xlink" width="400" height="400" viewBox="0, 0, 400,400" version="1.1"><g id="svgg"><path id="path0" d="M161.400 0.866 C 77.908 18.781,17.501 79.038,1.018 160.850 L -0.000 165.901 -0.000 200.021 L -0.000 234.142 1.232 240.171 C 17.681 320.651,78.930 381.934,159.737 398.764 L 165.673 400.000 200.004 400.000 L 234.334 400.000 240.867 398.624 C 321.244 381.697,381.697 321.244,398.624 240.867 L 400.000 234.334 400.000 200.004 L 400.000 165.673 398.764 159.737 C 381.851 78.533,320.367 17.393,239.150 1.018 L 234.099 0.000 199.550 0.047 C 167.021 0.090,164.789 0.138,161.400 0.866 M150.258 124.445 C 155.709 126.124,153.450 124.096,181.693 152.665 C 198.545 169.712,199.013 170.107,201.298 169.239 C 202.194 168.898,227.438 143.760,238.412 132.280 C 244.666 125.737,248.849 123.600,255.400 123.600 C 271.283 123.600,281.084 141.711,272.297 154.822 C 271.541 155.949,261.826 166.096,250.707 177.372 C 229.357 199.023,229.394 198.979,230.479 201.524 C 230.766 202.197,239.910 211.776,250.800 222.813 C 261.690 233.849,271.261 243.849,272.069 245.034 C 283.891 262.375,263.381 284.252,245.200 273.695 C 243.242 272.558,242.344 271.678,218.261 247.300 L 201.960 230.800 200.014 230.800 L 198.068 230.800 177.642 251.511 C 163.541 265.808,156.527 272.639,154.990 273.570 C 137.563 284.132,117.430 264.788,126.919 246.600 C 128.176 244.191,130.394 241.866,160.972 210.904 C 169.289 202.483,169.972 201.656,169.972 200.000 C 169.972 198.308,169.565 197.861,149.200 177.198 C 129.043 156.747,127.536 155.083,126.053 151.635 C 119.533 136.478,134.551 119.607,150.258 124.445 " stroke="none" fill="#fcfcfc" fill-rule="evenodd"></path><path id="path1" d="" stroke="none" fill="#100fcfc" fill-rule="evenodd"></path></g></svg>
