<svg id="svg" xmlns="http://www.w3.org/2000/svg" xmlns:xlink="http://www.w3.org/1999/xlink" width="400" height="423.1404958677686" viewBox="0, 0, 400,423.1404958677686" version="1.1"><g id="svgg"><path id="path0" d="M28.400 1.540 C 15.331 7.419,5.748 17.645,1.050 30.724 L -0.000 33.648 -0.000 159.200 L -0.000 284.752 1.050 287.676 C 6.147 301.863,17.793 313.350,32.000 318.206 C 39.376 320.727,41.019 320.871,65.600 321.149 L 87.800 321.400 88.021 351.800 L 88.241 382.200 89.489 386.806 C 93.750 402.527,102.629 413.511,116.753 420.532 L 120.913 422.600 245.005 422.600 L 369.097 422.600 373.649 420.329 C 385.542 414.395,393.968 405.248,398.606 393.239 L 400.000 389.630 400.000 248.839 L 400.000 108.048 398.950 105.124 C 392.862 88.170,378.663 76.424,359.600 72.570 C 358.830 72.414,347.850 72.178,335.200 72.044 L 312.200 71.800 311.968 56.200 C 311.743 41.043,311.706 40.485,310.687 36.561 C 306.549 20.620,297.587 9.417,283.310 2.337 L 279.000 0.200 155.400 0.105 L 31.800 0.010 28.400 1.540 M263.399 39.642 C 269.244 41.113,269.980 43.287,269.991 59.100 L 270.000 72.000 202.465 72.000 C 145.456 72.000,134.343 72.090,131.165 72.580 C 110.212 75.809,95.304 89.544,89.299 111.151 L 88.229 115.000 88.015 197.000 L 87.800 279.000 67.683 279.104 C 44.802 279.222,45.081 279.257,42.174 275.861 C 39.394 272.614,39.600 281.930,39.600 159.200 C 39.600 33.897,39.289 45.341,42.783 41.953 C 43.932 40.838,45.304 39.943,46.244 39.694 C 48.515 39.094,261.018 39.042,263.399 39.642 M355.580 115.300 C 357.175 116.266,358.043 117.165,358.963 118.800 L 360.200 121.000 360.302 248.078 L 360.405 375.157 359.588 377.341 C 358.613 379.946,356.014 382.537,353.742 383.167 C 351.453 383.803,138.467 383.772,136.343 383.136 C 134.269 382.514,131.858 380.386,130.835 378.273 L 130.000 376.547 130.009 248.774 C 130.017 125.158,130.042 120.948,130.760 119.400 C 131.575 117.644,133.534 115.643,135.400 114.663 C 136.484 114.093,147.100 114.030,245.018 114.016 L 353.435 114.000 355.580 115.300 " stroke="none" fill="#fcfcfc" fill-rule="evenodd"></path><path id="path1" d="" stroke="none" fill="#100fcfc" fill-rule="evenodd"></path></g></svg>
