<svg id="svg" xmlns="http://www.w3.org/2000/svg" xmlns:xlink="http://www.w3.org/1999/xlink" width="400" height="207.6923076923077" viewBox="0, 0, 400,207.6923076923077" version="1.1"><g id="svgg"><path id="path0" d="M0.005 1.299 L 0.011 2.597 4.113 6.753 C 6.369 9.039,10.966 13.808,14.329 17.351 C 17.691 20.894,23.394 26.831,27.001 30.545 C 30.607 34.260,35.288 39.120,37.403 41.346 C 42.810 47.039,45.379 49.714,52.271 56.831 C 58.805 63.578,61.840 66.741,64.732 69.818 C 66.726 71.939,69.962 75.300,75.435 80.932 C 79.494 85.110,83.342 89.109,85.935 91.844 C 91.253 97.455,97.529 103.992,100.797 107.325 C 102.814 109.382,105.529 112.182,106.830 113.547 C 108.131 114.912,109.397 116.240,109.644 116.499 C 109.890 116.757,111.755 118.726,113.788 120.874 C 117.349 124.638,119.980 127.359,127.809 135.376 C 129.818 137.434,134.160 141.969,137.458 145.455 C 140.756 148.940,145.054 153.429,147.009 155.429 C 151.421 159.942,155.685 164.363,157.732 166.545 C 160.631 169.637,169.409 178.783,172.988 182.442 C 176.493 186.024,179.921 189.585,183.587 193.450 C 184.614 194.533,186.388 196.403,187.528 197.606 C 188.669 198.808,191.021 201.242,192.755 203.013 C 194.489 204.784,196.215 206.584,196.590 207.013 L 197.271 207.792 199.999 207.792 L 202.728 207.792 206.985 203.377 C 209.327 200.948,213.149 196.951,215.480 194.494 C 217.810 192.036,222.390 187.268,225.658 183.896 C 231.034 178.350,238.184 170.896,242.286 166.562 C 243.950 164.803,248.209 160.397,254.760 153.656 C 256.985 151.367,261.277 146.886,264.298 143.697 C 267.319 140.509,271.619 136.023,273.853 133.729 C 281.740 125.630,283.623 123.675,289.780 117.195 C 293.201 113.595,297.776 108.826,299.947 106.597 C 304.633 101.789,308.398 97.881,310.963 95.166 C 315.294 90.581,317.161 88.632,320.613 85.087 C 326.089 79.466,333.569 71.678,337.975 67.013 C 340.133 64.727,343.541 61.174,345.547 59.118 C 354.148 50.301,356.177 48.196,361.770 42.286 C 365.015 38.857,369.503 34.182,371.744 31.896 C 376.458 27.088,379.487 23.936,386.321 16.723 C 389.027 13.868,393.207 9.522,395.611 7.065 L 399.982 2.597 399.991 1.299 L 400.000 0.000 200.000 0.000 L 0.000 0.000 0.005 1.299 " stroke="none" fill="#fcfcfc" fill-rule="evenodd"></path><path id="path1" d="" stroke="none" fill="#100fcfc" fill-rule="evenodd"></path></g></svg>
