<svg id="svg" xmlns="http://www.w3.org/2000/svg" xmlns:xlink="http://www.w3.org/1999/xlink" width="400" height="398.4375" viewBox="0, 0, 400,398.4375" version="1.1"><g id="svgg"><path id="path0" d="M330.209 1.013 C 328.187 2.412,305.023 26.536,304.144 28.158 C 302.592 31.025,301.968 30.298,325.528 53.071 C 337.424 64.570,352.151 78.824,358.255 84.746 C 369.774 95.923,370.433 96.482,372.084 96.482 C 373.978 96.482,375.445 95.071,393.719 75.662 L 400.000 68.990 400.000 58.682 L 400.000 48.373 393.918 42.394 C 382.587 31.252,352.293 2.506,350.558 1.249 L 348.833 0.000 340.219 0.024 C 331.775 0.047,331.578 0.067,330.209 1.013 M19.741 15.538 C 11.927 17.611,5.465 22.434,1.496 29.155 L 0.000 31.687 0.000 207.733 L 0.000 383.778 1.066 385.608 C 4.038 390.708,8.245 394.797,13.193 397.397 L 15.869 398.804 190.199 398.804 L 364.529 398.804 366.814 397.650 C 373.923 394.062,379.062 388.013,381.929 379.860 L 383.051 376.670 383.051 294.915 C 383.051 206.866,383.159 211.205,380.953 210.562 C 378.120 209.736,337.174 210.212,336.305 211.081 C 335.629 211.758,335.583 215.275,335.394 281.555 C 335.204 347.845,335.159 351.353,334.482 352.030 C 333.516 352.996,47.286 353.159,46.123 352.194 C 45.512 351.687,45.464 341.116,45.464 207.750 L 45.464 63.854 46.350 63.233 C 47.144 62.677,54.701 62.612,119.078 62.612 L 190.919 62.612 191.970 61.786 L 193.021 60.959 193.021 38.731 C 193.021 20.164,192.928 16.376,192.455 15.729 C 191.585 14.539,24.203 14.354,19.741 15.538 M286.109 46.774 C 285.227 47.289,280.071 52.574,256.841 76.773 C 248.841 85.106,239.765 94.526,236.672 97.707 C 229.954 104.614,193.300 142.759,187.518 148.859 C 183.538 153.059,183.450 153.193,183.450 155.038 L 183.450 156.924 216.254 189.728 C 252.037 225.511,249.911 223.626,252.679 222.020 C 253.830 221.352,354.871 116.142,355.788 114.656 C 357.522 111.850,357.296 111.505,347.543 102.057 C 321.763 77.084,290.536 47.190,289.795 46.774 C 288.694 46.155,287.169 46.155,286.109 46.774 M158.560 179.094 C 157.992 179.768,157.419 180.800,157.287 181.387 C 157.155 181.973,156.718 183.619,156.317 185.045 C 155.915 186.471,155.133 189.432,154.579 191.625 C 154.025 193.819,153.025 197.677,152.358 200.199 C 151.690 202.722,150.046 209.003,148.703 214.158 C 131.341 280.811,131.340 279.431,148.754 273.675 C 152.812 272.333,161.515 269.501,168.096 267.380 C 174.676 265.259,186.251 261.464,193.819 258.945 C 201.386 256.426,211.724 253.053,216.793 251.449 C 227.806 247.965,228.397 247.693,228.722 245.957 C 229.150 243.677,228.725 243.218,195.739 210.269 L 163.299 177.866 161.445 177.866 C 159.866 177.866,159.440 178.047,158.560 179.094 " stroke="none" fill="#fcfcfc" fill-rule="evenodd"></path><path id="path1" d="" stroke="none" fill="#100fcfc" fill-rule="evenodd"></path></g></svg>
