<svg id="svg" xmlns="http://www.w3.org/2000/svg" xmlns:xlink="http://www.w3.org/1999/xlink" width="400" height="400" viewBox="0, 0, 400,400" version="1.1"><g id="svgg"><path id="path0" d="M160.000 1.026 C 102.420 12.983,53.695 47.771,24.868 97.507 C 12.744 118.424,5.786 137.141,0.397 163.331 C -0.139 165.937,-0.140 234.059,0.397 236.669 C 17.752 321.151,78.056 382.424,160.126 398.967 L 165.253 400.000 200.076 400.000 L 234.899 400.000 239.950 398.980 C 320.547 382.693,382.693 320.547,398.980 239.950 L 400.000 234.899 400.000 200.076 L 400.000 165.253 398.967 160.126 C 382.727 79.555,320.486 17.315,239.874 1.035 L 234.747 -0.000 199.674 0.035 L 164.600 0.071 160.000 1.026 M211.438 33.201 C 217.464 33.581,220.390 33.905,226.400 34.861 C 312.041 48.480,373.242 125.761,366.838 212.200 C 366.386 218.305,366.206 219.842,365.165 226.502 C 354.082 297.414,298.171 353.433,226.800 365.133 C 135.737 380.061,49.369 317.635,34.861 226.400 C 27.105 177.627,41.436 127.317,73.601 90.399 C 99.514 60.657,134.782 41.069,173.600 34.859 C 175.030 34.630,176.920 34.327,177.800 34.187 C 185.021 33.032,201.227 32.557,211.438 33.201 M199.800 99.164 C 177.515 101.585,162.081 124.079,170.546 141.800 C 174.868 150.850,182.173 154.800,194.587 154.800 C 218.841 154.800,236.086 136.471,230.833 116.274 C 227.458 103.301,216.638 97.335,199.800 99.164 M222.325 171.007 C 212.094 173.201,210.182 173.315,180.883 173.497 L 153.567 173.667 152.483 174.599 L 151.400 175.531 151.400 182.265 C 151.401 191.907,151.072 191.600,161.426 191.600 L 168.400 191.600 168.400 236.000 L 168.400 280.400 161.022 280.400 C 153.801 280.400,153.621 280.420,152.522 281.365 L 151.400 282.330 151.400 290.265 C 151.400 299.136,151.543 300.063,153.009 300.731 C 154.488 301.405,245.512 301.405,246.991 300.731 C 248.446 300.068,248.600 299.120,248.600 290.800 C 248.600 279.810,249.146 280.400,238.981 280.400 L 232.000 280.400 232.000 226.860 C 232.000 188.801,231.872 172.953,231.558 172.051 C 230.741 169.707,229.203 169.533,222.325 171.007 " stroke="none" fill="#fcfcfc" fill-rule="evenodd"></path><path id="path1" d="" stroke="none" fill="#100fcfc" fill-rule="evenodd"></path></g></svg>
