<svg id="svg" xmlns="http://www.w3.org/2000/svg" xmlns:xlink="http://www.w3.org/1999/xlink" width="400" height="400" viewBox="0, 0, 400,400" version="1.1"><g id="svgg"><path id="path0" d="M161.400 0.866 C 77.862 18.791,17.510 78.993,1.018 160.850 L -0.000 165.901 -0.000 200.021 L -0.000 234.142 1.232 240.171 C 17.676 320.628,78.953 381.939,159.737 398.764 L 165.673 400.000 200.004 400.000 L 234.334 400.000 241.055 398.594 C 320.911 381.892,381.892 320.911,398.594 241.055 L 400.000 234.334 400.000 200.004 L 400.000 165.673 398.764 159.737 C 381.860 78.576,320.324 17.385,239.150 1.018 L 234.099 0.000 199.550 0.047 C 167.021 0.090,164.789 0.138,161.400 0.866 M156.739 126.579 C 157.641 126.897,160.499 128.404,163.090 129.928 C 165.680 131.451,173.920 136.203,181.400 140.488 C 188.880 144.772,202.920 152.834,212.600 158.403 C 231.012 168.995,245.459 177.297,265.111 188.576 C 286.880 201.071,287.226 203.840,268.375 214.664 C 260.771 219.030,251.700 224.267,214.800 245.595 C 204.790 251.381,191.314 259.157,184.854 262.876 C 178.393 266.595,170.293 271.286,166.854 273.301 C 154.375 280.612,150.193 280.780,147.538 274.076 L 146.637 271.800 146.328 203.000 C 146.120 156.807,146.152 133.543,146.425 132.200 C 147.477 127.020,151.609 124.768,156.739 126.579 " stroke="none" fill="#fcfcfc" fill-rule="evenodd"></path><path id="path1" d="" stroke="none" fill="#100fcfc" fill-rule="evenodd"></path></g></svg>
