<svg id="svg" xmlns="http://www.w3.org/2000/svg" xmlns:xlink="http://www.w3.org/1999/xlink" width="400" height="530.5699481865284" viewBox="0, 0, 400,530.5699481865284" version="1.1"><g id="svgg"><path id="path0" d="M0.000 265.200 L 0.000 530.400 3.346 530.400 C 5.971 530.400,6.898 530.243,7.646 529.670 C 8.171 529.268,17.690 522.847,28.800 515.401 C 39.910 507.955,53.590 498.775,59.200 495.001 C 64.810 491.227,78.490 482.048,89.600 474.602 C 100.710 467.157,114.120 458.155,119.400 454.598 C 124.680 451.041,136.740 442.940,146.200 436.595 C 155.660 430.251,169.340 421.072,176.600 416.199 C 183.860 411.325,196.730 402.687,205.200 397.003 C 213.670 391.319,227.080 382.317,235.000 376.999 C 242.920 371.681,256.870 362.321,266.000 356.200 C 275.130 350.078,288.000 341.439,294.600 337.003 C 315.194 323.159,354.646 296.676,388.900 273.700 L 400.000 266.255 400.000 263.179 L 400.000 260.104 393.700 255.973 C 390.235 253.701,379.660 246.721,370.200 240.462 C 360.740 234.204,349.850 227.006,346.000 224.468 C 342.150 221.929,330.180 214.012,319.400 206.875 C 308.620 199.737,294.040 190.096,287.000 185.450 C 279.960 180.805,268.440 173.193,261.400 168.536 C 254.360 163.879,243.830 156.917,238.000 153.065 C 232.170 149.214,218.580 140.229,207.800 133.099 C 197.020 125.969,182.890 116.629,176.400 112.344 C 161.414 102.450,144.796 91.465,123.000 77.047 C 113.540 70.789,100.490 62.163,94.000 57.879 C 87.510 53.594,74.190 44.790,64.400 38.314 C 43.836 24.710,28.869 14.819,15.704 6.133 L 6.409 0.000 3.204 0.000 L 0.000 0.000 0.000 265.200 " stroke="none" fill="#fcfcfc" fill-rule="evenodd"></path><path id="path1" d="" stroke="none" fill="#100fcfc" fill-rule="evenodd"></path></g></svg>
