<svg id="svg" xmlns="http://www.w3.org/2000/svg" xmlns:xlink="http://www.w3.org/1999/xlink" width="400" height="400" viewBox="0, 0, 400,400" version="1.1"><g id="svgg"><path id="path0" d="M171.548 1.704 C 163.887 7.473,162.785 11.139,162.449 31.995 C 162.207 46.982,162.179 47.393,161.400 47.521 C 155.621 48.472,133.213 56.831,129.411 59.455 C 127.967 60.452,127.497 60.068,115.214 47.876 C 103.868 36.613,102.799 35.661,100.167 34.475 C 93.417 31.435,86.226 31.523,79.853 34.724 C 75.568 36.876,44.513 67.880,42.278 72.237 C 38.719 79.175,38.650 86.344,42.072 93.571 C 43.162 95.872,44.681 97.574,54.258 107.222 C 60.276 113.283,65.200 118.382,65.200 118.552 C 65.200 118.722,64.500 120.062,63.644 121.530 C 59.489 128.659,54.339 139.892,51.707 147.566 C 50.908 149.895,50.063 151.932,49.827 152.094 C 49.592 152.256,42.166 152.391,33.325 152.394 C 11.225 152.402,6.605 153.766,1.240 161.865 L -0.000 163.737 -0.000 195.029 L -0.000 226.321 1.840 228.769 C 7.453 236.235,12.244 237.600,32.839 237.600 C 44.003 237.600,47.258 237.712,47.372 238.100 C 47.453 238.375,48.006 240.400,48.602 242.600 C 50.740 250.502,53.455 257.811,57.686 267.061 L 60.142 272.429 48.125 284.514 C 32.615 300.114,30.805 303.487,32.597 313.442 C 33.931 320.850,33.845 320.738,52.953 339.849 C 73.025 359.922,73.697 360.383,82.942 360.395 C 91.643 360.407,93.571 359.242,107.230 345.719 C 113.296 339.714,118.355 334.800,118.472 334.800 C 118.589 334.800,120.275 335.715,122.219 336.833 C 128.974 340.720,137.369 344.567,146.200 347.821 C 149.060 348.875,151.625 349.909,151.900 350.118 C 152.286 350.411,152.400 354.225,152.400 366.785 C 152.400 388.922,153.656 393.197,161.811 398.807 L 163.544 400.000 194.928 400.000 L 226.312 400.000 228.712 398.233 C 236.207 392.715,237.600 387.840,237.600 367.115 L 237.600 352.831 239.300 352.398 C 248.631 350.022,261.263 345.368,269.290 341.347 C 270.770 340.606,272.107 340.000,272.263 340.000 C 272.419 340.000,278.048 345.455,284.773 352.122 C 296.191 363.442,297.191 364.330,299.885 365.547 C 306.632 368.592,313.482 368.526,320.000 365.351 C 322.811 363.981,324.033 362.861,339.416 347.544 C 359.257 327.787,359.916 326.864,360.315 318.235 C 360.753 308.758,359.562 306.680,345.697 292.732 L 334.695 281.663 337.100 277.332 C 341.365 269.651,345.856 259.695,348.616 251.800 C 349.232 250.040,349.907 248.375,350.117 248.100 C 350.411 247.714,354.260 247.600,366.957 247.600 C 389.036 247.600,393.176 246.375,398.823 238.167 L 400.000 236.456 400.000 205.068 L 400.000 173.679 398.235 171.340 C 392.522 163.768,387.699 162.401,366.687 162.401 C 355.897 162.400,352.744 162.288,352.639 161.900 C 349.466 150.199,347.383 144.263,343.129 134.800 C 341.596 131.390,340.243 128.368,340.122 128.084 C 339.990 127.775,344.594 122.862,351.601 115.833 C 367.324 100.061,369.328 96.338,367.444 86.400 C 366.097 79.298,365.841 78.964,348.044 61.063 C 328.227 41.129,326.815 40.118,318.197 39.699 C 308.911 39.247,306.636 40.552,292.778 54.281 C 286.717 60.286,281.663 65.200,281.548 65.200 C 281.434 65.200,279.374 64.097,276.970 62.749 C 269.689 58.665,259.854 54.239,252.000 51.512 C 250.130 50.862,248.375 50.144,248.100 49.916 C 247.715 49.597,247.600 45.723,247.600 33.043 C 247.600 10.964,246.375 6.824,238.167 1.177 L 236.456 0.000 205.128 0.004 L 173.800 0.008 171.548 1.704 M207.600 123.379 C 268.791 130.854,298.222 200.589,260.168 247.933 C 216.927 301.730,131.669 276.592,123.370 207.600 C 117.743 160.817,160.891 117.673,207.600 123.379 " stroke="none" fill="#fcfcfc" fill-rule="evenodd"></path><path id="path1" d="" stroke="none" fill="#100fcfc" fill-rule="evenodd"></path></g></svg>
